<svg xmlns="http://www.w3.org/2000/svg" xmlns:xlink="http://www.w3.org/1999/xlink" version="1.1" x="0px" y="0px" viewBox="0 0 145.39 286.47875" style="enable-background:new 0 0 145.39 229.183;" xml:space="preserve"><g><path d="M84.989,128.083l-4.771,2.738l-8.236,4.726l-16.492,9.462v71.811c0,6.828,5.537,12.363,12.365,12.363   c6.826,0,12.363-5.535,12.363-12.363v-81.273h4.771v81.273c0,6.828,5.537,12.363,12.365,12.363c6.826,0,12.363-5.535,12.363-12.363   V113.894l-0.137,0.079L84.989,128.083z"/><ellipse transform="matrix(0.9739 -0.2268 0.2268 0.9739 -2.9522 19.3046)" cx="82.534" cy="22.5" rx="22.495" ry="22.494"/><path d="M113.653,132.67c-1.564,4.131,0.516,8.75,4.646,10.315c0.934,0.354,1.893,0.52,2.834,0.52c3.23,0,6.271-1.969,7.484-5.168   c4.982-13.159,7.049-24.72,7.047-34.791c0.004-1.525-0.059-3.001-0.148-4.454l-16.043,9.204   C118.938,115.205,117.207,123.276,113.653,132.67z"/><path d="M28.989,113.703L5.406,135.98l0.02,0.023c-1.424,1.438-1.938,3.612-1.613,6.01l27.519-18.897   C30.367,119.917,29.586,116.777,28.989,113.703z"/><path d="M55.75,106.348l14.07-9.662l36.721-25.215l3.039-2.087l10.385-7.13l1.109-0.763c3.768-2.369,8.633-2.193,13.43,0.434   c0.082,0.045,0.162,0.1,0.244,0.145c4.205-4.466,2.856-13.369-3.262-20.39c-6.375-7.32-15.5-9.807-20.379-5.557L94.621,51.699   L55.489,88.668l-7.824,7.393c-0.082,1.053-0.131,2.147-0.137,3.295c0,3.674,0.469,7.596,1.344,11.716l6.617-4.543L55.75,106.348z    M118.237,38.269c2.684-2.338,8.131-0.475,12.172,4.16c4.037,4.637,5.135,10.289,2.453,12.627c-0.41,0.356-0.889,0.604-1.412,0.77   c-0.512,0.163-1.068,0.242-1.662,0.232c-2.773-0.048-6.279-1.926-9.1-5.162c-3.338-3.831-4.658-8.353-3.502-11.129   c0.133-0.323,0.303-0.621,0.504-0.893C117.852,38.656,118.03,38.45,118.237,38.269z M114.112,40.769   c0.549-0.478,1.217-0.771,1.959-0.91c-2.4,2.452-1.264,7.908,2.66,12.412c3.213,3.688,7.316,5.612,10.213,5.07   c-0.07,0.071-0.131,0.148-0.207,0.215c-2.684,2.338-8.135,0.475-12.174-4.16C112.526,48.761,111.428,43.109,114.112,40.769z"/><path d="M134.996,64.99c-0.709-0.486-1.43-0.907-2.154-1.272c-3.709-1.869-7.522-2.128-10.44-0.294l-0.842,0.578l-11.98,8.222   l-1.332,0.915L72.729,97.517l-17.24,11.833l-6.064,4.162c1.068,4.288,2.598,8.797,4.566,13.495   c0.168,0.402,0.316,0.795,0.492,1.199c0.156,0.361,0.281,0.727,0.393,1.095c1.438,4.788-0.908,10.019-5.607,12.05   c-1.268,0.547-2.6,0.824-3.963,0.824c-1.744,0-3.402-0.475-4.863-1.29c-0.709-0.396-1.371-0.867-1.965-1.425   c-0.984-0.922-1.801-2.038-2.357-3.326c-1.568-3.633-2.918-7.201-4.061-10.703l-27.66,18.984l-1.883,1.293l0.014,0.025   c-0.041,0.03-0.076,0.068-0.117,0.1c-3.209,2.515-3.242,8.499,0.055,13.745c3.34,5.309,8.844,7.883,12.504,5.941l0.016,0.025   l40.502-23.238l11.785-6.762l12.943-7.426l4.771-2.738l24.592-14.109l0.137-0.078l9.908-5.686l15.688-9l5.797-3.326   c5.479-3.443,5.732-12.899,0.566-21.115C139.801,69.086,137.467,66.685,134.996,64.99z M135.713,87.187   c-0.576,0.34-1.223,0.515-1.91,0.541c-2.975,0.113-6.76-2.561-9.293-6.861c-1.129-1.916-1.848-3.89-2.17-5.718   c-0.178-1.013-0.238-1.981-0.168-2.867c0.152-1.937,0.898-3.485,2.24-4.276c0.084-0.049,0.174-0.081,0.26-0.124   c0.563-0.275,1.178-0.411,1.834-0.411c-0.486,0.34-0.889,0.782-1.199,1.318c-0.246,0.427-0.436,0.909-0.57,1.435   c-0.242,0.936-0.314,2.008-0.205,3.167c0.195,2.105,0.967,4.478,2.314,6.768c1.818,3.086,4.277,5.324,6.621,6.307   c0.859,0.36,1.699,0.55,2.49,0.55C135.875,87.071,135.801,87.136,135.713,87.187z M140.227,85.486   c-0.467,0.275-0.984,0.431-1.529,0.498c-0.533,0.066-1.094,0.042-1.676-0.076c-1.436-0.293-2.975-1.128-4.432-2.394   c-1.303-1.132-2.539-2.602-3.566-4.349c-1.506-2.556-2.287-5.215-2.355-7.49c-0.01-0.28-0.006-0.553,0.008-0.82   c0.049-1.009,0.254-1.918,0.615-2.683c0.098-0.207,0.207-0.404,0.328-0.589c0.191-0.293,0.41-0.556,0.66-0.785   c0.199-0.185,0.41-0.355,0.646-0.494c0.396-0.233,0.824-0.386,1.277-0.47c0.979-0.181,2.072-0.013,3.193,0.438   c2.377,0.958,4.885,3.217,6.732,6.35C143.248,77.922,143.293,83.679,140.227,85.486z"/><path d="M30.262,109.308c0.131,0.91,0.281,1.835,0.447,2.768c0.564,3.154,1.344,6.438,2.352,9.854   c0.227,0.768,0.465,1.542,0.715,2.323c1.141,3.558,2.52,7.25,4.18,11.091c0.49,1.136,1.213,2.099,2.088,2.86   c0.631,0.55,1.348,0.983,2.109,1.31c0.99,0.424,2.059,0.66,3.152,0.66c1.059,0,2.135-0.211,3.168-0.658   c3.504-1.514,5.369-5.236,4.686-8.836c-0.109-0.566-0.273-1.13-0.512-1.682c-0.1-0.229-0.19-0.453-0.287-0.682   c-2.092-4.925-3.625-9.448-4.699-13.593c-0.213-0.819-0.41-1.626-0.588-2.416c-1.09-4.852-1.543-9.158-1.543-12.962   c0.002-0.446,0.023-0.87,0.037-1.304c0.035-1.177,0.104-2.318,0.219-3.405c0.23-2.178,0.609-4.178,1.105-6.021   c1.779-6.618,5.061-11.202,8.354-14.62c0.082-0.083,0.164-0.158,0.244-0.239v11.708l35.726-33.766H63.217   c-0.646,0-1.271,0.088-1.873,0.238c-0.902,0.023-1.816,0.192-2.705,0.541c-0.66,0.273-7.619,3.031-14.799,10.295   C38.174,68.45,32.51,77.255,30.401,89.17c-0.561,3.175-0.885,6.558-0.871,10.176C29.53,102.507,29.766,105.827,30.262,109.308z"/></g><text x="0" y="244.183" fill="#000000" font-size="5px" font-weight="bold" font-family="'Helvetica Neue', Helvetica, Arial-Unicode, Arial, Sans-serif">Created by Gan Khoon Lay</text><text x="0" y="249.183" fill="#000000" font-size="5px" font-weight="bold" font-family="'Helvetica Neue', Helvetica, Arial-Unicode, Arial, Sans-serif">from the Noun Project</text></svg>