<?xml version="1.0" encoding="UTF-8" standalone="no"?>
<!-- Created with Inkscape (http://www.inkscape.org/) -->

<svg
   xmlns:dc="http://purl.org/dc/elements/1.1/"
   xmlns:cc="http://creativecommons.org/ns#"
   xmlns:rdf="http://www.w3.org/1999/02/22-rdf-syntax-ns#"
   xmlns:svg="http://www.w3.org/2000/svg"
   xmlns="http://www.w3.org/2000/svg"
   xmlns:sodipodi="http://sodipodi.sourceforge.net/DTD/sodipodi-0.dtd"
   xmlns:inkscape="http://www.inkscape.org/namespaces/inkscape"
   width="114.93102mm"
   height="45.623386mm"
   viewBox="0 0 114.93102 45.623386"
   version="1.1"
   id="svg1050"
   sodipodi:docname="BHoM-logo-black.svg"
   inkscape:version="0.92.3 (2405546, 2018-03-11)">
  <defs
     id="defs1044" />
  <sodipodi:namedview
     id="base"
     pagecolor="#ffffff"
     bordercolor="#666666"
     borderopacity="1.0"
     inkscape:pageopacity="0.0"
     inkscape:pageshadow="2"
     inkscape:zoom="1.4"
     inkscape:cx="234.65866"
     inkscape:cy="106.1775"
     inkscape:document-units="mm"
     inkscape:current-layer="layer1"
     showgrid="false"
     fit-margin-top="0"
     fit-margin-left="0"
     fit-margin-right="0"
     fit-margin-bottom="0"
     inkscape:window-width="1600"
     inkscape:window-height="1138"
     inkscape:window-x="1912"
     inkscape:window-y="-8"
     inkscape:window-maximized="1" />
  <metadata
     id="metadata1047">
    <rdf:RDF>
      <cc:Work
         rdf:about="">
        <dc:format>image/svg+xml</dc:format>
        <dc:type
           rdf:resource="http://purl.org/dc/dcmitype/StillImage" />
        <dc:title></dc:title>
      </cc:Work>
    </rdf:RDF>
  </metadata>
  <g
     inkscape:label="Layer 1"
     inkscape:groupmode="layer"
     id="layer1"
     transform="translate(-48.367828,-126.02162)">
    <path
       inkscape:export-ydpi="299.93787"
       inkscape:export-xdpi="299.93787"
       d="m 78.715692,136.00729 h -2.26963 c -0.421682,2e-5 -0.722442,-0.093 -0.902274,-0.27905 -0.179835,-0.18602 -0.269751,-0.51468 -0.269751,-0.98599 0,-0.47127 0.08992,-0.79993 0.269751,-0.98598 0.179832,-0.18602 0.480592,-0.27904 0.902274,-0.27906 h 9.320361 c 1.116198,2e-5 2.095984,0.14265 2.939357,0.42788 0.843343,0.28528 1.547175,0.69146 2.111499,1.21853 0.564287,0.52712 0.992169,1.15964 1.283642,1.89756 0.291436,0.73796 0.437163,1.55341 0.437182,2.44636 -1.9e-5,0.9674 -0.217059,1.81076 -0.651122,2.53008 -0.434101,0.71935 -1.041815,1.30226 -1.823145,1.74873 1.31463,0.42169 2.322319,1.09762 3.023071,2.02779 0.700712,0.93018 1.051078,2.0898 1.051099,3.47886 -2.1e-5,0.97979 -0.158149,1.85725 -0.47439,2.63239 -0.31628,0.77515 -0.778266,1.43558 -1.385961,1.98128 -0.607732,0.5457 -1.354974,0.96428 -2.241725,1.25573 -0.886783,0.29146 -1.900674,0.43719 -3.041674,0.43719 H 76.446062 c -0.421682,0 -0.722442,-0.093 -0.902274,-0.27905 -0.179835,-0.18604 -0.269751,-0.5147 -0.269751,-0.98599 0,-0.47129 0.08992,-0.79995 0.269751,-0.98599 0.179832,-0.18603 0.480592,-0.27905 0.902274,-0.27905 h 2.26963 z m 7.720457,17.02222 c 1.550279,0 2.731601,-0.32866 3.54397,-0.98599 0.812337,-0.65732 1.218515,-1.58749 1.21853,-2.79052 -1.5e-5,-2.55488 -1.556509,-3.83232 -4.66948,-3.83233 h -5.022951 v 7.60884 z m -1.079002,-10.13892 c 1.463463,1e-5 2.551769,-0.29764 3.264916,-0.89297 0.713121,-0.5953 1.069686,-1.43865 1.069702,-2.53008 -1.6e-5,-1.12859 -0.356581,-1.98745 -1.069702,-2.57658 -0.713147,-0.5891 -1.801453,-0.88365 -3.264916,-0.88367 h -3.850929 v 6.8833 z"
       style="font-style:normal;font-variant:normal;font-weight:normal;font-stretch:normal;font-size:144px;line-height:125%;font-family:'Courier Prime';-inkscape-font-specification:'Courier Prime';letter-spacing:0px;word-spacing:0px;fill:#000000;fill-opacity:1;stroke:none;stroke-width:0.26458332"
       id="path5131-2"
       inkscape:connector-curvature="0" />
    <path
       inkscape:export-ydpi="299.93787"
       inkscape:export-xdpi="299.93787"
       d="m 100.63063,136.00729 h -1.339451 c -0.421682,2e-5 -0.722439,-0.093 -0.902271,-0.27905 -0.179835,-0.18602 -0.269751,-0.51468 -0.269751,-0.98599 0,-0.47127 0.08992,-0.79993 0.269751,-0.98598 0.179832,-0.18602 0.480589,-0.27904 0.902271,-0.27906 h 5.841511 c 0.42166,2e-5 0.72242,0.093 0.90226,0.27906 0.17983,0.18605 0.26975,0.51471 0.26975,0.98598 0,0.47131 -0.0899,0.79997 -0.26975,0.98599 -0.17984,0.18605 -0.4806,0.27907 -0.90226,0.27905 h -1.71153 v 6.90191 h 9.26455 v -6.90191 h -1.71152 c -0.4217,2e-5 -0.72245,-0.093 -0.90227,-0.27905 -0.17985,-0.18602 -0.26977,-0.51468 -0.26975,-0.98599 -2e-5,-0.47127 0.0899,-0.79993 0.26975,-0.98598 0.17982,-0.18602 0.48057,-0.27904 0.90227,-0.27906 h 5.8415 c 0.42166,2e-5 0.72242,0.093 0.90227,0.27906 0.17982,0.18605 0.26973,0.51471 0.26975,0.98598 -2e-5,0.47131 -0.0899,0.79997 -0.26975,0.98599 -0.17985,0.18605 -0.48061,0.27907 -0.90227,0.27905 h -1.33945 v 17.02222 h 1.33945 c 0.42166,0 0.72242,0.093 0.90227,0.27905 0.17982,0.18604 0.26973,0.5147 0.26975,0.98599 -2e-5,0.47129 -0.0899,0.79995 -0.26975,0.98599 -0.17985,0.18603 -0.48061,0.27905 -0.90227,0.27905 h -5.8415 c -0.4217,0 -0.72245,-0.093 -0.90227,-0.27905 -0.17985,-0.18604 -0.26977,-0.5147 -0.26975,-0.98599 -2e-5,-0.47129 0.0899,-0.79995 0.26975,-0.98599 0.17982,-0.18603 0.48057,-0.27905 0.90227,-0.27905 h 1.71152 v -7.59024 h -9.26455 v 7.59024 h 1.71153 c 0.42166,0 0.72242,0.093 0.90226,0.27905 0.17983,0.18604 0.26975,0.5147 0.26975,0.98599 0,0.47129 -0.0899,0.79995 -0.26975,0.98599 -0.17984,0.18603 -0.4806,0.27905 -0.90226,0.27905 h -5.841511 c -0.421682,0 -0.722439,-0.093 -0.902271,-0.27905 -0.179835,-0.18604 -0.269751,-0.5147 -0.269751,-0.98599 0,-0.47129 0.08992,-0.79995 0.269751,-0.98599 0.179832,-0.18603 0.480589,-0.27905 0.902271,-0.27905 h 1.339451 z"
       style="font-style:normal;font-variant:normal;font-weight:normal;font-stretch:normal;font-size:144px;line-height:125%;font-family:'Courier Prime';-inkscape-font-specification:'Courier Prime';letter-spacing:0px;word-spacing:0px;fill:#000000;fill-opacity:1;stroke:none;stroke-width:0.26458332"
       id="path5133-2"
       inkscape:connector-curvature="0" />
    <path
       inkscape:export-ydpi="299.93787"
       inkscape:export-xdpi="299.93787"
       d="m 144.21163,136.00729 h -0.91157 c -0.42168,2e-5 -0.72244,-0.093 -0.90227,-0.27905 -0.17984,-0.18602 -0.26975,-0.51468 -0.26975,-0.98599 0,-0.47127 0.0899,-0.79993 0.26975,-0.98598 0.17983,-0.18602 0.48059,-0.27904 0.90227,-0.27906 h 3.92534 c 0.5829,2e-5 0.94257,0.20466 1.079,0.61392 l 4.12999,11.32954 4.11137,-11.32954 c 0.13641,-0.40926 0.50228,-0.6139 1.09761,-0.61392 h 3.92534 c 0.42166,2e-5 0.72242,0.093 0.90227,0.27906 0.17982,0.18605 0.26973,0.51471 0.26975,0.98598 -2e-5,0.47131 -0.0899,0.79997 -0.26975,0.98599 -0.17985,0.18605 -0.48061,0.27907 -0.90227,0.27905 h -0.93017 l 0.48369,17.02222 h 1.00459 c 0.42166,0 0.72241,0.093 0.90227,0.27905 0.17981,0.18604 0.26973,0.5147 0.26975,0.98599 -2e-5,0.47129 -0.0899,0.79995 -0.26975,0.98599 -0.17986,0.18603 -0.48061,0.27905 -0.90227,0.27905 h -5.8415 c -0.4217,0 -0.72246,-0.093 -0.90228,-0.27905 -0.17984,-0.18604 -0.26976,-0.5147 -0.26975,-0.98599 -1e-5,-0.47129 0.0899,-0.79995 0.26975,-0.98599 0.17982,-0.18603 0.48058,-0.27905 0.90228,-0.27905 h 2.06498 l -0.40927,-15.23628 -3.79512,10.604 c -0.16124,0.43409 -0.37828,0.74415 -0.65112,0.93018 -0.27287,0.18604 -0.62633,0.27906 -1.0604,0.27905 -0.4341,1e-5 -0.78756,-0.093 -1.0604,-0.27905 -0.27286,-0.18603 -0.48991,-0.49609 -0.65113,-0.93018 l -3.81372,-10.604 -0.39067,15.23628 h 2.06499 c 0.42167,0 0.72243,0.093 0.90227,0.27905 0.17982,0.18604 0.26974,0.5147 0.26975,0.98599 -1e-5,0.47129 -0.0899,0.79995 -0.26975,0.98599 -0.17984,0.18603 -0.4806,0.27905 -0.90227,0.27905 h -5.84151 c -0.42168,0 -0.72244,-0.093 -0.90227,-0.27905 -0.17983,-0.18604 -0.26975,-0.5147 -0.26975,-0.98599 0,-0.47129 0.0899,-0.79995 0.26975,-0.98599 0.17983,-0.18603 0.48059,-0.27905 0.90227,-0.27905 h 1.00459 z"
       style="font-style:normal;font-variant:normal;font-weight:normal;font-stretch:normal;font-size:144px;line-height:125%;font-family:'Courier Prime';-inkscape-font-specification:'Courier Prime';letter-spacing:0px;word-spacing:0px;fill:#000000;fill-opacity:1;stroke:none;stroke-width:0.26458332"
       id="path5137-1"
       inkscape:connector-curvature="0" />
    <text
       inkscape:export-ydpi="299.93787"
       inkscape:export-xdpi="299.93787"
       id="text3972-4"
       y="171.55411"
       x="74.022392"
       style="font-style:normal;font-variant:normal;font-weight:normal;font-stretch:normal;font-size:3.20271564px;line-height:0%;font-family:'Courier Prime';-inkscape-font-specification:'Courier Prime';letter-spacing:0px;word-spacing:0px;fill:#000000;fill-opacity:1;stroke:none;stroke-width:0.26689297"
       xml:space="preserve"><tspan
         style="font-size:6.00509167px;line-height:1.25;stroke-width:0.26689297"
         y="171.55411"
         x="74.022392"
         id="tspan3974-9"
         sodipodi:role="line">Sustainable Code at Scale</tspan></text>
    <ellipse
       inkscape:export-ydpi="299.93787"
       inkscape:export-xdpi="299.93787"
       id="path5145-3"
       style="fill:none;fill-opacity:1;stroke:#000000;stroke-width:2.63927746;stroke-linecap:round;stroke-linejoin:miter;stroke-miterlimit:4;stroke-dasharray:none;stroke-opacity:1"
       cx="129.95894"
       cy="147.4588"
       rx="6.7534294"
       ry="6.7658429" />
    <path
       inkscape:export-ydpi="299.93787"
       inkscape:export-xdpi="299.93787"
       inkscape:connector-curvature="0"
       id="path5151-9"
       d="m 130.06817,162.06116 0.0343,-7.36259"
       style="fill:none;stroke:#000000;stroke-width:2.09200549;stroke-linecap:round;stroke-linejoin:round;stroke-miterlimit:4;stroke-dasharray:none;stroke-opacity:1;marker-start:none" />
    <path
       inkscape:export-ydpi="299.93787"
       inkscape:export-xdpi="299.93787"
       sodipodi:nodetypes="cc"
       inkscape:connector-curvature="0"
       id="path5141-62-7"
       d="m 71.037558,161.92773 58.703852,-0.0151"
       style="font-style:normal;font-weight:normal;font-size:40px;line-height:125%;font-family:Sans;letter-spacing:0px;word-spacing:0px;fill:none;stroke:#000000;stroke-width:2.38627148;stroke-linecap:round;stroke-linejoin:miter;stroke-miterlimit:4;stroke-dasharray:none;stroke-opacity:1" />
    <path
       inkscape:export-ydpi="299.93787"
       inkscape:export-xdpi="299.93787"
       sodipodi:nodetypes="cccccccscccccccccccccccccsccccccccccccccccccccccccccccccccccccccccccccccscccccccccccccccccccccccccccccccccccccccccccccccccccccccccccccccccccccccccc"
       inkscape:connector-curvature="0"
       id="path29-18-5"
       d="m 60.44616,126.02166 v 18.50223 h 2.557468 l 0.105937,-5.94744 4.34082,-0.0253 0.122473,-6.01101 c -1.154761,-0.23045 -2.117161,-1.40545 -2.013315,-2.70733 0.103849,-1.30183 1.239216,-2.29908 2.412256,-2.29908 1.173038,0 2.340452,0.99726 2.444295,2.29908 0.103852,1.30188 -0.890082,2.47688 -2.044835,2.70733 l -0.164848,6.78098 -4.298964,0.0382 -0.136943,6.01566 -3.324344,0.0315 v 0.96841 h 5.646685 c 0.23754,-1.27524 1.664107,-2.13773 2.824633,-1.98747 1.160495,0.15028 2.025722,1.26336 1.99471,2.56522 -0.03101,1.30188 -0.948068,2.36231 -2.114082,2.44377 -1.166045,0.0814 -2.550467,-0.8431 -2.726965,-2.13062 H 60.44616 v 0.9648 h 5.444112 v 5.68493 c 1.150022,0.24326 2.164808,1.42502 2.049489,2.72283 -0.115319,1.29776 -1.278025,2.22652 -2.44843,2.21382 -1.170406,-0.0127 -2.183204,-0.91844 -2.27583,-2.21847 -0.09262,-1.30006 0.721283,-2.50871 1.875338,-2.72696 v -4.78627 H 60.44616 v 11.09648 h 1.218531 v 2.92592 h 1.065051 v -2.92592 h 0.457854 v 2.92592 h 1.065567 v -2.92592 h 0.457853 v 2.92592 h 1.065567 v -2.92592 h 0.457854 v 2.92592 h 1.065051 v -2.92592 h 0.457853 v 2.92592 h 1.06557 v -2.92592 h 0.457854 v 2.91972 h 2.13992 v -37.11505 z m -12.078332,0.0451 v 1.98736 h 10.976073 l 0.0011,-1.98736 z m 13.870472,1.80393 h 1.76785 l 0.01034,4.07572 h -0.447 v 1.60455 h -0.884179 v -1.60455 H 62.23831 Z m 5.686475,0.54467 c -0.348245,0.01 -0.857242,0.15966 -1.145667,0.48111 -0.922959,1.02859 -0.113247,2.78742 1.192175,2.78742 0.808943,0 1.653027,-0.73146 1.653646,-1.63297 0,-1.00021 -0.934024,-1.65697 -1.700154,-1.63556 z m -19.510954,0.53225 v 34.13591 h 1.392161 v -6.89261 h 5.194001 v 6.92154 h 4.387844 v -9.20254 h -2.591056 v -2.78329 h 2.591056 v -2.28255 h -2.591056 v -2.78277 h 2.591056 v -2.281 h -2.591056 v -2.78278 h 2.591056 v -2.28255 h -2.591056 v -2.78329 h 2.635498 v -1.86862 h -2.635498 v -2.90008 h 2.635498 v -2.21537 z m 1.392161,2.21537 h 5.194001 v 2.78278 h -5.194001 z m 0,4.7687 h 5.194001 v 2.78329 h -5.194001 z m 0,5.06584 h 5.194001 v 2.78278 h -5.194001 z m 18.765781,4.19511 c -0.459351,0.004 -0.877215,0.17941 -1.168405,0.48007 -0.967327,1.13951 -0.247251,2.88247 1.257805,2.8603 0.831112,0 1.542958,-0.71596 1.543574,-1.61748 5e-6,-1.0002 -0.670785,-1.63823 -1.433504,-1.71359 -0.06706,-0.007 -0.133848,-0.01 -0.19947,-0.009 z m -18.765781,0.86867 h 5.194001 v 2.78277 h -5.194001 z m 0,5.06532 h 5.194001 v 2.78329 h -5.194001 z m 15.658993,3.6339 c -0.808291,0.0185 -1.463463,0.77638 -1.463992,1.67742 -0.07762,1.57713 1.733494,2.16139 2.72283,1.11001 0.922798,-1.0292 0.235397,-2.82174 -1.258838,-2.78743 z m 4.399733,2.26136 c 0.418102,-0.0116 0.825272,0.34665 0.825272,0.89246 h 0.0047 c 8e-6,0.4941 -0.360741,0.89432 -0.804085,0.89141 -0.712411,0 -1.069027,-0.96001 -0.56534,-1.52135 0.157403,-0.17542 0.349456,-0.2572 0.539504,-0.26252 z"
       style="fill:#000000;fill-opacity:1;stroke-width:0.1178926" />
  </g>
</svg>
