<?xml version="1.0" encoding="UTF-8" standalone="no"?>
<!-- Created with Inkscape (http://www.inkscape.org/) -->

<svg
   xmlns:dc="http://purl.org/dc/elements/1.1/"
   xmlns:cc="http://creativecommons.org/ns#"
   xmlns:rdf="http://www.w3.org/1999/02/22-rdf-syntax-ns#"
   xmlns:svg="http://www.w3.org/2000/svg"
   xmlns="http://www.w3.org/2000/svg"
   xmlns:sodipodi="http://sodipodi.sourceforge.net/DTD/sodipodi-0.dtd"
   xmlns:inkscape="http://www.inkscape.org/namespaces/inkscape"
   width="97.227203mm"
   height="156.56174mm"
   viewBox="0 0 97.227203 156.56174"
   version="1.1"
   id="svg8"
   inkscape:version="0.92.3 (2405546, 2018-03-11)">
  <defs
     id="defs2" />
  <sodipodi:namedview
     id="base"
     pagecolor="#ffffff"
     bordercolor="#666666"
     borderopacity="1.0"
     inkscape:pageopacity="0.0"
     inkscape:pageshadow="2"
     inkscape:zoom="0.49497475"
     inkscape:cx="-83.310849"
     inkscape:cy="81.548109"
     inkscape:document-units="mm"
     inkscape:current-layer="layer1"
     showgrid="false"
     fit-margin-top="0"
     fit-margin-left="0"
     fit-margin-right="0"
     fit-margin-bottom="0"
     inkscape:measure-start="0,0"
     inkscape:measure-end="0,0"
     inkscape:window-width="1600"
     inkscape:window-height="1138"
     inkscape:window-x="1912"
     inkscape:window-y="-8"
     inkscape:window-maximized="1" />
  <metadata
     id="metadata5">
    <rdf:RDF>
      <cc:Work
         rdf:about="">
        <dc:format>image/svg+xml</dc:format>
        <dc:type
           rdf:resource="http://purl.org/dc/dcmitype/StillImage" />
        <dc:title></dc:title>
      </cc:Work>
    </rdf:RDF>
  </metadata>
  <g
     inkscape:label="Layer 1"
     inkscape:groupmode="layer"
     id="layer1"
     transform="translate(-45.124495,-56.189373)">
    <path
       style="fill:none;stroke:#ffcc00;stroke-width:5;stroke-linecap:butt;stroke-linejoin:miter;stroke-opacity:1;fill-opacity:1;stroke-miterlimit:4;stroke-dasharray:none"
       d="m 96.065777,137.94651 c 0.784452,-0.38954 1.527799,-0.87612 2.35336,-1.16862 0.296897,-0.1052 0.629959,0 0.944941,0 0.629959,0 1.259922,0 1.889882,0 0.31498,0 0.63608,0.0618 0.94494,0 0.13813,-0.0276 0.24132,-0.15483 0.37798,-0.18899 0.18334,-0.0458 0.37797,0 0.56696,0 0.44097,0 0.88194,0 1.32292,0 1.44891,0 2.89781,0 4.34672,0 0.0694,0 0.74835,0.008 0.75596,0 0.0445,-0.0445 0,-0.12599 0,-0.18899 0,-0.18899 0,-0.37798 0,-0.56696 0,-1.32292 0,-2.64584 0,-3.96875 0,-0.56697 0,-1.13393 0,-1.7009 0,-0.37797 0.0376,-0.75782 0,-1.13392 -0.0517,-0.51691 -0.30452,-0.99765 -0.37798,-1.51191 -0.0267,-0.18709 0.0267,-0.37988 0,-0.56696 -0.0367,-0.25713 -0.15226,-0.49883 -0.18899,-0.75596 -0.0534,-0.37417 0.0621,-0.76109 0,-1.13392 -0.0328,-0.19651 -0.15624,-0.37047 -0.18899,-0.56697 -0.0311,-0.18642 0,-0.37798 0,-0.56696 0,-0.37798 0,-0.75596 0,-1.13393 0,-0.18899 0.0458,-0.38362 0,-0.56697 -0.0216,-0.0864 -0.16081,-0.10447 -0.18899,-0.18898 -0.0398,-0.11953 0,-0.25199 0,-0.37798 0,-0.18899 0,-0.37798 0,-0.56696 0,-0.063 0.0199,-0.12923 0,-0.18899 -0.0445,-0.13364 -0.14444,-0.24434 -0.18899,-0.37798 -0.0199,-0.0598 0,-0.12599 0,-0.18899 0,-0.31498 0,-0.62996 0,-0.94494 0,-0.88194 0,-1.76389 0,-2.64583 0,-0.69296 0,-1.38591 0,-2.07887 0,-0.0988 -0.0248,-0.70626 0,-0.75595 0.0399,-0.0797 0.14915,-0.10931 0.18899,-0.18899 0.0756,-0.15119 -0.0756,-0.41577 0,-0.56696 0.0399,-0.0797 0.16082,-0.10448 0.18899,-0.18899 0.0493,-0.14775 -0.052,-1.02993 0,-1.13393 0.0398,-0.0797 0.14915,-0.10931 0.18899,-0.18899 0.0563,-0.11269 -0.0564,-0.26528 0,-0.37798 0.0398,-0.0797 0.14915,-0.1093 0.18899,-0.18898 0.0282,-0.0563 -0.0282,-0.13265 0,-0.18899 0.0398,-0.0797 0.1093,-0.14915 0.18899,-0.18899 0.0541,-0.027 0.84398,0 0.94494,0 0.56696,0 1.13393,0 1.70089,0 1.82689,0 3.65377,0 5.48065,0 0.75596,0 1.51191,0 2.26786,0 0.0795,0 1.07771,0.0281 1.13393,0 0.0797,-0.0398 0.10447,-0.16081 0.18899,-0.18899 0.1016,-0.0339 0.59594,0 0.75595,0 0.50397,0 1.00794,0 1.51191,0 0.0851,0 0.50944,0.0288 0.56696,0 0.0797,-0.0398 0.10447,-0.16081 0.18899,-0.18899 0.17929,-0.0598 0.37797,0 0.56696,0 0.44097,0 0.88195,0 1.32292,0 0.063,0 0.12599,0 0.18899,0 0.063,0 0.14444,0.0445 0.18899,0 0.0585,-0.0585 -0.0585,-0.88642 0,-0.94494 0.0445,-0.0445 0.14444,0.0446 0.18898,0 0.0446,-0.0445 0,-0.12599 0,-0.18898 0,-0.063 0,-0.126 0,-0.18899 0,-1.13393 0,-2.26786 0,-3.40179 0,-2.01587 0,-4.03175 0,-6.047617 0,-0.629962 0,-1.259922 0,-1.889881 0,-0.125992 0,-0.251984 0,-0.377976 0,-0.063 -0.0282,-0.132644 0,-0.188989 0.0399,-0.07969 0.16082,-0.104468 0.18899,-0.188987 0.0319,-0.09579 0,-1.168421 0,-1.322917 0,-1.070932 0,-2.141865 0,-3.212798 0,-0.206113 -0.0408,-1.389481 0,-1.511906 0.0446,-0.133633 0.15483,-0.241318 0.18899,-0.377976 0.0369,-0.147441 0,-0.913347 0,-1.133927 0,-0.063 0,-0.125992 0,-0.188989 0,-0.063 -0.0445,-0.144442 0,-0.188987 0.0445,-0.04454 0.16081,0.05635 0.18899,0 0.0756,-0.151191 -0.0756,-0.415774 0,-0.566965 0.0398,-0.07968 0.14914,-0.109305 0.18899,-0.188989 0.0287,-0.05752 0,-0.481851 0,-0.566963 0,-0.377975 0,-0.755954 0,-1.13393 0,-0.443208 -0.0446,0.08909 0.18898,-0.377975 0.0288,-0.05752 0,-0.481852 0,-0.566965 0,-0.377976 0,-0.755952 0,-1.133928 0,-0.314981 0,-0.62996 0,-0.944941 0,-0.06299 -0.0445,-0.144444 0,-0.188986 0.0446,-0.04455 0.14445,0.04454 0.18899,0 0.0455,-0.04548 -0.0455,-0.710477 0,-0.755954 0.0891,-0.08909 0.28889,0.08909 0.37798,0 0.0445,-0.04454 -0.0564,-0.160815 0,-0.188988 0.37797,-0.188988 0.28348,0.09449 0.56696,0 0.13364,-0.04454 0.24434,-0.144443 0.37798,-0.188988 0.15839,-0.0528 0.6307,0.06262 0.75595,0 0.0797,-0.03984 0.10447,-0.160815 0.18899,-0.188988 0.86033,0 0.0108,0.08909 0.56696,-0.188988 0.11151,-0.05575 0.43697,0.04333 0.56697,0 0.13363,-0.04454 0.26077,-0.110851 0.37797,-0.188988 0.0741,-0.04942 0.10447,-0.160816 0.18899,-0.188989 0.11953,-0.03984 0.25199,0 0.37798,0 0.063,0 0.13264,0.02817 0.18898,0 0.78653,-0.393261 -0.20203,0.01305 0.18899,-0.377976 0.0891,-0.08909 0.28889,0.08909 0.37798,0 0.0445,-0.04454 -0.0445,-0.144443 0,-0.188988 0.0891,-0.08909 0.28889,0.08909 0.37798,0 0.0445,-0.04454 -0.0445,-0.144443 0,-0.188988 0.0445,-0.04454 0.14444,0.04454 0.18898,0 0.0445,-0.04454 -0.0282,-0.132643 0,-0.188988 0.0797,-0.159369 0.2983,-0.218607 0.37798,-0.377976 0.0564,-0.112691 -0.0891,-0.288887 0,-0.377976 0.0446,-0.04454 0.14444,0.04454 0.18899,0 0.0445,-0.04454 -0.0446,-0.144443 0,-0.188988 0.0445,-0.04454 0.14444,0.04454 0.18899,0 0.0445,-0.04454 -0.0199,-0.129225 0,-0.188989 0.0445,-0.133634 0.14444,-0.244341 0.18899,-0.377976 0.0245,-0.07354 -0.0293,-0.537635 0,-0.566964 0.0445,-0.04454 0.14444,0.04454 0.18898,0 0.0404,-0.04041 -0.0347,-0.651758 0,-0.755952 0.0445,-0.133635 0.14445,-0.244342 0.18899,-0.377977 0.0355,-0.106626 0,-0.442778 0,-0.566964 0,-0.377976 0,-0.755952 0,-1.133928 0,-1.511905 0,-3.02381 0,-4.535715 0,-0.440972 0,-0.881944 0,-1.322916 0,-0.08511 -0.0288,-0.509449 0,-0.566964 0.0398,-0.07968 0.14915,-0.109304 0.18899,-0.188989 0.0288,-0.05752 0,-0.481852 0,-0.566964 0,-0.377976 0,-0.755952 0,-1.133928 0,-0.063 0,-0.125993 0,-0.188988 0,-0.063 0.0445,-0.144444 0,-0.188989 -0.0445,-0.04454 -0.14444,0.04454 -0.18899,0 -0.0445,-0.04454 0.0446,-0.144443 0,-0.188988 -0.0445,-0.04454 -0.14444,0.04454 -0.18899,0 -0.0445,-0.04454 0.0445,-0.144443 0,-0.188988 -0.0445,-0.04454 -0.14444,0.04454 -0.18898,0 -0.0445,-0.04454 0.0445,-0.144443 0,-0.188988 -0.0445,-0.04455 -0.14445,0.04454 -0.18899,0 -0.0445,-0.04455 0.0445,-0.144443 0,-0.188988 -0.0891,-0.08909 -0.26529,0.05635 -0.37798,0 -0.15937,-0.07968 -0.21861,-0.298292 -0.37798,-0.377976 -0.0563,-0.02817 -0.13264,0.02817 -0.18898,0 -0.0797,-0.03984 -0.10931,-0.149146 -0.18899,-0.188988 -0.11269,-0.05635 -0.26529,0.05635 -0.37798,0 -0.0797,-0.03984 -0.1093,-0.149146 -0.18899,-0.188988 -0.15119,-0.0756 -0.41577,0.07559 -0.56696,0 -0.0797,-0.03984 -0.1093,-0.149146 -0.18899,-0.188988 -0.0541,-0.02705 -0.84398,0 -0.94494,0 -0.0694,0 -0.74835,0.0076 -0.75595,0 -0.0446,-0.04454 0.0563,-0.160816 0,-0.188989 -0.11269,-0.05635 -0.25198,0 -0.37798,0 -0.1831,0 -1.02124,0.03756 -1.13393,0 -0.13363,-0.04454 -0.24434,-0.144443 -0.37797,-0.188988 -0.11153,-0.03717 -0.83935,0 -0.94494,0 -0.75595,0 -1.51191,0 -2.26786,0 -0.44097,0 -0.88194,0 -1.32292,0 -0.12599,0 -0.25198,0 -0.37797,0 -0.063,0 -0.12923,-0.01992 -0.18899,0 -0.13363,0.04454 -0.24132,0.154824 -0.37798,0.188988 -0.16087,0.04022 -0.83645,-0.05425 -0.94494,0 -0.0797,0.03984 -0.10447,0.160816 -0.18899,0.188989 -0.0471,0.0157 -0.92547,-0.01947 -0.94494,0 -0.0445,0.04454 0.0446,0.144443 0,0.188988 -0.3791,0.379104 0.001,-0.379105 -0.37797,0 -0.0446,0.04454 0.0445,0.144443 0,0.188988 -0.0891,0.08909 -0.26529,-0.05635 -0.37798,0 -0.40237,0.201188 0.0244,0.176788 -0.37797,0.377976 -0.0564,0.02817 -0.13265,-0.02817 -0.18899,0 -0.78653,0.393262 0.20203,-0.01305 -0.18899,0.377976 -0.39102,0.391023 0.0153,-0.597535 -0.37798,0.188988 -0.0282,0.05635 0.0282,0.132643 0,0.188988 -0.43246,0.864925 0.0783,-0.801955 -0.37797,0.566965 -0.0199,0.05976 0.0282,0.132642 0,0.188988 -0.0398,0.07968 -0.16082,0.10447 -0.18899,0.188988 -0.0598,0.17929 0.0598,0.387674 0,0.566964 -0.0446,0.133635 -0.15482,0.241319 -0.18899,0.377976 -0.0369,0.147443 0,0.913347 0,1.133929 0,0.503968 0,1.007936 0,1.511905 0,0.188988 -0.0598,0.387674 0,0.566964 0.0282,0.08452 0.14915,0.109303 0.18899,0.188988 0.0756,0.15119 -0.0756,0.415774 0,0.566964 0.0398,0.07968 0.14915,0.109304 0.18899,0.188988 0.0282,0.05635 -0.0282,0.132643 0,0.188988 0.0398,0.07968 0.14914,0.109304 0.18899,0.188989 0.0282,0.05635 -0.0282,0.132642 0,0.188987 0.0398,0.07968 0.14914,0.109304 0.18898,0.188989 0.0594,0.118783 -0.0594,0.637169 0,0.755952 0.0399,0.07968 0.14915,0.109304 0.18899,0.188988 0.0564,0.112691 -0.0398,0.25845 0,0.377976 0.0446,0.133635 0.14445,0.244342 0.18899,0.377977 0.0398,0.119526 -0.0398,0.258449 0,0.377976 0.45631,1.368919 -0.0545,-0.29796 0.37798,0.566964 0.0563,0.112691 -0.0564,0.265285 0,0.377976 0.0797,0.159369 0.29829,0.218607 0.37797,0.377976 0.0282,0.05635 -0.0199,0.129225 0,0.188988 0.45631,1.36892 -0.0545,-0.29796 0.37798,0.566965 0.0282,0.05635 -0.035,0.136572 0,0.188988 0.0988,0.148254 0.27107,0.235432 0.37797,0.377976 0.0845,0.112691 0.0894,0.278371 0.18899,0.377976 0.0996,0.09961 0.29984,0.07178 0.37798,0.188988 0.0699,0.104832 -0.0891,0.288887 0,0.377977 0.0891,0.08909 0.26528,-0.05635 0.37797,0 0.0564,0.02817 -0.0445,0.144443 0,0.188987 0.0446,0.04454 0.14445,-0.04454 0.18899,0 0.39103,0.391024 -0.59753,-0.01529 0.18899,0.377977 0.11269,0.05634 0.28889,-0.08909 0.37798,0 0.0445,0.04454 -0.0446,0.144443 0,0.188988 0.0445,0.04454 0.13264,-0.02817 0.18899,0 0.86492,0.432462 -0.80196,-0.07833 0.56696,0.377976 0.0598,0.01992 0.13264,-0.02817 0.18899,0 0.78652,0.393262 -0.20204,-0.01305 0.18899,0.377976 0.0386,0.03864 0.49203,-0.03747 0.56696,0 0.0797,0.03984 0.1093,0.149146 0.18899,0.188988 0.0563,0.02817 0.12599,0 0.18898,0 0.063,0 0.126,0 0.18899,0 0.31499,0 0.62996,0 0.94494,0 0.063,0 0.18899,-0.063 0.18899,0 0,0.063 -0.12599,0 -0.18899,0 0.22626,0.948107 0.45251,1.896213 0.67875,2.844321"
       id="path957"
       inkscape:connector-curvature="0" />
    <g
       id="layer1-9"
       inkscape:label="Layer 1"
       transform="translate(-11.339284,-13.607107)">
      <path
         style="fill:#000000;fill-opacity:1;stroke-width:0.49722111"
         d="m 107.40506,69.796649 v 78.034581 h 10.78633 l 0.44681,-25.08379 18.30774,-0.1067 0.51653,-25.351901 c -4.87029,-0.97194 -8.92929,-5.927551 -8.49134,-11.418372 0.438,-5.490568 5.22651,-9.696547 10.1739,-9.696547 4.94738,0 9.87102,4.206021 10.30898,9.696547 0.43803,5.490821 -3.75398,10.446432 -8.62423,11.418372 l -0.69527,28.599311 -18.13119,0.16111 -0.57756,25.37151 -14.0207,0.13285 v 4.08439 h 23.81535 c 1.00184,-5.37847 7.01847,-9.01609 11.91309,-8.38235 4.89446,0.63381 8.54363,5.32831 8.41285,10.81901 -0.13075,5.49078 -3.99856,9.96322 -8.9163,10.30683 -4.9179,0.34331 -10.7568,-3.55588 -11.5012,-8.98606 h -23.72379 v 4.06912 h 22.96095 v 23.97659 c 4.8503,1.02597 9.13026,6.01017 8.64388,11.48374 -0.48637,5.47341 -5.39014,9.39052 -10.32644,9.33696 -4.93625,-0.0536 -9.20781,-3.87359 -9.59848,-9.35657 -0.39055,-5.4831 3.04209,-10.58067 7.90939,-11.50116 v -20.18646 h -19.5893 v 46.80026 h 5.13924 v 12.34029 h 4.49193 v -12.34029 h 1.93106 v 12.34029 h 4.49413 v -12.34029 h 1.93102 v 12.34029 h 4.49408 v -12.34029 h 1.93106 v 12.34029 h 4.49193 v -12.34029 h 1.93101 v 12.34029 h 4.49413 v -12.34029 h 1.93106 v 12.3141 h 9.02527 V 69.79648 Z M 56.463779,69.98644 v 8.381885 h 46.292411 l 0.004,-8.381885 z m 58.499771,7.608213 h 7.45604 l 0.0434,17.189663 h -1.88525 v 6.767314 h -3.7291 v -6.767314 h -1.88526 z m 23.98317,2.297188 c -1.46878,0.04218 -3.61552,0.673378 -4.83196,2.029118 -3.89265,4.338157 -0.47764,11.756158 5.02807,11.756158 3.41181,0 6.97178,-3.084989 6.9744,-6.887176 0,-4.218463 -3.9393,-6.988399 -7.17051,-6.8981 z M 56.657746,82.136646 V 226.10747 h 5.871538 v -29.07011 h 21.9061 v 29.19217 H 102.94147 V 187.41711 H 92.013484 v -11.73878 h 10.927986 v -9.62679 H 92.013484 v -11.73659 h 10.927986 v -9.62029 H 92.013484 v -11.73659 h 10.927986 v -9.62683 H 92.013484 V 111.5925 H 103.1289 v -7.88105 H 92.013484 V 91.480139 H 103.1289 v -9.343493 z m 5.871538,9.343493 h 21.9061 v 11.736591 h -21.9061 z m 0,20.112361 h 21.9061 v 11.73874 h -21.9061 z m 0,21.36557 h 21.9061 v 11.73659 h -21.9061 z m 79.146116,17.6932 c -1.93734,0.0169 -3.6997,0.75667 -4.92781,2.02477 -4.07979,4.80597 -1.0428,12.157 5.30486,12.0635 3.50532,0 6.50756,-3.01962 6.51017,-6.82181 0,-4.21846 -2.82911,-6.9094 -6.04594,-7.22724 -0.283,-0.0295 -0.56448,-0.0422 -0.84128,-0.038 z m -79.146116,3.66368 h 21.9061 v 11.73659 h -21.9061 z m 0,21.36338 h 21.9061 v 11.73878 h -21.9061 z m 66.043036,15.32625 c -3.40903,0.078 -6.1723,3.27444 -6.17449,7.07465 -0.32728,6.65167 7.31113,9.11583 11.4837,4.68155 3.89198,-4.34073 0.99282,-11.9009 -5.30921,-11.7562 z m 18.5562,9.53746 c 1.76337,-0.0489 3.48064,1.46202 3.48064,3.76402 h 0.0211 c 4e-5,2.08395 -1.52145,3.7719 -3.39127,3.75959 -3.00469,0 -4.50872,-4.04892 -2.38437,-6.41641 0.66385,-0.73985 1.47384,-1.08476 2.27539,-1.1072 z"
         id="path29-18-5-1-0"
         inkscape:connector-curvature="0"
         sodipodi:nodetypes="cccccccscccccccccccccccccsccccccccccccccccccccccccccccccccccccccccccccccscccccccccccccccccccccccccccccccccccccccccccccccccccccccccccccccccccccccccc"
         inkscape:export-xdpi="299.93787"
         inkscape:export-ydpi="299.93787"
         inkscape:export-filename="C:\Users\afisher\BuroHappold\Buildings and Habitats object Model - 01_Master File\00_Brief and Strategy\Marketing\BHoM Branding and Graphics\Logo_png\BHoM_Logo_Circuit_Simple_v2.png" />
    </g>
    <g
       id="g955"
       transform="matrix(0.15116912,0,0,0.15116912,55.557054,123.51274)">
      <g
         id="g898">
	<path
   id="path894"
   d="m 40.736,21.672 c 5.975,0 10.836,-4.861 10.836,-10.836 C 51.572,4.861 46.711,0 40.736,0 34.761,0 29.9,4.861 29.9,10.836 c 0,5.975 4.861,10.836 10.836,10.836 z"
   inkscape:connector-curvature="0" />

	<path
   id="path896"
   d="M 73.798,10.78 72.519,8.93 C 71.964,8.128 71.051,7.649 70.076,7.649 c -0.622,0 -1.218,0.192 -1.726,0.555 L 45.97,24.214 H 33.203 32.32 30.953 c -1.433,0 -3.143,0.878 -3.979,2.042 L 18.4,38.201 c -0.862,1.202 -0.969,3.153 -0.243,4.441 L 25.1,54.967 c 0.711,1.263 2.404,2.252 3.853,2.252 h 0.367 v 0.12 0.503 29.166 c 0,2.757 2.243,5 5,5 h 0.352 c 2.757,0 5,-2.243 5,-5 V 60.842 h 2.127 v 26.166 c 0,2.757 2.243,5 5,5 h 0.351 c 2.757,0 5,-2.243 5,-5 V 57.842 57.339 29.936 L 73.068,14.971 c 1.339,-0.957 1.666,-2.837 0.73,-4.191 z M 29.32,47.981 25.92,42.442 c -0.369,-0.601 -0.337,-1.673 0.065,-2.251 l 3.335,-4.786 z"
   inkscape:connector-curvature="0" />

</g>
      <g
         id="g900">
</g>
      <g
         id="g902">
</g>
      <g
         id="g904">
</g>
      <g
         id="g906">
</g>
      <g
         id="g908">
</g>
      <g
         id="g910">
</g>
      <g
         id="g912">
</g>
      <g
         id="g914">
</g>
      <g
         id="g916">
</g>
      <g
         id="g918">
</g>
      <g
         id="g920">
</g>
      <g
         id="g922">
</g>
      <g
         id="g924">
</g>
      <g
         id="g926">
</g>
      <g
         id="g928">
</g>
    </g>
  </g>
</svg>
