<?xml version="1.0" encoding="UTF-8" standalone="no"?>
<!-- Created with Inkscape (http://www.inkscape.org/) -->

<svg
   xmlns:dc="http://purl.org/dc/elements/1.1/"
   xmlns:cc="http://creativecommons.org/ns#"
   xmlns:rdf="http://www.w3.org/1999/02/22-rdf-syntax-ns#"
   xmlns:svg="http://www.w3.org/2000/svg"
   xmlns="http://www.w3.org/2000/svg"
   xmlns:sodipodi="http://sodipodi.sourceforge.net/DTD/sodipodi-0.dtd"
   xmlns:inkscape="http://www.inkscape.org/namespaces/inkscape"
   width="210mm"
   height="297mm"
   viewBox="0 0 210 297"
   version="1.1"
   id="svg4696"
   inkscape:version="0.92.3 (2405546, 2018-03-11)"
   sodipodi:docname="brain_bg.svg">
  <defs
     id="defs4690" />
  <sodipodi:namedview
     id="base"
     pagecolor="#ffffff"
     bordercolor="#666666"
     borderopacity="1.0"
     inkscape:pageopacity="0.0"
     inkscape:pageshadow="2"
     inkscape:zoom="0.7"
     inkscape:cx="373.65255"
     inkscape:cy="770.3658"
     inkscape:document-units="mm"
     inkscape:current-layer="layer1"
     showgrid="false"
     inkscape:window-width="1600"
     inkscape:window-height="1138"
     inkscape:window-x="1912"
     inkscape:window-y="-8"
     inkscape:window-maximized="1" />
  <metadata
     id="metadata4693">
    <rdf:RDF>
      <cc:Work
         rdf:about="">
        <dc:format>image/svg+xml</dc:format>
        <dc:type
           rdf:resource="http://purl.org/dc/dcmitype/StillImage" />
        <dc:title></dc:title>
      </cc:Work>
    </rdf:RDF>
  </metadata>
  <g
     inkscape:label="Layer 1"
     inkscape:groupmode="layer"
     id="layer1">
    <path
       inkscape:connector-curvature="0"
       style="opacity:0.61199999;fill:#ff0000;fill-opacity:1;stroke-width:1.00871694"
       d="m 36.345621,124.89689 1.025869,2.05173 c 0.348006,0.69702 0.532606,1.47675 0.532606,2.2565 v 3.25713 c 0,1.39306 1.128739,2.5218 2.521797,2.5218 1.393031,0 2.52177,-1.12874 2.52177,-2.5218 v -3.25713 c 0,-1.48383 -0.343959,-2.96563 -0.977424,-4.30823 h 17.04025 c 1.03997,2.37654 1.58972,4.97197 1.58972,7.56536 0,1.39306 1.12877,2.5218 2.5218,2.5218 1.39303,0 2.5218,-1.12874 2.5218,-2.5218 0,-2.56516 -0.43072,-5.12932 -1.24275,-7.56536 h 18.10851 c -1.12676,1.65631 -1.73501,3.60817 -1.73501,5.65486 v 4.4323 c 0,1.39303 1.12877,2.52179 2.5218,2.52179 1.39303,0 2.52179,-1.12876 2.52179,-2.52179 v -4.4323 c 0,-1.34663 0.52454,-2.61359 1.47675,-3.56683 l 2.08907,-2.08803 h 3.99955 c 4.17205,0 7.565391,3.3933 7.565391,7.56536 0,3.25109 -2.071901,6.0634 -5.023411,7.11348 l 0.0312,-4.57353 c 0,-0.007 0,-0.0122 0,-0.0183 0,-1.38497 -1.11765,-2.51169 -2.50462,-2.52177 -1.39303,-0.01 -2.52987,1.11259 -2.53894,2.50362 l -0.0515,7.48569 c 0,0.007 0,0.0122 0,0.0183 0,0.19974 0.0293,0.39238 0.0737,0.57899 -1.37893,1.27302 -3.19564,2.0225 -5.11723,2.0225 -0.10189,0 -0.21386,-0.007 -0.32584,-0.0132 l -3.6132,-2.85671 c -1.74508,-1.3799 -3.92393,-2.14553 -6.14815,-2.16974 v -7.56941 c 0,-1.39303 -1.12874,-2.5218 -2.52177,-2.5218 -1.39306,0 -2.52179,1.12877 -2.52179,2.5218 v 7.56539 h -2.5218 c -1.39303,0 -2.5218,1.12874 -2.5218,2.5218 0,1.39303 1.12877,2.52179 2.5218,2.52179 h 7.45844 c 1.13078,0 2.24137,0.38632 3.12804,1.08638 l 2.26256,1.78845 c -1.39608,1.36581 -3.28438,2.16874 -5.28267,2.16874 -0.89371,0 -1.78642,-0.16441 -2.65293,-0.49022 -1.21851,-0.45696 -2.58633,0.0887 -3.15425,1.25987 -1.28106,2.63578 -3.88657,4.27394 -6.80278,4.27394 -0.87355,0 -1.72189,-0.14726 -2.5218,-0.43172 v -9.65544 c 0,-1.39305 -1.12874,-2.52179 -2.52177,-2.52179 -1.39306,0 -2.5218,1.12874 -2.5218,2.52179 v 8.20995 c -0.10895,0.0635 -0.21587,0.13112 -0.31676,0.21283 -1.35771,1.08942 -2.991826,1.66438 -4.72683,1.66438 -1.707754,0 -3.337851,-0.58404 -4.647169,-1.60588 2.790111,-1.79652 4.647169,-4.92356 4.647169,-8.48128 v -5.04359 c 0,-1.39102 1.131781,-2.5218 2.521795,-2.5218 1.393035,0 2.521795,-1.12876 2.521795,-2.52179 0,-1.39303 -1.12876,-2.5218 -2.521795,-2.5218 -4.172055,0 -7.56539,3.39334 -7.56539,7.56539 v 5.04359 c 0,2.78101 -2.262531,5.04357 -5.043566,5.04357 -3.471016,0 -6.396276,-2.35233 -7.281942,-5.55501 l 3.993515,-0.79888 c 1.366811,-0.27337 2.248429,-1.61195 1.978104,-2.96664 -0.273367,-1.3658 -1.60184,-2.25147 -2.967646,-1.9781 l -5.04259,1.00872 c -0.0424,-0.0132 -0.0817,-0.0333 -0.12507,-0.0444 -3.34693,-0.85841 -5.68513,-3.8664 -5.68513,-7.31824 0,-0.46098 0.0484,-0.91085 0.12708,-1.34966 l 3.13309,3.13309 c 0.98451,0.98552 2.5813,0.98552 3.565816,0 0.98552,-0.98552 0.98552,-2.5813 0,-3.56582 l -4.060086,-4.06008 c 1.30728,-1.0763 2.97873,-1.72289 4.799464,-1.72289 z"
       id="path928" />
    <path
       inkscape:connector-curvature="0"
       style="opacity:0.61199999;fill:#ff0000;fill-opacity:1;stroke-width:1.00871694"
       d="m 60.600209,97.157185 v -7.13367 c 0.79992,-0.28446 1.64825,-0.43172 2.5218,-0.43172 2.91621,0 5.52172,1.63816 6.80178,4.27394 0.5679,1.1711 1.93574,1.71683 3.15425,1.25987 0.86649,-0.32581 1.75922,-0.49022 2.65293,-0.49022 1.852,0 3.60214,0.69702 4.96189,1.88428 l -8.45405,5.024405 c -0.0999,0.0605 -0.19571,0.1261 -0.2875,0.19873 -0.59817,0.47913 -1.13278,1.01677 -1.59882,1.60084 l -2.92629,-2.9263 c -0.98449,-0.985515 -2.5813,-0.985515 -3.56582,0 -0.49223,0.49327 -0.73837,1.13782 -0.73837,1.7834 0,0.64559 0.24614,1.29016 0.73837,1.78343 l 4.38693,4.38689 c -0.0504,0.41156 -0.0817,0.82717 -0.0817,1.24881 v 2.66806 c 0,1.39303 1.12874,2.52177 2.52179,2.52177 1.39303,0 2.5218,-1.12874 2.5218,-2.52177 v -2.66907 c 0,-1.48785 0.64355,-2.87787 1.77131,-3.83817 l 10.20921,-6.066416 c 0.22796,-0.0201 0.43979,-0.0353 0.62844,-0.0353 2.50462,0 4.83378,1.264936 6.23689,3.322706 l -2.18792,4.37581 c -0.18156,0.36214 -0.26731,0.74647 -0.26731,1.12575 0,0.92499 0.51041,1.81568 1.39406,2.25751 1.24577,0.62238 2.76085,0.117 3.38323,-1.12776 l 2.1163,-4.23156 c 2.64586,1.19332 4.455501,3.84826 4.455501,6.88652 0,4.17206 -3.393331,7.56536 -7.565391,7.56536 h -9.30037 c 1.12676,-1.65632 1.73501,-3.60817 1.73501,-5.65486 v -1.9105 c 0,-1.39306 -1.12877,-2.5218 -2.5218,-2.5218 -1.39303,0 -2.5218,1.12874 -2.5218,2.5218 v 1.9105 c 0,1.34663 -0.52453,2.61358 -1.47677,3.56682 l -2.08904,2.08804 h -14.95928 c -0.63347,-2.1183 -0.46501,-4.43632 0.53562,-6.43763 0.62542,-1.24777 0.11904,-2.75984 -1.12773,-3.38322 -1.24577,-0.62238 -2.76085,-0.11703 -3.38323,1.12773 -0.96637,1.9327 -1.44955,4.05201 -1.44955,6.17133 0,0.84531 0.0989,1.68859 0.2522,2.52179 h -9.085522 v -5.41176 c 0,-1.92262 1.068229,-3.65053 2.7881,-4.51099 l 3.383222,-1.69161 c 1.24677,-0.62338 1.75014,-2.13746 1.12877,-3.38323 -0.62339,-1.24475 -2.137464,-1.75014 -3.383254,-1.12776 l -3.383226,1.69162 c -3.440722,1.71987 -5.577206,5.17572 -5.577206,9.02197 v 5.41176 h -10.08716 c -3.286394,0 -6.082564,-2.11023 -7.124564,-5.04359 h 3.99049 c 2.694283,0 5.227166,-1.04905 7.132642,-2.95452 l 2.827417,-2.82845 c 0.984515,-0.98552 0.984515,-2.58331 0,-3.56582 -0.98552,-0.98549 -2.581302,-0.98549 -3.566822,0 l -2.827416,2.82744 c -0.952236,0.95224 -2.219191,1.47778 -3.566851,1.47778 h -3.99552 c 0.82312,-2.32106 2.75481,-4.15692 5.24936,-4.79644 1.118682,-0.2865 1.895393,-1.29419 1.895393,-2.44211 0,-0.0303 0,-0.0615 0,-0.0918 l -0.01323,-0.23503 c 0,-4.172045 3.393333,-7.565355 7.565363,-7.565355 0.07062,0 0.150309,0.006 0.225954,0.009 l 4.296145,4.29612 c 0.984516,0.985519 2.581329,0.985519 3.565817,0 0.98552,-0.98552 0.98552,-2.5813 0,-3.56582 l -3.447786,-3.44879 c 1.410177,-1.4677 3.369125,-2.33418 5.447084,-2.33418 1.734978,0 3.3691,0.57496 4.72683,1.66438 0.10089,0.0807 0.20781,0.14928 0.31674,0.21283 v 5.68815 c 0,1.39306 1.12876,2.521799 2.52179,2.521799 1.39303,0 2.5218,-1.128739 2.5218,-2.521799 z"
       id="path815" />
  </g>
</svg>
