<?xml version="1.0" encoding="UTF-8" standalone="no"?>
<!-- Created with Inkscape (http://www.inkscape.org/) -->

<svg
   xmlns:dc="http://purl.org/dc/elements/1.1/"
   xmlns:cc="http://creativecommons.org/ns#"
   xmlns:rdf="http://www.w3.org/1999/02/22-rdf-syntax-ns#"
   xmlns:svg="http://www.w3.org/2000/svg"
   xmlns="http://www.w3.org/2000/svg"
   xmlns:sodipodi="http://sodipodi.sourceforge.net/DTD/sodipodi-0.dtd"
   xmlns:inkscape="http://www.inkscape.org/namespaces/inkscape"
   width="75.653831mm"
   height="65.566513mm"
   viewBox="0 0 75.653831 65.566513"
   version="1.1"
   id="svg1491"
   inkscape:version="0.92.3 (2405546, 2018-03-11)"
   sodipodi:docname="brain_prog.svg">
  <defs
     id="defs1485" />
  <sodipodi:namedview
     id="base"
     pagecolor="#ffffff"
     bordercolor="#666666"
     borderopacity="1.0"
     inkscape:pageopacity="0.0"
     inkscape:pageshadow="2"
     inkscape:zoom="0.35"
     inkscape:cx="-652.74632"
     inkscape:cy="366.76243"
     inkscape:document-units="mm"
     inkscape:current-layer="layer1"
     showgrid="false"
     fit-margin-top="0"
     fit-margin-left="0"
     fit-margin-right="0"
     fit-margin-bottom="0"
     inkscape:window-width="1600"
     inkscape:window-height="1138"
     inkscape:window-x="1912"
     inkscape:window-y="-8"
     inkscape:window-maximized="1" />
  <metadata
     id="metadata1488">
    <rdf:RDF>
      <cc:Work
         rdf:about="">
        <dc:format>image/svg+xml</dc:format>
        <dc:type
           rdf:resource="http://purl.org/dc/dcmitype/StillImage" />
        <dc:title></dc:title>
      </cc:Work>
    </rdf:RDF>
  </metadata>
  <g
     inkscape:label="Layer 1"
     inkscape:groupmode="layer"
     id="layer1"
     transform="translate(-152.67306,-180.30605)">
    <path
       style="opacity:0.61199999;fill:#ff0000;fill-opacity:1;stroke-width:1.00871694"
       d="m 163.7236,215.61122 1.02587,2.05173 c 0.348,0.69701 0.5326,1.47674 0.5326,2.2565 v 3.25712 c 0,1.39307 1.12874,2.52181 2.5218,2.52181 1.39303,0 2.52177,-1.12874 2.52177,-2.52181 v -3.25712 c 0,-1.48383 -0.34396,-2.96563 -0.97743,-4.30823 h 17.04026 c 1.03997,2.37654 1.58972,4.97197 1.58972,7.56535 0,1.39307 1.12876,2.52181 2.5218,2.52181 1.39303,0 2.52179,-1.12874 2.52179,-2.52181 0,-2.56515 -0.43071,-5.12931 -1.24275,-7.56535 h 18.10851 c -1.12675,1.65631 -1.735,3.60817 -1.735,5.65486 v 4.4323 c 0,1.39303 1.12876,2.52179 2.52179,2.52179 1.39303,0 2.5218,-1.12876 2.5218,-2.52179 v -4.4323 c 0,-1.34663 0.52454,-2.61358 1.47674,-3.56684 l 2.08907,-2.08802 h 3.99955 c 4.17206,0 7.56539,3.3933 7.56539,7.56535 0,3.2511 -2.0719,6.06341 -5.0234,7.11349 l 0.0312,-4.57353 c 0,-0.007 0,-0.0122 0,-0.0183 0,-1.38496 -1.11766,-2.51169 -2.50463,-2.52177 -1.39303,-0.0101 -2.52987,1.1126 -2.53894,2.50362 l -0.0515,7.4857 c 0,0.007 0,0.0122 0,0.0182 0,0.19974 0.0293,0.39238 0.0737,0.57899 -1.37893,1.27302 -3.19564,2.0225 -5.11723,2.0225 -0.10189,0 -0.21386,-0.007 -0.32583,-0.0132 l -3.6132,-2.8567 c -1.74509,-1.37991 -3.92393,-2.14554 -6.14815,-2.16975 v -7.56941 c 0,-1.39303 -1.12874,-2.52179 -2.52177,-2.52179 -1.39306,0 -2.5218,1.12876 -2.5218,2.52179 v 7.56539 h -2.5218 c -1.39303,0 -2.52179,1.12874 -2.52179,2.52179 0,1.39304 1.12876,2.52181 2.52179,2.52181 h 7.45844 c 1.13078,0 2.24137,0.38631 3.12804,1.08638 l 2.26256,1.78845 c -1.39608,1.3658 -3.28438,2.16873 -5.28267,2.16873 -0.89371,0 -1.78641,-0.16441 -2.65293,-0.49022 -1.21851,-0.45696 -2.58633,0.0887 -3.15425,1.25987 -1.28106,2.63578 -3.88657,4.27395 -6.80279,4.27395 -0.87354,0 -1.72188,-0.14727 -2.52179,-0.43172 v -9.65544 c 0,-1.39306 -1.12874,-2.52181 -2.52177,-2.52181 -1.39306,0 -2.5218,1.12875 -2.5218,2.52181 v 8.20994 c -0.10895,0.0635 -0.21587,0.13113 -0.31676,0.21283 -1.35771,1.08942 -2.99183,1.66439 -4.72683,1.66439 -1.70775,0 -3.33785,-0.58404 -4.64717,-1.60589 2.79011,-1.79652 4.64717,-4.92355 4.64717,-8.48127 v -5.0436 c 0,-1.39102 1.13178,-2.52179 2.52179,-2.52179 1.39304,0 2.5218,-1.12877 2.5218,-2.52181 0,-1.39302 -1.12876,-2.52179 -2.5218,-2.52179 -4.17205,0 -7.56539,3.39334 -7.56539,7.56539 v 5.0436 c 0,2.78101 -2.26253,5.04356 -5.04356,5.04356 -3.47102,0 -6.39628,-2.35233 -7.28194,-5.555 l 3.99351,-0.79889 c 1.36681,-0.27336 2.24843,-1.61194 1.9781,-2.96664 -0.27336,-1.3658 -1.60184,-2.25147 -2.96764,-1.9781 l -5.04259,1.00872 c -0.0424,-0.0132 -0.0817,-0.0333 -0.12507,-0.0444 -3.34692,-0.85841 -5.68513,-3.8664 -5.68513,-7.31825 0,-0.46097 0.0484,-0.91084 0.12708,-1.34965 l 3.13309,3.13309 c 0.98452,0.98552 2.58131,0.98552 3.56582,0 0.98552,-0.98552 0.98552,-2.5813 0,-3.56582 l -4.06008,-4.06008 c 1.30728,-1.0763 2.97873,-1.72289 4.79946,-1.72289 z"
       id="path928"
       inkscape:connector-curvature="0" />
    <path
       style="opacity:0.61199999;fill:#ff0000;fill-opacity:1;stroke-width:1.00871694"
       d="m 187.97819,187.8715 v -7.13367 c 0.79991,-0.28445 1.64825,-0.43172 2.5218,-0.43172 2.91621,0 5.52172,1.63817 6.80177,4.27395 0.5679,1.1711 1.93575,1.71683 3.15426,1.25986 0.86648,-0.3258 1.75921,-0.49022 2.65292,-0.49022 1.85201,0 3.60215,0.69702 4.96189,1.88429 l -8.45404,5.02441 c -0.0999,0.0605 -0.19571,0.1261 -0.2875,0.19873 -0.59817,0.47914 -1.13278,1.01677 -1.59882,1.60084 l -2.9263,-2.9263 c -0.98448,-0.98552 -2.5813,-0.98552 -3.56581,0 -0.49223,0.49327 -0.73837,1.13782 -0.73837,1.7834 0,0.64559 0.24614,1.29016 0.73837,1.78343 l 4.38692,4.38689 c -0.0504,0.41156 -0.0817,0.82717 -0.0817,1.24881 v 2.66806 c 0,1.39303 1.12874,2.52177 2.5218,2.52177 1.39303,0 2.5218,-1.12874 2.5218,-2.52177 v -2.66906 c 0,-1.48786 0.64354,-2.87788 1.7713,-3.83818 l 10.20921,-6.06643 c 0.22797,-0.0201 0.43979,-0.0353 0.62844,-0.0353 2.50463,0 4.83378,1.26495 6.23689,3.32272 l -2.18792,4.37581 c -0.18155,0.36214 -0.2673,0.74647 -0.2673,1.12575 0,0.92499 0.5104,1.81568 1.39406,2.25751 1.24576,0.62238 2.76085,0.117 3.38323,-1.12776 l 2.11629,-4.23156 c 2.64586,1.19332 4.45551,3.84826 4.45551,6.88652 0,4.17204 -3.39334,7.56536 -7.56539,7.56536 h -9.30037 c 1.12675,-1.65633 1.735,-3.60818 1.735,-5.65486 v -1.9105 c 0,-1.39306 -1.12876,-2.5218 -2.52179,-2.5218 -1.39304,0 -2.5218,1.12874 -2.5218,2.5218 v 1.9105 c 0,1.34663 -0.52454,2.61358 -1.47677,3.56682 l -2.08905,2.08804 h -14.95928 c -0.63346,-2.1183 -0.465,-4.43632 0.53562,-6.43763 0.62543,-1.24777 0.11904,-2.75984 -1.12773,-3.38322 -1.24576,-0.62238 -2.76085,-0.11703 -3.38323,1.12773 -0.96636,1.9327 -1.44954,4.05201 -1.44954,6.17133 0,0.84531 0.0989,1.68859 0.2522,2.52179 h -9.08553 v -5.41176 c 0,-1.92262 1.06823,-3.65053 2.7881,-4.51099 l 3.38323,-1.69161 c 1.24677,-0.62338 1.75014,-2.13746 1.12876,-3.38323 -0.62338,-1.24476 -2.13746,-1.75014 -3.38325,-1.12776 l -3.38323,1.69162 c -3.44072,1.71987 -5.5772,5.17572 -5.5772,9.02197 v 5.41176 h -10.08716 c -3.28639,0 -6.08256,-2.11024 -7.12457,-5.04359 h 3.9905 c 2.69428,0 5.22716,-1.04905 7.13264,-2.95452 l 2.82741,-2.82845 c 0.98452,-0.98552 0.98452,-2.58331 0,-3.56582 -0.98552,-0.98549 -2.5813,-0.98549 -3.56682,0 l -2.82741,2.82744 c -0.95224,0.95224 -2.2192,1.47778 -3.56685,1.47778 h -3.99553 c 0.82312,-2.32106 2.75482,-4.15692 5.24936,-4.79644 1.11869,-0.28649 1.8954,-1.29419 1.8954,-2.44211 0,-0.0303 0,-0.0615 0,-0.0918 l -0.0132,-0.23503 c 0,-4.17206 3.39333,-7.56537 7.56536,-7.56537 0.0706,0 0.15031,0.006 0.22596,0.009 l 4.29614,4.29612 c 0.98452,0.98552 2.58133,0.98552 3.56582,0 0.98552,-0.98552 0.98552,-2.5813 0,-3.56581 l -3.44779,-3.44881 c 1.41018,-1.46769 3.36913,-2.33418 5.44709,-2.33418 1.73497,0 3.36909,0.57497 4.72683,1.66439 0.10088,0.0807 0.2078,0.14928 0.31673,0.21283 v 5.68815 c 0,1.39305 1.12877,2.52179 2.5218,2.52179 1.39303,0 2.5218,-1.12874 2.5218,-2.52179 z"
       id="path815"
       inkscape:connector-curvature="0" />
  </g>
</svg>
