<?xml version="1.0" encoding="UTF-8" standalone="no"?>
<!-- Created with Inkscape (http://www.inkscape.org/) -->

<svg
   xmlns:dc="http://purl.org/dc/elements/1.1/"
   xmlns:cc="http://creativecommons.org/ns#"
   xmlns:rdf="http://www.w3.org/1999/02/22-rdf-syntax-ns#"
   xmlns:svg="http://www.w3.org/2000/svg"
   xmlns="http://www.w3.org/2000/svg"
   xmlns:sodipodi="http://sodipodi.sourceforge.net/DTD/sodipodi-0.dtd"
   xmlns:inkscape="http://www.inkscape.org/namespaces/inkscape"
   width="75.653755mm"
   height="65.56649mm"
   viewBox="0 0 75.653755 65.56649"
   version="1.1"
   id="svg884"
   inkscape:version="0.92.3 (2405546, 2018-03-11)"
   sodipodi:docname="brain_des.svg">
  <defs
     id="defs878" />
  <sodipodi:namedview
     id="base"
     pagecolor="#ffffff"
     bordercolor="#666666"
     borderopacity="1.0"
     inkscape:pageopacity="0.0"
     inkscape:pageshadow="2"
     inkscape:zoom="0.98994949"
     inkscape:cx="10.34717"
     inkscape:cy="175.76872"
     inkscape:document-units="mm"
     inkscape:current-layer="layer1"
     showgrid="false"
     fit-margin-top="0"
     fit-margin-left="0"
     fit-margin-right="0"
     fit-margin-bottom="0"
     inkscape:window-width="1600"
     inkscape:window-height="1138"
     inkscape:window-x="1912"
     inkscape:window-y="-8"
     inkscape:window-maximized="1" />
  <metadata
     id="metadata881">
    <rdf:RDF>
      <cc:Work
         rdf:about="">
        <dc:format>image/svg+xml</dc:format>
        <dc:type
           rdf:resource="http://purl.org/dc/dcmitype/StillImage" />
        <dc:title></dc:title>
      </cc:Work>
    </rdf:RDF>
  </metadata>
  <g
     inkscape:label="Layer 1"
     inkscape:groupmode="layer"
     id="layer1"
     transform="translate(-68.006453,-116.05009)">
    <path
       inkscape:connector-curvature="0"
       style="opacity:0.61199999;fill:#ff0000;fill-opacity:1;stroke-width:1.00871694"
       d="m 132.60973,151.35525 -1.02586,2.05173 c -0.34801,0.69701 -0.53261,1.47674 -0.53261,2.25649 v 3.25713 c 0,1.39306 -1.12873,2.52181 -2.52179,2.52181 -1.39304,0 -2.52178,-1.12875 -2.52178,-2.52181 v -3.25713 c 0,-1.48383 0.34396,-2.96563 0.97742,-4.30822 h -17.04025 c -1.03997,2.37653 -1.58972,4.97196 -1.58972,7.56535 0,1.39306 -1.12877,2.52181 -2.5218,2.52181 -1.39303,0 -2.52179,-1.12875 -2.52179,-2.52181 0,-2.56516 0.43071,-5.12931 1.24274,-7.56535 H 86.445793 c 1.12675,1.65631 1.735,3.60816 1.735,5.65486 v 4.4323 c 0,1.39302 -1.12876,2.52178 -2.52179,2.52178 -1.39304,0 -2.5218,-1.12876 -2.5218,-2.52178 v -4.4323 c 0,-1.34664 -0.52454,-2.61358 -1.47675,-3.56684 l -2.08907,-2.08802 h -3.99954 c -4.17206,0 -7.56539,3.3933 -7.56539,7.56535 0,3.2511 2.07189,6.0634 5.0234,7.11349 l -0.0312,-4.57354 c 0,-0.007 0,-0.0122 0,-0.0183 0,-1.38496 1.117661,-2.51169 2.50463,-2.52177 1.39303,-0.0101 2.52987,1.1126 2.53894,2.50362 l 0.0515,7.4857 c 0,0.007 0,0.0122 0,0.0182 0,0.19974 -0.0293,0.39238 -0.0737,0.57899 1.37893,1.27302 3.19564,2.0225 5.11723,2.0225 0.10189,0 0.21386,-0.007 0.32583,-0.0132 l 3.61321,-2.8567 c 1.74508,-1.37991 3.92393,-2.14554 6.14815,-2.16975 v -7.56941 c 0,-1.39303 1.12873,-2.52179 2.521771,-2.52179 1.393049,0 2.521788,1.12876 2.521788,2.52179 v 7.56539 h 2.521798 c 1.39303,0 2.5218,1.12874 2.5218,2.5218 0,1.39303 -1.12877,2.5218 -2.5218,2.5218 h -7.458497 c -1.13077,0 -2.24136,0.38631 -3.12803,1.08638 l -2.26256,1.78845 c 1.39607,1.3658 3.28438,2.16873 5.28267,2.16873 0.89371,0 1.786411,-0.16441 2.652921,-0.49022 1.21852,-0.45696 2.586329,0.0887 3.154259,1.25987 1.281057,2.63578 3.886567,4.27395 6.802777,4.27395 0.87355,0 1.72188,-0.14727 2.5218,-0.43172 v -9.65544 c 0,-1.39306 1.12874,-2.5218 2.52177,-2.5218 1.39307,0 2.5218,1.12874 2.5218,2.5218 v 8.20994 c 0.10895,0.0636 0.21588,0.13113 0.31675,0.21283 1.35771,1.08942 2.99183,1.66439 4.72684,1.66439 1.70776,0 3.33785,-0.58404 4.64717,-1.60589 -2.79011,-1.79652 -4.64717,-4.92355 -4.64717,-8.48127 v -5.0436 c 0,-1.39102 -1.13178,-2.52179 -2.5218,-2.52179 -1.39303,0 -2.52179,-1.12877 -2.52179,-2.5218 0,-1.39303 1.12876,-2.5218 2.52179,-2.5218 4.17206,0 7.56539,3.39334 7.56539,7.56539 v 5.0436 c 0,2.78101 2.26253,5.04356 5.04358,5.04356 3.471,0 6.39627,-2.35233 7.28193,-5.555 l -3.99351,-0.79889 c -1.36682,-0.27336 -2.24842,-1.61194 -1.97811,-2.96664 0.27338,-1.3658 1.60185,-2.25147 2.96765,-1.9781 l 5.04259,1.00872 c 0.0424,-0.0132 0.0817,-0.0333 0.12506,-0.0444 3.34693,-0.85842 5.68513,-3.86641 5.68513,-7.31825 0,-0.46098 -0.0484,-0.91085 -0.12708,-1.34966 l -3.13309,3.13309 c -0.98451,0.98552 -2.58129,0.98552 -3.56581,0 -0.98552,-0.98552 -0.98552,-2.5813 0,-3.56582 l 4.06008,-4.06008 c -1.30728,-1.0763 -2.97872,-1.72289 -4.79945,-1.72289 z"
       id="path928-8" />
    <path
       inkscape:connector-curvature="0"
       style="opacity:0.61199999;fill:#ff0000;fill-opacity:1;stroke-width:1.00871694"
       d="m 108.35514,123.61553 v -7.13367 c -0.79992,-0.28446 -1.64825,-0.43172 -2.5218,-0.43172 -2.91621,0 -5.52172,1.63817 -6.801766,4.27394 -0.56791,1.1711 -1.93575,1.71683 -3.154262,1.25987 -0.866479,-0.32581 -1.759209,-0.49022 -2.652919,-0.49022 -1.85201,0 -3.60215,0.69702 -4.96189,1.88428 l 8.454041,5.02441 c 0.0999,0.0605 0.19571,0.1261 0.287499,0.19873 0.59817,0.47913 1.132782,1.01677 1.598821,1.60083 l 2.926286,-2.92629 c 0.98449,-0.98551 2.5813,-0.98551 3.56582,0 0.49223,0.49326 0.73837,1.13782 0.73837,1.7834 0,0.64558 -0.24614,1.29016 -0.73837,1.78342 l -4.38692,4.3869 c 0.0504,0.41156 0.0817,0.82717 0.0817,1.24881 v 2.66806 c 0,1.39303 -1.128739,2.52177 -2.521799,2.52177 -1.393028,0 -2.521789,-1.12874 -2.521789,-2.52177 v -2.66907 c 0,-1.48786 -0.643551,-2.87787 -1.77131,-3.83818 l -10.20921,-6.06642 c -0.22797,-0.0201 -0.43979,-0.0353 -0.62844,-0.0353 -2.50463,0 -4.83378,1.26495 -6.23689,3.32272 l 2.18792,4.37581 c 0.18155,0.36214 0.26731,0.74647 0.26731,1.12575 0,0.92498 -0.51041,1.81568 -1.39407,2.25751 -1.245759,0.62238 -2.76084,0.117 -3.38322,-1.12777 l -2.116299,-4.23156 c -2.64586,1.19333 -4.4555,3.84826 -4.4555,6.88653 0,4.17206 3.39333,7.56537 7.56539,7.56537 h 9.30036 c -1.12675,-1.65633 -1.735,-3.60817 -1.735,-5.65487 v -1.9105 c 0,-1.39306 1.12876,-2.5218 2.5218,-2.5218 1.39303,0 2.52179,1.12874 2.52179,2.5218 v 1.9105 c 0,1.34663 0.52454,2.61358 1.47677,3.56682 l 2.08905,2.08805 h 14.959277 c 0.63346,-2.11831 0.465,-4.43633 -0.53563,-6.43764 -0.62542,-1.24777 -0.11903,-2.75984 1.12774,-3.38323 1.24576,-0.62238 2.76084,-0.11702 3.38322,1.12774 0.96637,1.9327 1.44956,4.05201 1.44956,6.17133 0,0.84531 -0.0989,1.68859 -0.25221,2.5218 h 9.08553 v -5.41177 c 0,-1.92262 -1.06822,-3.65053 -2.7881,-4.51099 l -3.38323,-1.69161 c -1.24676,-0.62339 -1.75013,-2.13746 -1.12877,-3.38323 0.62339,-1.24476 2.13747,-1.75014 3.38326,-1.12776 l 3.38322,1.69161 c 3.44072,1.71988 5.57721,5.17573 5.57721,9.02198 v 5.41177 h 10.08717 c 3.28638,0 6.08255,-2.11024 7.12457,-5.0436 h -3.99051 c -2.69427,0 -5.22715,-1.04905 -7.13264,-2.95452 l -2.82742,-2.82845 c -0.9845,-0.98552 -0.9845,-2.58332 0,-3.56582 0.98552,-0.98549 2.5813,-0.98549 3.56682,0 l 2.82743,2.82744 c 0.95223,0.95224 2.21919,1.47778 3.56684,1.47778 h 3.99553 c -0.82311,-2.32106 -2.75482,-4.15692 -5.24936,-4.79645 -1.11869,-0.28649 -1.8954,-1.29418 -1.8954,-2.4421 0,-0.0303 0,-0.0615 0,-0.0918 l 0.0132,-0.23503 c 0,-4.17205 -3.39333,-7.56536 -7.56535,-7.56536 -0.0706,0 -0.15032,0.006 -0.22597,0.009 l -4.29614,4.29612 c -0.98452,0.98551 -2.58132,0.98551 -3.56582,0 -0.98552,-0.98552 -0.98552,-2.5813 0,-3.56582 l 3.4478,-3.44879 c -1.41019,-1.46769 -3.36913,-2.33418 -5.4471,-2.33418 -1.73498,0 -3.3691,0.57497 -4.72683,1.66439 -0.10089,0.0807 -0.20781,0.14928 -0.31673,0.21283 v 5.68815 c 0,1.39305 -1.12877,2.52178 -2.5218,2.52178 -1.39303,0 -2.5218,-1.12873 -2.5218,-2.52178 z"
       id="path815-7" />
  </g>
</svg>
