<?xml version="1.0" encoding="UTF-8" standalone="no"?>
<!-- Created with Inkscape (http://www.inkscape.org/) -->

<svg
   xmlns:dc="http://purl.org/dc/elements/1.1/"
   xmlns:cc="http://creativecommons.org/ns#"
   xmlns:rdf="http://www.w3.org/1999/02/22-rdf-syntax-ns#"
   xmlns:svg="http://www.w3.org/2000/svg"
   xmlns="http://www.w3.org/2000/svg"
   xmlns:sodipodi="http://sodipodi.sourceforge.net/DTD/sodipodi-0.dtd"
   xmlns:inkscape="http://www.inkscape.org/namespaces/inkscape"
   width="293.09598mm"
   height="77.23848mm"
   viewBox="0 0 293.09598 77.23848"
   version="1.1"
   id="svg8"
   inkscape:version="0.92.3 (2405546, 2018-03-11)"
   sodipodi:docname="double_braing.svg">
  <defs
     id="defs2" />
  <sodipodi:namedview
     id="base"
     pagecolor="#ffffff"
     bordercolor="#666666"
     borderopacity="1.0"
     inkscape:pageopacity="0.0"
     inkscape:pageshadow="2"
     inkscape:zoom="0.35"
     inkscape:cx="862.36316"
     inkscape:cy="-147.0335"
     inkscape:document-units="mm"
     inkscape:current-layer="g832"
     showgrid="false"
     fit-margin-top="0"
     fit-margin-left="0"
     fit-margin-right="0"
     fit-margin-bottom="0"
     inkscape:window-width="1600"
     inkscape:window-height="1138"
     inkscape:window-x="1912"
     inkscape:window-y="-8"
     inkscape:window-maximized="1" />
  <metadata
     id="metadata5">
    <rdf:RDF>
      <cc:Work
         rdf:about="">
        <dc:format>image/svg+xml</dc:format>
        <dc:type
           rdf:resource="http://purl.org/dc/dcmitype/StillImage" />
        <dc:title></dc:title>
      </cc:Work>
    </rdf:RDF>
  </metadata>
  <g
     inkscape:label="Layer 1"
     inkscape:groupmode="layer"
     id="layer1"
     transform="translate(28.731382,-84.097342)">
    <g
       id="g832"
       transform="matrix(0.26458333,0,0,0.26458333,23.001551,52.451943)">
      <path
         style="stroke-width:3.81247354"
         d="m -119.24955,138.66706 c -0.01,0 -0.019,0 -0.027,0 -24.3618,0 -44.5107,18.3723 -47.3205,41.9906 -17.3391,7.3886 -28.929,24.4913 -28.929,43.7901 0,15.5968 7.5639,29.4246 19.1843,38.1247 -11.6166,8.7001 -19.1843,22.5279 -19.1843,38.1247 0,19.2988 11.5899,36.4015 28.929,43.7901 2.8098,23.6183 22.9587,41.9906 47.3205,41.9906 0.01,0 0.019,0 0.027,0 8.9364,11.8873 23.034903,19.0624 38.098003,19.0624 8.3684,0 16.6148,-2.2418 23.828,-6.4088 7.2132,4.167 15.4595,6.4088 23.8279,6.4088 15.6502,0 29.8746004,-7.4687 38.7309004,-19.924 2.9471,0.5718 5.9321996,0.8616 8.9249996,0.8616 15.0631,0 29.1616,-7.1751 38.0981,-19.0624 0.01,0 0.019,0 0.027,0 15.532,0 30.0575,-7.644 38.933,-20.2175 21.574697,-4.7656 37.316397,-23.9881 37.316397,-46.5008 0,-15.5968 -7.5639,-29.4246 -19.1843,-38.1247 11.6204,-8.7001 19.1843,-22.5279 19.1843,-38.1247 0,-22.5089 -15.7417,-41.7352 -37.316497,-46.5008 -8.8754,-12.5773 -23.4009,-20.2175 -38.9329,-20.2175 -0.01,0 -0.019,0 -0.027,0 -8.9365,-11.8873 -23.035,-19.0624 -38.0981,-19.0624 -2.9966,0 -5.9778996,0.2859 -8.9249996,0.8616 -8.8564,-12.4553 -23.0807004,-19.924 -38.7309004,-19.924 -8.3684,0 -16.6148,2.2418 -23.828,6.4088 -7.2132,-4.167 -15.4595,-6.4088 -23.8279,-6.4088 -15.0631,0 -29.161603,7.1751 -38.098103,19.0624 z"
         id="path930"
         inkscape:connector-curvature="0" />
      <path
         style="opacity:0.61199999;fill:#ff0000;fill-opacity:1;stroke-width:3.81247354"
         d="m -134.69775,272.10366 3.8773,7.7546 c 1.3153,2.6344 2.013,5.5814 2.013,8.5285 v 12.3104 c 0,5.2651 4.2661,9.5312 9.5312,9.5312 5.265,0 9.5311,-4.2661 9.5311,-9.5312 v -12.3104 c 0,-5.6082 -1.3,-11.2087 -3.6942,-16.2831 h 64.404103 c 3.9306,8.9822 6.0084,18.7917 6.0084,28.5935 0,5.2651 4.2662,9.5312 9.5312,9.5312 5.265,0 9.5312,-4.2661 9.5312,-9.5312 0,-9.6951 -1.6279,-19.3864 -4.697,-28.5935 h 68.4416 c -4.2586,6.2601 -6.5575,13.6372 -6.5575,21.3727 v 16.752 c 0,5.265 4.2662,9.5312 9.5312,9.5312 5.265,0 9.5312,-4.2662 9.5312,-9.5312 v -16.752 c 0,-5.0896 1.9825,-9.8781 5.5814,-13.4809 l 7.8957,-7.8918 h 15.1164 c 15.7684,0 28.593597,12.8251 28.593597,28.5935 0,12.2876 -7.8308,22.9168 -18.986097,26.8856 l 0.1181,-17.2858 c 0,-0.027 0,-0.046 0,-0.069 0,-5.2345 -4.2242,-9.493 -9.4663,-9.5311 -5.265,-0.038 -9.5617,4.2051 -9.596,9.4625 l -0.1945,28.2924 c 0,0.027 0,0.046 0,0.069 0,0.7549 0.1106,1.483 0.2784,2.1883 -5.2117,4.8114 -12.078,7.6441 -19.3407,7.6441 -0.3851,0 -0.8083,-0.027 -1.2315,-0.05 l -13.6562,-10.797 c -6.5956,-5.2154 -14.8306,-8.1091 -23.2371,-8.2006 v -28.6088 c 0,-5.265 -4.2660996,-9.5312 -9.5310996,-9.5312 -5.26509997,0 -9.5312,4.2662 -9.5312,9.5312 v 28.5936 h -9.5312004 c -5.265,0 -9.5312,4.2661 -9.5312,9.5312 0,5.265 4.2662,9.5312 9.5312,9.5312 h 28.1894 c 4.2738,0 8.4713,1.4601 11.8225,4.106 l 8.5514,6.7595 c -5.2765,5.1621 -12.4134,8.1968 -19.966,8.1968 -3.3778,0 -6.7517996,-0.6214 -10.0267996,-1.8528 -4.60539997,-1.7271 -9.7751,0.3354 -11.9216,4.7617 -4.8418004,9.962 -14.6894004,16.1535 -25.7113004,16.1535 -3.3016,0 -6.5079,-0.5566 -9.5312,-1.6317 v -36.493 c 0,-5.2651 -4.2661,-9.5312 -9.5311,-9.5312 -5.2651,0 -9.5312,4.2661 -9.5312,9.5312 v 31.0297 c -0.4118,0.2402 -0.8159,0.4956 -1.1972,0.8044 -5.1315,4.1175 -11.3077,6.2906 -17.8652,6.2906 -6.4545,0 -12.6155,-2.2074 -17.5641,-6.0695 10.5453,-6.79 17.5641,-18.6087 17.5641,-32.0552 v -19.0624 c 0,-5.2574 4.2776,-9.5312 9.5312,-9.5312 5.265,0 9.5312,-4.2662 9.5312,-9.5312 0,-5.265 -4.2662,-9.5312 -9.5312,-9.5312 -15.7684,0 -28.593603,12.8252 -28.593603,28.5936 v 19.0624 c 0,10.5109 -8.5513,19.0623 -19.0623,19.0623 -13.1188,0 -24.1749,-8.8907 -27.5223,-20.9953 l 15.0936,-3.0194 c 5.1659,-1.0332 8.498,-6.0924 7.4763,-11.2125 -1.0332,-5.1621 -6.0542,-8.5095 -11.2163,-7.4763 l -19.0586,3.8125 c -0.1601,-0.05 -0.3088,-0.1258 -0.4727,-0.1678 -12.6498,-3.2444 -21.4871,-14.6132 -21.4871,-27.6595 0,-1.7423 0.183,-3.4426 0.4803,-5.1011 l 11.8416,11.8416 c 3.721,3.7248 9.7561,3.7248 13.4771,0 3.7248,-3.7248 3.7248,-9.7561 0,-13.4771 l -15.3452,-15.3452 c 4.9409,-4.0679 11.2582,-6.5117 18.1397,-6.5117 z"
         id="path928"
         inkscape:connector-curvature="0" />
      <path
         style="opacity:0.61199999;fill:#ff0000;fill-opacity:1;stroke-width:3.81247354"
         d="m -43.026847,167.26066 v -26.9619 c 3.0233,-1.0751 6.2296,-1.6317 9.5312,-1.6317 11.0219,0 20.8695,6.1915 25.7075004,16.1535 2.1464,4.4262 7.31620003,6.4888 11.9216,4.7617 3.2749,-1.2314 6.6489996,-1.8528 10.0267996,-1.8528 6.9997,0 13.6144,2.6344 18.7536,7.1217 l -31.95229957,18.9899 c -0.3775,0.2288 -0.7397,0.4766 -1.0866,0.7511 -2.26080003,1.8109 -4.28140003,3.8429 -6.04280003,6.0504 l -11.0600004,-11.06 c -3.7209,-3.7248 -9.7561,-3.7248 -13.4771,0 -1.8604,1.8643 -2.7907,4.3004 -2.7907,6.7404 0,2.44 0.9303,4.8762 2.7907,6.7405 l 16.5805,16.5804 c -0.1906,1.5555 -0.3088,3.1263 -0.3088,4.7199 v 10.084 c 0,5.265 4.2661,9.5311 9.5312004,9.5311 5.26500003,0 9.5312,-4.2661 9.5312,-9.5311 v -10.0878 c 0,-5.6234 2.4323,-10.877 6.6946996,-14.5065 l 38.586,-22.9282 c 0.8616,-0.076 1.6622,-0.1335 2.3752,-0.1335 9.4663,0 18.2694,4.7809 23.5725,12.5583 l -8.2693,16.5385 c -0.6862,1.3687 -1.0103,2.8213 -1.0103,4.2548 0,3.496 1.9291,6.8624 5.2689,8.5323 4.7084,2.3523 10.4347,0.4422 12.787,-4.2624 l 7.9986,-15.9933 c 10.000097,4.5102 16.839697,14.5446 16.839697,26.0278 0,15.7684 -12.825197,28.5935 -28.593597,28.5935 h -35.151 c 4.2586,-6.2601 6.5575,-13.6372 6.5575,-21.3727 v -7.2208 c 0,-5.2651 -4.2662,-9.5312 -9.5312,-9.5312 -5.265,0 -9.5312,4.2661 -9.5312,9.5312 v 7.2208 c 0,5.0896 -1.9825,9.8781 -5.5815,13.4809 l -7.8956,7.8918 h -56.539 c -2.3942,-8.0062 -1.7575,-16.7672 2.0244,-24.3312 2.3638,-4.716 0.4499,-10.4309 -4.2623,-12.787 -4.7084,-2.3523 -10.4347,-0.4423 -12.787,4.2623 -3.6524,7.3047 -5.4786,15.3147 -5.4786,23.3247 0,3.1949 0.3737,6.3821 0.9532,9.5312 h -34.339 v -20.4539 c 0,-7.2666 4.0374,-13.7973 10.5377,-17.0494 l 12.787,-6.3935 c 4.7122,-2.3561 6.6147,-8.0786 4.2662,-12.787 -2.3561,-4.7046 -8.0786,-6.6147 -12.7871,-4.2624 l -12.787,6.3935 c -13.004303,6.5003 -21.079203,19.5618 -21.079203,34.0988 v 20.4539 h -38.1247 c -12.421,0 -22.9892,-7.9757 -26.9275,-19.0624 h 15.0822 c 10.1831,0 19.7562,-3.9649 26.958,-11.1667 l 10.6863,-10.6902 c 3.721,-3.7248 3.721,-9.7637 0,-13.4771 -3.7248,-3.7247 -9.7561,-3.7247 -13.4809,0 l -10.6863,10.6864 c -3.599,3.599 -8.3875,5.5853 -13.481,5.5853 h -15.1012 c 3.111,-8.7725 10.4119,-15.7112 19.8401,-18.1283 4.2281,-1.0828 7.1637,-4.8914 7.1637,-9.23 0,-0.1144 0,-0.2326 0,-0.347 l -0.05,-0.8883 c 0,-15.7684 12.8252,-28.5935 28.5935,-28.5935 0.2669,0 0.5681,0.023 0.854,0.034 l 16.2374,16.2373 c 3.721003,3.7248 9.756203,3.7248 13.477103,0 3.7248,-3.7248 3.7248,-9.7561 0,-13.4771 l -13.031003,-13.0348 c 5.329803,-5.5472 12.733703,-8.8221 20.587403,-8.8221 6.5574,0 12.7336,2.1731 17.8652,6.2906 0.3813,0.305 0.7854,0.5642 1.1971,0.8044 v 21.4985 c 0,5.2651 4.2662,9.5312 9.5312,9.5312 5.265,0 9.5312,-4.2661 9.5312,-9.5312 z"
         id="path815"
         inkscape:connector-curvature="0" />
      <flowRoot
         xml:space="preserve"
         id="flowRoot853"
         style="font-style:normal;font-weight:normal;font-size:40px;line-height:1.25;font-family:sans-serif;letter-spacing:0px;word-spacing:0px;fill:#000000;fill-opacity:1;stroke:none"
         transform="translate(-364.07786,100.32786)"><flowRegion
           id="flowRegion855"><rect
             id="rect857"
             width="202.0305"
             height="113.13708"
             x="312.13715"
             y="343.69208" /></flowRegion><flowPara
           id="flowPara859"
           style="font-size:74.66666412px"></flowPara><flowPara
           style="font-size:74.66666412px"
           id="flowPara861">50%Computer</flowPara></flowRoot>      <flowRoot
         xml:space="preserve"
         id="flowRoot871"
         style="font-style:normal;font-weight:normal;font-size:40px;line-height:1.25;font-family:sans-serif;letter-spacing:0px;word-spacing:0px;fill:#000000;fill-opacity:1;stroke:none"
         transform="translate(-86.934997,-198.24357)"><flowRegion
           id="flowRegion873"><rect
             id="rect875"
             width="1240"
             height="418.57144"
             x="-498.57144"
             y="646.80542" /></flowRegion><flowPara
           id="flowPara877"></flowPara></flowRoot>      <path
         inkscape:connector-curvature="0"
         style="stroke-width:3.81247354"
         d="m 835.96175,144.65643 c 0.01,0 0.019,0 0.027,0 24.3618,0 44.5107,18.3723 47.3205,41.9906 17.3391,7.3886 28.929,24.4913 28.929,43.79011 0,15.5968 -7.5639,29.4246 -19.1843,38.1247 11.6166,8.7001 19.1843,22.5279 19.1843,38.1247 0,19.2988 -11.5899,36.4015 -28.929,43.7901 -2.8098,23.6183 -22.9587,41.9906 -47.3205,41.9906 -0.01,0 -0.019,0 -0.027,0 -8.9364,11.8873 -23.0349,19.0624 -38.098,19.0624 -8.3684,0 -16.6148,-2.2418 -23.828,-6.4088 -7.2132,4.167 -15.4595,6.4088 -23.8279,6.4088 -15.6502,0 -29.8746,-7.4687 -38.7309,-19.924 -2.9471,0.5718 -5.9322,0.8616 -8.925,0.8616 -15.0631,0 -29.1616,-7.1751 -38.0981,-19.0624 -0.01,0 -0.019,0 -0.027,0 -15.532,0 -30.0575,-7.644 -38.933,-20.2175 -21.5747,-4.7656 -37.3164,-23.9881 -37.3164,-46.5008 0,-15.5968 7.5639,-29.4246 19.1843,-38.1247 -11.6204,-8.7001 -19.1843,-22.5279 -19.1843,-38.1247 0,-22.50891 15.7417,-41.73521 37.3165,-46.50081 8.8754,-12.5773 23.4009,-20.2175 38.9329,-20.2175 0.01,0 0.019,0 0.027,0 8.9365,-11.8873 23.035,-19.0624 38.0981,-19.0624 2.9966,0 5.9779,0.2859 8.925,0.8616 8.8564,-12.4553 23.0807,-19.924 38.7309,-19.924 8.3684,0 16.6148,2.2418 23.828,6.4088 7.2132,-4.167 15.4595,-6.4088 23.8279,-6.4088 15.0631,0 29.1616,7.1751 38.0981,19.0624 z"
         id="path930-4" />
      <path
         inkscape:connector-curvature="0"
         style="opacity:0.61199999;fill:#ff0000;fill-opacity:1;stroke-width:3.81247354"
         d="m 851.40995,278.09304 -3.8773,7.7546 c -1.3153,2.6344 -2.013,5.5814 -2.013,8.5285 v 12.3104 c 0,5.2651 -4.2661,9.5312 -9.5312,9.5312 -5.265,0 -9.5311,-4.2661 -9.5311,-9.5312 v -12.3104 c 0,-5.6082 1.3,-11.2087 3.6942,-16.2831 h -64.4041 c -3.9306,8.9822 -6.0084,18.7917 -6.0084,28.5935 0,5.2651 -4.2662,9.5312 -9.5312,9.5312 -5.265,0 -9.5312,-4.2661 -9.5312,-9.5312 0,-9.6951 1.6279,-19.3864 4.697,-28.5935 h -68.4416 c 4.2586,6.2601 6.5575,13.6372 6.5575,21.3727 v 16.752 c 0,5.265 -4.2662,9.5312 -9.5312,9.5312 -5.265,0 -9.5312,-4.2662 -9.5312,-9.5312 v -16.752 c 0,-5.0896 -1.9825,-9.8781 -5.5814,-13.4809 l -7.8957,-7.8918 h -15.1164 c -15.7684,0 -28.5936,12.8251 -28.5936,28.5935 0,12.2876 7.8308,22.9168 18.9861,26.8856 l -0.1181,-17.2858 c 0,-0.027 0,-0.046 0,-0.069 0,-5.2345 4.2242,-9.493 9.4663,-9.5311 5.265,-0.038 9.5617,4.2051 9.596,9.4625 l 0.1945,28.2924 c 0,0.027 0,0.046 0,0.069 0,0.7549 -0.1106,1.483 -0.2784,2.1883 5.2117,4.8114 12.078,7.6441 19.3407,7.6441 0.3851,0 0.8083,-0.027 1.2315,-0.05 l 13.6562,-10.797 c 6.5956,-5.2154 14.8306,-8.1091 23.2371,-8.2006 v -28.6088 c 0,-5.265 4.2661,-9.5312 9.5311,-9.5312 5.2651,0 9.5312,4.2662 9.5312,9.5312 v 28.5936 h 9.5312 c 5.265,0 9.5312,4.2661 9.5312,9.5312 0,5.265 -4.2662,9.5312 -9.5312,9.5312 h -28.1894 c -4.2738,0 -8.4713,1.4601 -11.8225,4.106 l -8.5514,6.7595 c 5.2765,5.1621 12.4134,8.1968 19.966,8.1968 3.3778,0 6.7518,-0.6214 10.0268,-1.8528 4.6054,-1.7271 9.7751,0.3354 11.9216,4.7617 4.8418,9.962 14.6894,16.1535 25.7113,16.1535 3.3016,0 6.5079,-0.5566 9.5312,-1.6317 v -36.493 c 0,-5.2651 4.2661,-9.5312 9.5311,-9.5312 5.2651,0 9.5312,4.2661 9.5312,9.5312 v 31.0297 c 0.4118,0.2402 0.8159,0.4956 1.1972,0.8044 5.1315,4.1175 11.3077,6.2906 17.8652,6.2906 6.4545,0 12.6155,-2.2074 17.5641,-6.0695 -10.5453,-6.79 -17.5641,-18.6087 -17.5641,-32.0552 v -19.0624 c 0,-5.2574 -4.2776,-9.5312 -9.5312,-9.5312 -5.265,0 -9.5312,-4.2662 -9.5312,-9.5312 0,-5.265 4.2662,-9.5312 9.5312,-9.5312 15.7684,0 28.5936,12.8252 28.5936,28.5936 v 19.0624 c 0,10.5109 8.5513,19.0623 19.0623,19.0623 13.1188,0 24.1749,-8.8907 27.5223,-20.9953 l -15.0936,-3.0194 c -5.1659,-1.0332 -8.498,-6.0924 -7.4763,-11.2125 1.0332,-5.1621 6.0542,-8.5095 11.2163,-7.4763 l 19.0586,3.8125 c 0.1601,-0.05 0.3088,-0.1258 0.4727,-0.1678 12.6498,-3.2444 21.4871,-14.6132 21.4871,-27.6595 0,-1.7423 -0.183,-3.4426 -0.4803,-5.1011 l -11.8416,11.8416 c -3.721,3.7248 -9.7561,3.7248 -13.4771,0 -3.7248,-3.7248 -3.7248,-9.7561 0,-13.4771 l 15.3452,-15.3452 c -4.9409,-4.0679 -11.2582,-6.5117 -18.1397,-6.5117 z"
         id="path928-8" />
      <path
         inkscape:connector-curvature="0"
         style="opacity:0.61199999;fill:#ff0000;fill-opacity:1;stroke-width:3.81247354"
         d="m 759.73905,173.25003 v -26.9619 c -3.0233,-1.0751 -6.2296,-1.6317 -9.5312,-1.6317 -11.0219,0 -20.8695,6.1915 -25.7075,16.1535 -2.1464,4.4262 -7.3162,6.4888 -11.9216,4.7617 -3.2749,-1.2314 -6.649,-1.8528 -10.0268,-1.8528 -6.9997,0 -13.6144,2.6344 -18.7536,7.1217 l 31.9523,18.9899 c 0.3775,0.2288 0.7397,0.4766 1.0866,0.7511 2.2608,1.8109 4.2814,3.8429 6.0428,6.0504 l 11.06,-11.06 c 3.7209,-3.7248 9.7561,-3.7248 13.4771,0 1.8604,1.8643 2.7907,4.3004 2.7907,6.7404 0,2.44 -0.9303,4.8762 -2.7907,6.7405 l -16.5805,16.5804 c 0.1906,1.5555 0.3088,3.1263 0.3088,4.7199 v 10.08401 c 0,5.265 -4.2661,9.5311 -9.5312,9.5311 -5.265,0 -9.5312,-4.2661 -9.5312,-9.5311 v -10.08781 c 0,-5.6234 -2.4323,-10.877 -6.6947,-14.5065 l -38.586,-22.9282 c -0.8616,-0.076 -1.6622,-0.1335 -2.3752,-0.1335 -9.4663,0 -18.2694,4.7809 -23.5725,12.5583 l 8.2693,16.5385 c 0.6862,1.3687 1.0103,2.8213 1.0103,4.2548 0,3.496 -1.9291,6.8624 -5.2689,8.53231 -4.7084,2.3523 -10.4347,0.4422 -12.787,-4.26241 l -7.9986,-15.9933 c -10.0001,4.5102 -16.8397,14.5446 -16.8397,26.02781 0,15.7684 12.8252,28.5935 28.5936,28.5935 h 35.151 c -4.2586,-6.2601 -6.5575,-13.6372 -6.5575,-21.3727 v -7.2208 c 0,-5.2651 4.2662,-9.53121 9.5312,-9.53121 5.265,0 9.5312,4.26611 9.5312,9.53121 v 7.2208 c 0,5.0896 1.9825,9.8781 5.5815,13.4809 l 7.8956,7.8918 h 56.539 c 2.3942,-8.0062 1.7575,-16.7672 -2.0244,-24.3312 -2.3638,-4.716 -0.4499,-10.4309 4.2623,-12.78701 4.7084,-2.3523 10.4347,-0.4423 12.787,4.26231 3.6524,7.3047 5.4786,15.3147 5.4786,23.3247 0,3.1949 -0.3737,6.3821 -0.9532,9.5312 h 34.339 v -20.4539 c 0,-7.2666 -4.0374,-13.7973 -10.5377,-17.04941 l -12.787,-6.3935 c -4.7122,-2.3561 -6.6147,-8.0786 -4.2662,-12.787 2.3561,-4.7046 8.0786,-6.6147 12.7871,-4.2624 l 12.787,6.3935 c 13.0043,6.5003 21.0792,19.56181 21.0792,34.09881 v 20.4539 h 38.1247 c 12.421,0 22.9892,-7.9757 26.9275,-19.0624 h -15.0822 c -10.1831,0 -19.7562,-3.9649 -26.958,-11.1667 l -10.6863,-10.69021 c -3.721,-3.7248 -3.721,-9.7637 0,-13.4771 3.7248,-3.7247 9.7561,-3.7247 13.4809,0 l 10.6863,10.6864 c 3.599,3.599 8.3875,5.5853 13.481,5.5853 h 15.1012 c -3.111,-8.7725 -10.4119,-15.7112 -19.8401,-18.1283 -4.2281,-1.0828 -7.1637,-4.8914 -7.1637,-9.23 0,-0.1144 0,-0.2326 0,-0.347 l 0.05,-0.8883 c 0,-15.7684 -12.8252,-28.5935 -28.5935,-28.5935 -0.2669,0 -0.5681,0.023 -0.854,0.034 l -16.2374,16.2373 c -3.721,3.7248 -9.7562,3.7248 -13.4771,0 -3.7248,-3.7248 -3.7248,-9.7561 0,-13.4771 l 13.031,-13.0348 c -5.3298,-5.5472 -12.7337,-8.8221 -20.5874,-8.8221 -6.5574,0 -12.7336,2.1731 -17.8652,6.2906 -0.3813,0.305 -0.7854,0.5642 -1.1971,0.8044 v 21.4985 c 0,5.2651 -4.2662,9.5312 -9.5312,9.5312 -5.265,0 -9.5312,-4.2661 -9.5312,-9.5312 z"
         id="path815-7" />
    </g>
  </g>
</svg>
