<?xml version="1.0" encoding="UTF-8" standalone="no"?>
<!-- Created with Inkscape (http://www.inkscape.org/) -->

<svg
   xmlns:dc="http://purl.org/dc/elements/1.1/"
   xmlns:cc="http://creativecommons.org/ns#"
   xmlns:rdf="http://www.w3.org/1999/02/22-rdf-syntax-ns#"
   xmlns:svg="http://www.w3.org/2000/svg"
   xmlns="http://www.w3.org/2000/svg"
   xmlns:sodipodi="http://sodipodi.sourceforge.net/DTD/sodipodi-0.dtd"
   xmlns:inkscape="http://www.inkscape.org/namespaces/inkscape"
   width="42.607151mm"
   height="41.554928mm"
   viewBox="0 0 42.607151 41.554928"
   version="1.1"
   id="svg1995"
   inkscape:version="0.92.3 (2405546, 2018-03-11)"
   sodipodi:docname="git_logo.svg">
  <defs
     id="defs1989" />
  <sodipodi:namedview
     id="base"
     pagecolor="#ffffff"
     bordercolor="#666666"
     borderopacity="1.0"
     inkscape:pageopacity="0.0"
     inkscape:pageshadow="2"
     inkscape:zoom="2.8"
     inkscape:cx="75.873872"
     inkscape:cy="100.68749"
     inkscape:document-units="mm"
     inkscape:current-layer="layer1"
     showgrid="false"
     fit-margin-top="0"
     fit-margin-left="0"
     fit-margin-right="0"
     fit-margin-bottom="0"
     inkscape:window-width="1600"
     inkscape:window-height="1138"
     inkscape:window-x="1912"
     inkscape:window-y="-8"
     inkscape:window-maximized="1" />
  <metadata
     id="metadata1992">
    <rdf:RDF>
      <cc:Work
         rdf:about="">
        <dc:format>image/svg+xml</dc:format>
        <dc:type
           rdf:resource="http://purl.org/dc/dcmitype/StillImage" />
        <dc:title></dc:title>
      </cc:Work>
    </rdf:RDF>
  </metadata>
  <g
     inkscape:label="Layer 1"
     inkscape:groupmode="layer"
     id="layer1"
     transform="translate(-172.22023,-57.752298)">
    <path
       inkscape:connector-curvature="0"
       id="path841"
       style="fill:#1b1817;fill-opacity:1;fill-rule:evenodd;stroke:none;stroke-width:0.35277778"
       d="m 193.52377,57.752298 c -11.76408,0 -21.30354,9.537347 -21.30354,21.303544 0,9.412112 6.10411,17.397589 14.56866,20.214521 1.06468,0.197202 1.45556,-0.46214 1.45556,-1.024821 0,-0.507649 -0.0198,-2.186163 -0.0289,-3.966282 -5.92666,1.288698 -7.17726,-2.513542 -7.17726,-2.513542 -0.96908,-2.462035 -2.36538,-3.117143 -2.36538,-3.117143 -1.93287,-1.32221 0.1457,-1.295046 0.1457,-1.295046 2.13925,0.150281 3.26567,2.195688 3.26567,2.195688 1.90006,3.256491 4.98369,2.314926 6.19936,1.770591 0.19156,-1.376537 0.7433,-2.316691 1.35255,-2.848679 -4.73181,-0.538339 -9.70598,-2.365375 -9.70598,-10.528301 0,-2.325511 0.83221,-4.226278 2.19499,-5.718175 -0.22119,-0.536575 -0.95039,-2.703336 0.20673,-5.637741 0,0 1.78893,-0.572205 5.85963,2.184047 1.69933,-0.472017 3.52178,-0.708731 5.33224,-0.717197 1.81046,0.0085 3.63432,0.24518 5.33682,0.717197 4.06612,-2.756252 5.85259,-2.184047 5.85259,-2.184047 1.15959,2.934405 0.43039,5.101166 0.20919,5.637741 1.36597,1.491897 2.19216,3.392664 2.19216,5.718175 0,8.18268 -4.98369,9.983964 -9.72749,10.511368 0.76412,0.661104 1.44499,1.957562 1.44499,3.945112 0,2.850446 -0.0243,5.144559 -0.0243,5.846234 0,0.567266 0.3831,1.231196 1.46295,1.02235 8.46032,-2.820107 14.55667,-10.802761 14.55667,-20.21205 0,-11.766197 -9.53805,-21.303544 -21.30355,-21.303544" />
    <path
       inkscape:connector-curvature="0"
       id="path845"
       style="fill:#1b1817;fill-opacity:1;fill-rule:nonzero;stroke:none;stroke-width:0.35277778"
       d="m 180.2891,88.339258 c -0.0469,0.106188 -0.21343,0.137938 -0.36512,0.06526 -0.15487,-0.06985 -0.2413,-0.214138 -0.19121,-0.320324 0.0459,-0.108656 0.21237,-0.138996 0.36689,-0.06632 0.15452,0.0695 0.24271,0.215196 0.18944,0.321381" />
    <path
       inkscape:connector-curvature="0"
       id="path849"
       style="fill:#1b1817;fill-opacity:1;fill-rule:nonzero;stroke:none;stroke-width:0.35277778"
       d="m 181.1521,89.301813 c -0.1016,0.09419 -0.30057,0.05045 -0.43497,-0.09843 -0.1397,-0.148518 -0.16546,-0.347485 -0.0624,-0.442735 0.10478,-0.09419 0.2974,-0.05009 0.43674,0.09843 0.1397,0.150284 0.16687,0.347134 0.0607,0.442736" />
    <path
       inkscape:connector-curvature="0"
       id="path853"
       style="fill:#1b1817;fill-opacity:1;fill-rule:nonzero;stroke:none;stroke-width:0.35277778"
       d="m 181.99203,90.528598 c -0.13053,0.09102 -0.34431,0.006 -0.47625,-0.183443 -0.13053,-0.189797 -0.13053,-0.416984 0.003,-0.508 0.13193,-0.09102 0.34254,-0.0088 0.47624,0.178858 0.13018,0.192617 0.13018,0.419804 -0.003,0.512585" />
    <path
       inkscape:connector-curvature="0"
       id="path857"
       style="fill:#1b1817;fill-opacity:1;fill-rule:nonzero;stroke:none;stroke-width:0.35277778"
       d="m 183.14269,91.714072 c -0.11677,0.128765 -0.36548,0.09419 -0.54751,-0.08184 -0.18627,-0.17145 -0.23813,-0.415222 -0.12136,-0.543986 0.11854,-0.129114 0.36866,-0.09278 0.5521,0.08149 0.18486,0.17145 0.24095,0.416984 0.11677,0.544335" />
    <path
       inkscape:connector-curvature="0"
       id="path861"
       style="fill:#1b1817;fill-opacity:1;fill-rule:nonzero;stroke:none;stroke-width:0.35277778"
       d="m 184.73019,92.402377 c -0.0519,0.166865 -0.29104,0.242359 -0.53234,0.17145 -0.24095,-0.07303 -0.39864,-0.26811 -0.34996,-0.436739 0.0501,-0.167921 0.29069,-0.246944 0.53376,-0.171096 0.24059,0.07267 0.39863,0.2667 0.34854,0.436385" />
    <path
       inkscape:connector-curvature="0"
       id="path865"
       style="fill:#1b1817;fill-opacity:1;fill-rule:nonzero;stroke:none;stroke-width:0.35277778"
       d="m 186.47376,92.529872 c 0.006,0.175683 -0.19861,0.321382 -0.45191,0.324557 -0.2547,0.0056 -0.46108,-0.136525 -0.4639,-0.309388 0,-0.177448 0.20038,-0.321382 0.45473,-0.325967 0.25329,-0.0049 0.46108,0.136525 0.46108,0.310798" />
    <path
       inkscape:connector-curvature="0"
       id="path869"
       style="fill:#1b1817;fill-opacity:1;fill-rule:nonzero;stroke:none;stroke-width:0.35277778"
       d="m 188.09604,92.253893 c 0.0303,0.171098 -0.1457,0.347134 -0.39723,0.394052 -0.24729,0.04551 -0.47625,-0.06068 -0.50764,-0.230362 -0.0307,-0.175683 0.14816,-0.351721 0.39546,-0.39723 0.25188,-0.04374 0.47731,0.05927 0.50941,0.23354" />
  </g>
</svg>
