<svg xmlns="http://www.w3.org/2000/svg" viewBox="0 0 68 89.1">
  <defs>
    <style>
      .cls-1 {
        fill: #fe224a;
        fill-rule: evenodd;
      }
    </style>
  </defs>
  <g id="Group_3399" data-name="Group 3399" transform="translate(-920 -2465)">
    <g id="Group_3398" data-name="Group 3398" transform="translate(920.2 2464.1)">
      <path id="Path_19091" data-name="Path 19091" class="cls-1" d="M2.2,39.1v.5h.1V40h.1v.3h.3v.5H3v.5h.3v.5h.3v.5h.3v.5h.3v.5h.3v.5h.3v.5h.3v.5h.3v.5h.3v.5H6v.5h.2v1.4h.3l4.4-.1v-.1h.3v-.7h.1v-.4h.4V46h.4v-.4h.4v-.4h.4v-.4h.4v-.4h.4V44h.4v-.4h.4v-.4h.1v1.3H15v.3h.4v.3h.4v.3h.4v.3h.4V46H17v.3h.4v.3h.4v.3h.4v.3h.4v.3H19v.3h.4v.3h.4v.3h.4v.3h.4V49H21v.3h.4v.3h.4v.3h.4v.3h.4v.3H23v.3h.4v.3h.4v.3h.4v.3h.4V52H25v.3h.4v.3h.4v.3h.4v.3h.4v.3H27v.3h.4v.3h.4v.3h.4v.3h.4V55H29v.3h.4v.3h.4v.3h.4v.3h.4v.3H31v.3h.4v.3h.4v.3h.4v.3h.4V58H33v.3h.4v.3h.4v.3h.4v.3h.4v.3H35v.3h.4v.3h.4v.3h.7v.2L43,61v-.7h.4v-.5h.2v-.5h.2v-.5H44v-.5h.2v-.5h.2v-.5h.2v-.5h.2v-.5H45v-.5h.2v-.5h.2v-.5h.2v-.5h.2v-.5H46v-.5h.2v-.5h.2v-.5h.2v-.5h.2v-.5H47v-.5h.2v-.5h.2v-.5h.2v-.5h.2v-.6h.1v-.5h0v-.5h0v-.5h0v-.5h0v-.5h0v-.5h0v-.5h0v-.5h0v-.5h0v-.5h0v-.5h0v-.5h0v-.5h0v-.5h0v-.5h0v-.5h0v-.5h0v-.5h0v-.5h0v-.5h0v-.5h0v-.5h0v-.6h0l-.3-10.5h-.1V26h-.1v-.5h-.1V25h-.1v-.5h-.1V24H47v-.5h-.1V23L48,22v-.5h-.1V21h-.1v-.5h-.1V20h-.1v-.5h-.1V19h-.1v-.5h-.1V18h-.1v-.5h-.1V17H47v-.5h-.1V16h-.1v-.5h-.1V15h-.1v-.5h-.1V14h-.1v-.5h-.1V13h-.1v-.5h-.1V12H46v-.5h-.1V11h-.1v-.5h-.1V10h-.1V9.5h-.1V9h-.1V8.5h-.1V8h-.1V7.5h-.1V7H45V6.5h-.1V6h-.1V5.5h-.1V5h-.1V4.5h-.1V4h0V3.5h-.1V3h-.1V2.5h-.1V2H43.1V.9L38.8,1v.7H37.1v.4h-.4v.4h-.4v.4h-.4v.4h-.4v.4h-.4v.4h-.4v.4h-.4v.4h-.4v.4h-.4v.4h-.4v.4h-.4v.4h-.4v.4h-.4v.4h-.4v.4h-.4v.4h-.4v.4h-.4v.4h-.4v.4h-.4L31,9h-.4v.4h-.4v.4h-.4v.4h-.4v.4H29V11h-.4v.4h-.4v.4h-.4v.4h-.3v.4h-.4V13h-.4v.4h-.4v.4h-.4v.4h-.4v.4h-.4V15h-.4v.4h-.4v.4h-.4v.4h-.4v.4h-.4V17h-.4v.4h-.4v.4h-.4v.4h-.4v.4h-.4V19h-.4v.4h-.4v.4h-.4v.4h-.4v.4h-.4V21h-.4v.4h-.4v.4h-.4v.4h-.4v.4h-.4V23h-.4v.4h-.4v.4h-.4v.4h-.4v.4h-.4V25h-.4v.4h-.4v.4h-.4v.4h-.4v.4h-.4V27h-.4v.4h-.4v.4h-.4v.4h-.3l-.1-3.9h-.4V24h-.4v-.3h-.4v-.3H9.9v-.3H9.5v-.3H9.1v-.3H8.7v-.3H8.3v-.3H7.9v-.3H7.5v-.3H7.1V21H6.7v-.3H6.3v-.3H5.9v-.3H5.5v-.3H5.3v-.2H5.1v-.1H4.2V19l-4.4.1v.3h0v.2L1,20H.9v.5H.7V21H.5v.5H.3V22H.1v.2H0L.2,32H.3v.2H.4v.5H.5v.5H.6v.5H.7v.5H.8v.5H.9v.5H1v.5h.1v.5h.1v.5h.1v.5h.1v.5h.1v.5h.1v.5ZM40.9,11.6v.3h0v.6h0v.6H41v.5h.1v.5h0v.6h.1v.5h0v.6h0v.6h0V17h0v.6h0v.6h.1v.5h.1v.5h.1v.5h.1v.5h.1v.5h.1v.5h.1v.5H42v.5h.1v.5h.1v.5h.1v.5h.1v.5h.1v.5h.1v.5h.1v.5h.1v.5h.1v.5H43v.5h.1v.5h.1v.5h.1v.5h.1v.5h.1v.5h.1v.5h.1v.5h.1v.5h.1v.5h0v.4h0v.5h0v.5h0v.5h0v.5h0v.5h0v.5h0v.5h0v.5h0v.5h0v.5h0v.6h-.1v.5h-.2v.5h-.2v.5h-.2v.5H43v.5h-.2v.5h-.2v.5h-.2v.5h-.2v.5H42v.5h-.2v.5h-.2v.5h-.2v.5h-.2v.5H41v.5h-.2v.5h-.2v.5h-.2v.5h-.2v.5h-.3v-.3h-.4v-.3h-.4v-.3h-.4V46h-.4v-.3h-.4v-.3h-.4v-.3h-.4v-.3h-.4v-.3h-.4v-.3h-.4v-.3h-.4v-.3h-.4v-.3h-.4V43h-.4v-.3h-.4v-.3h-.4v-.3h-.4v-.3h-.4v-.3h-.4v-.3h-.4v-.3h-.4v-.3h-.4v-.3h-.4V40h-.4v-.3h-.4v-.3h-.4v-.3h-.4v-.3h-.4v-.3h-.4v-.3h-.4v-.3h-.4v-.3h-.4v-.3h-.5V37h-.5v-.3h-.5v-.3h-.4v-.3h-.4v-.3h-.4v-.3H24v-.3h-.4v-.3h-.5v-.3h-.2v-.1h.4v-.4h.4v-.4h.4v-.4h.4v-.4h.4v-.4h.4v-.4h.4v-.4h.4v-.4h.4v-.4h.4v-.4h.4v-.4h.4v-.4h.4v-.4h.4v-.4h.4v-.4h.4v-.4h.4v-.4h.4v-.4h.4v-.4h.4v-.4h.4v-.4h.4v-.4h.4v-.4h.4v-.4h.4v-.4h.4v-.4h.4v-.4h.4v-.4h.4v-.4h.4v-.4h.4v-.4h.3v-.4h.3v-.4h.3v-.4h.4v-.4H37v-.4h.4v-.4h.4v-.4h.4v-.4h.4v-.4H39v-.4h.4v-.4h.4v-.4h.4v-.4h.4v-.4H41v-.4h.4v-.4h.4v-.4h.4v-.4h.4v-.4H43v-.4h.4v-.4h.4v-.4h.4v-.4h.4v-.4H45v-.4h.4l-4.5-.5ZM9.1,33.9Z"/>
      <path id="Path_19092" data-name="Path 19092" class="cls-1" d="M67.7,74.7h.1l-.3-11.1h0v-.5h-.1v-.5h0l-.1-.5h0v-.6h-.1V61h-.1v-.5H67v-.6h0v-.5h-.1v-.5h-.1v-.6h-.1v-.5h0v-.5h-.1v-.6h-.1v-.5h-.1v-.5l-.1-.6h0v-.5h-.1V54h-.1v-.5h0L66,53h0v-.6h-.1v-.5h-.1v-.5h-.1v-.6h0v-.5h-.1v-.5h-.1v-.6h-.1v-.5h0l-.1-.5h0v-.6h-.1v-.5h0l-.1-.6h0V46H65v-.5h0l-.1-.6h0v-.5h-.1v-.5h0l-.1-.6h0v-.5h-.1v-.5h0v-.6h-.1v-.5h-.1v-.6h0v-.5h-.1v-.5h-.1V39h0v-.5h-.1V38H64v-.6h0v-.5h-.1v-.6l-.1.1v-.6h0v-.5h-.1v-.6h0l-.1-.5h0v-.4h0l-.3-10.9h0v-.5h-.1v-.6h0v-.5h-.1v-.5H63v-.5h-.1v-.6h0v-.5h-.1v-.5h-.1v-.6h-.1v-.5h-.1v-.5h-.1v-.5h-.1l-.1-.6h0l-.1-.5H62V15h-.1v-.5l-4.7.1.2,10.7h.1v.5h.1v.6h.1v.5h.1v.5h.1V28H58v.5h.1v.6h.1v.5h.1v.5h.1v.6h0v.4h0l.3,11h0v.6h0v.5h.1v.5h.1v.6h0v.5H59v.6h0l.1.5h0v.5h.1V47h0l.1.5h0V48h.1v.6h0v.5h.1v.6h.1v.5h0v.5h.1v.6h.1v.5h0v.5h.1v.6h0l.1.5h0V54h.1v.5h0l.1.5h0v.6h.1v.5h0v.6h.1v.5h.1v.5h0v.6h.1v.5h.1v.5h0l.1.6h0v.5h.1V61H61v.5h.1V62h0v.6h.1v.5h.1v.5h.1v.6h0v.5h.1v.5h.1v.6h.1v.5h0l.1.6h0v.5h.1v.5H62v.6h0l.1.5h0v.1h0v.5H62v.6h-.1l.1.5h-.1v.5h-.1v.6h0v.5h-.1v.5h0v.6h-.1v.5h-.1v.5h0V75h-.1v.5h0V76h-.1v.5H61v-.2h-.5v-.2H60v-.2h-.5v-.2H59v-.2h-.5v-.2H58v-.2h-.5v-.2H57v-.2h-.5v-.2H56v-.2h-.5v-.2H55v-.2h-.5v-.2H54v-.2h-.5v-.2H53V73l-.5.1v-.3l-.5.1v-.3l-.5.1v-.3l-.5.1v-.3l-.5.1V72H50v-.2h-.5v-.2H49v-.2h-.5v-.2H48V71h-.5v-.2H47v-.2h-.5l-.1-.2H46l-.1-.2h-.4l-.1-.2h-.5v-.2h-.5v-.2h-.5v-.2h-.5v-.2h-.5V69h-.5v-.2l-.5.1v-.3l-.5.1v-.3l-.5.1v-.2h-.5v-.2h-.5v-.2h-.5v-.2h-.5v-.2h-.5v-.2h-.5v-.2h-.5v-.2h-.5v-.2h-.5v-.2h-.5v-.2h-.5v-.2h-.5l-.1-.2h-.5v-.2h-.5v-.2h-.5v-.2h-.5v-.2h-.5v-.2h-.5v-.2h-.5v-.2l-.5.1v-.3l-.5.1v-.2h-.5V64h-.5v-.2h-.5v-.2h-.5v-.2h-.5v-.2h-.5V63h-.5v-.2h-.5v-.2h-.5v-.2h-.6v-.2h-.5V62h-.5v-.2h-.5v-.2l-.5.1v-.3l-.5.1v-.2h-.5v-.2h-.5v-.2h-.5v-.2h-.5v-.2h-.5v-.2h-.5v-.2h-.5v-.2h-.5v-.3l-.5.1v-.3l-.5.1v-.3h-.5V59h-.5v-.2h-.5v-.2h-.5v-.2h-.5v-.2h-.5V58h-.5v-.2h-.5v-.3l-.5.1v-.3l-.5.1v-.3h-.5v-.2h-.5v-.2h-.5v-.2h-.5v-.2h-.5V56l-.5.1v-.3H9.2v-.2H8.7v-.2H8.2v-.2H7.8L7.7,55H7.3l-.1-.3-.4.1v-.3l-4.6.1.2,10.3h.5v.2h.5v.3h.5v.2h.5v.3l.5-.1v.3h.4v.2h.5v.3h.5v.2h.5v.3h.5v.2h.5v.3h.4l.1.2h.4l.1.2h.4v.3l.5-.1v.3h.5v.2h.5v.2h.5v.2h.5v.3l.5-.1v.3h.5v.2h.5V70h.5v.2h.5v.3l.5-.1v.3h.5v.2h.5v.2h.5v.2h.5v.3h.4v.3l.5-.1v.3l.5-.1v.3l.5-.1v.3l.5-.1v.3l.5-.1v.3l.5-.1v.3l.5-.1v.3h.5v.2h.5v.2h.5v.2h.5l.1.2h.4l.1.2h.5v.2h.5v.2h.5v.2h.5v.2h.5v.2h.5v.2h.5v.2h.5v.2h.5v.2h.5v.2h.5v.2h.5v.2h.5v.2h.5v.2h.5v.2h.5v.2h.5v.2h.5v.2h.5v.2h.5v.2h.5v.2h.5v.2h.5v.2h.5v.2h.5v.2h.5v.2h.5v.2h.5v.2h.5v.2h.5v.2h.5v.2h.5v.2h.5v.2h.5v.2h.5v.2h.5v.3l.5-.1v.3l.5-.1V82h.5v.2h.5v.2h.5v.2h.5v.2h.5V83h.5v.2h.5v.2h.5v.2h.5v.2h.5V84h.5v.2h.5v.2h.5v.2h.5v.2h.5V85h.5v.2h.5v.2h.5v.2h.5v.2h.5v.3l.5-.1v.3l.5-.1v.3l.5-.1v.3h.5l.1.2h.4l.1.2h.4l.1.2h.4l.1.2h.4l.1.2h.5v.2h.5v.2h.5v.2h.5v.2h.5v.2h.5v.2h.5v.2h.5v.2h.5v.2h.5v.2h0V90l5-.1v-.1h.1v-.5h0v-.5h0v-.5h.1v-.6h0v-.5h.1v-.6h0v-.5h.1v-.6h.1l-.1-.5h.1v-.5h.1v-.6h0v-.5H67v-.6h0v-.5h.1v-.6h0v-.5h.1v-.5h0v-.6h.1v-.5h.1l-.1-.6h.1v-.5h.1l-.1-.5h.1v-.6h.1l-.1-.5h.1v-.6h.1l-.1-.5h.1v-.5h0Z"/>
    </g>
  </g>
</svg>
