<svg id="Group_3378" data-name="Group 3378" xmlns="http://www.w3.org/2000/svg" viewBox="0 0 202.1 69">
  <defs>
    <style>
      .cls-1 {
        fill: #fe224a;
        fill-rule: evenodd;
      }
    </style>
  </defs>
  <path id="Path_19071" data-name="Path 19071" class="cls-1" d="M31.6,14.2h0v-.6h-.1v-.5h0v-.6h-.1V12h0v-.6h-.1v-.5h0v-.6h0l-.1-.5h0V9.2h0V8.7h0V8.1h-.1V7.6h0V7.1H31V6.7h-.3V6.2l-.4.1V5.8H30V5.4h-.3V5h-.3V4.5h-.3V4.1h-.3V3.7h-.3V3.2l-.4.1V2.9h-.4V2.5h-.4V2.1h-.4V1.8h-.4V1.4h-.4V1.1h-.4V.8h-.5V.5h-.4V.2h-.6V0L19.8.1l.3,9.9h.4v.4h.4v.4h.4v.4h.4v.4h.4V12h.3l.1.5h.3v.4h.4v.4h.3v.4h.4v.5h.3v.4h.3v.5h.3v.5H25l.1.5h.2l.1.4h.3V17H26v.4h.3v.4h.2v.5h0v.4h0v.6h0v.5h.1l.1,7.7,4.6-.1v-.5h.1v-.5h0v-.5h.2l-.1-.4h.4l-.1-.5h.1Z"/>
  <path id="Path_19072" data-name="Path 19072" class="cls-1" d="M4.8,39.8h.7l4.9-.1h0l.5-.1h1.7v-.1h1.6v-.1h1.6v-.1h.1v.1h.6l4.6-.1L20.8,29h-.5v-.1h-.5v-.2H18.7v-.1h-.5v-.1l-.6.1v-.1h-.5v-.1l-.5.1v-.1H16l-4.8.1v.1H9l-.5.1H7.4l-3.2.1h0l-.5.1H3.1V29H2.6v.1H2.1v.1H1.5v.2H1v.1H.5v.2H0L.3,39.9Z"/>
  <path id="Path_19073" data-name="Path 19073" class="cls-1" d="M26.8,48.7l-4.7.1v.1h-.5V49H21v.1h-.5v.2H20v.1l-.6.1v.1l-.5.1v.2h-.5v.2h-.5v.2h-.5v.2h-.5v.2h-.5v.2h-.5v.2h-.5l.1.2h-.6l.1.3h-.5v.2H14V52h-.5v.2H13v.2l-.5.1v.2H12v.2h-.5v.2H11v.2h-.5v.3H10v.2H9.5V54H9v.2H8.5v.2l-.5.1v.2H7.5v.2H7.1v.2H6.6v.2H6.1v.3H5.6v.2H5.1V56H4.6v.2H4.1v.3H3.6v.3H3.2V57H2.7v.3H2.2v.3H1.8v.5H1.4l.2,10.4,4.7-.1v-.3h.4v-.3h.5v-.2h.5v-.2h.5v-.3h.5v-.2h.5v-.1l.5-.1v-.1h.5v-.2h.5v-.2h.5v-.3h.5v-.2h.5v-.2h.5v-.2l.5-.1V65h.5v-.2h.5l-.1-.2h.5v-.3h.5v-.2h.5v-.2h.5v-.2l.5-.1v-.2h.5v-.2h.5V63h.5v-.3h.5v-.2h.5v-.2h.4v-.2L20,62v-.2h.5v-.2H21v-.2h.5v-.2H22V61h.5v-.2l.5-.1v-.2h.5v-.2H24v-.2h.5v-.2H25v-.2h.5v-.2H26v-.2h.5v-.1l.5-.1Z"/>
  <path id="Path_19074" data-name="Path 19074" class="cls-1" d="M201.6,30.1h.5l-.3-10.5-4.6.1v.1h-.6v.1l-.5.1h-.6l.1.1H195v.1h-.5v.1h-.6v.1h-.5l-.5.1h-.6v.1h-.5v.1h-.5v.1h-.6l-.5.1h-.5V21h-.6v.1h-.5v.1h-.5v.1h-.6l-.5.1h-.5v.1h-.6v.1h-.5v.1h-.5l-.6.1h-.5v.1h-.5l-.6.1h-.5v.1h-.5v.1h-1.1v.1h-.5v.1H179v.1h-.5v.1h-.6l.3,10.2,4.6-.1h.5l.6-.1h1v-.1H186v-.1h1.7v-.1h1.6v-.1h.6v-.1h.5V32h1.1v-.1h.5v-.1h.5v-.1h.6l.5-.1h.5v-.1h.6v-.1h.5v-.1h1.1v-.1h.5v-.1h.6V31h.5l.5-.1h.6v-.1h.5v-.1h.5v-.1h.6l.5-.1v-.2h.5Z"/>
  <path id="Path_19075" data-name="Path 19075" class="cls-1" d="M200.1,42.2H199v-.1h-.5V42H198v-.1h-.6v-.1h-.5v-.1h-.5v-.1h-.5v-.1h-.6v-.1h-.5v-.2l-.5.1v-.2h-.6V41h-.5v-.1h-.5v-.1h-.5v-.2h-.6v-.1h-.5v-.1h-.5v-.1H190v-.2l-.5.1V40H189v-.1h-.5v-.2h-.6v-.1h-.5v-.2h-.5v-.2l-.5.1v-.2h-.6V39h-.5v-.2l-.5.1v-.2h-.6v-.1l-4.4.1.3,9.9h.5v.2l.5-.1v.2h.5v.2h.5v.2h.5v.1h.5v.3l.5-.1v.3h.5v.3h.5v.2h.5v.2h.5v.1h.6v.2l.5-.1V51h.5v.1h.5v.2l.6-.1v.2h.5v.1h.5v.2l.5-.1v.2h.5l.1.1h.5V52h.5v.2h.5v.1h.6v.1h1.1v.1h1.6l4.6-.1h.5Z"/>
  <path id="Path_19076" data-name="Path 19076" class="cls-1" d="M186.7,58.4v-.3h-.5v-.3h-.4v-.4h-.4V57l-.4.1v-.4h-.4v-.4h-.4V56h-.4v-.4h-.4v-.4H183v-.3h-.4v-.4h-.4v-.4l-.4.1v-.4h-.4v-.4H181v-.3h-.4v-.4h-.4v-.4l-.4.1V52h-.4v-.4H179v-.3h-.4v-.4L174,51l.3,10.3h.3l.1.4h.3l.1.4h.3v.4h.4v.3h.4v.4h.4v.4h.4V64h.4v.4l.4-.1v.4h.4v.4h.4v.4h.4v.4h.3l.1.4h.3v.4h.4v.4h.4v.4l.4-.1v.4h.4v.4h.4v.3h.5v.3h.5V69l4.7-.1-.3-10.5Z"/>
</svg>
