<svg xmlns="http://www.w3.org/2000/svg" xmlns:xlink="http://www.w3.org/1999/xlink" viewBox="1618 1160 598 263.4">
  <defs>
    <style>
      .cls-1 {
        clip-path: url(#clip-path);
      }

      .cls-2, .cls-3 {
        stroke: #000;
        stroke-miterlimit: 10;
      }

      .cls-3 {
        fill: none;
      }
    </style>
    <clipPath id="clip-path">
      <rect id="Rectangle_20" data-name="Rectangle 20" width="598" height="261.3" transform="translate(197.5 52.6)"/>
    </clipPath>
  </defs>
  <g id="Designer_and_Engineer_working" data-name="Designer and Engineer working" transform="translate(1420.5 1107.4)">
    <g id="Group_33" data-name="Group 33">
      <g id="Group_32" data-name="Group 32" class="cls-1">
        <g id="Group_28" data-name="Group 28">
          <path id="Path_290" data-name="Path 290" class="cls-2" d="M331.1,163.2c-.3.9-.6,1.9-.9,2.8a6.9,6.9,0,0,0-.3-3.5,9.128,9.128,0,0,0-.8,1.3c.9-2.7-.7-5.7-2.8-7.7a4,4,0,0,0-2.8-1.4,3.7,3.7,0,0,0-2.2,1.2,14.632,14.632,0,0,0-4.2,6.4,10.238,10.238,0,0,0,.6,7.5c.6,1,1.4,2.1,1.2,3.3a2.706,2.706,0,0,1-1.6,2,11.224,11.224,0,0,1-2.6.8c-2.6.6-2.1,3.7-4.1,5.4a16.325,16.325,0,0,0-4.4,6.5c.2-2.8-3.5-7.9-4.5-10.5a36.033,36.033,0,0,0-3.9-6.9c-.5-.8-1-1.5-1.5-2.3a19.855,19.855,0,0,1-2.6-5,6.823,6.823,0,0,1-.1-4,15.354,15.354,0,0,0,.2-4.3,4.508,4.508,0,0,0-1,1.4,1.962,1.962,0,0,1,.1-1.5,18.256,18.256,0,0,1,4.6-8.8,8.5,8.5,0,0,0-2.7,2.3,20.066,20.066,0,0,1,3.8-5.8c-1.2.5-2.4,1-3.5,1.5a48.981,48.981,0,0,1,8.7-7.7,20.048,20.048,0,0,0-3.7,2.2,20.563,20.563,0,0,1,4.2-4.6,7.94,7.94,0,0,0-2.7,1,34.189,34.189,0,0,1,9.9-5c2.4-.8,3.4-3.2,5.5-4.7,2.5-1.8,5.7-2.3,8.7-2.7a5.946,5.946,0,0,1,3.5.2c.5.3,1,.7,1.5,1a6.1,6.1,0,0,0,5.7.5,10.07,10.07,0,0,1-5.2,2.2,56.186,56.186,0,0,1,9.2-.8,17.482,17.482,0,0,1-2.9,1.8,47.315,47.315,0,0,0,9.2,1.2,6.812,6.812,0,0,0-2.8.7,49.3,49.3,0,0,0,11.5,1.1c-1.2.5-2.5.9-3.7,1.4,2.5,0,5.1.1,7.6.1a8.981,8.981,0,0,0-4.4,1.8,16.32,16.32,0,0,0,6.6,1,10.327,10.327,0,0,0-2.1,2.5c.9-.3,1.7-.5,2.6-.8a7.218,7.218,0,0,0-.9,2,2.894,2.894,0,0,0,1.6-.9,3.542,3.542,0,0,0,.4,3,6.632,6.632,0,0,0,.9-1.9,15.437,15.437,0,0,0-1.1,6.4c.7-1,1.3-2.1,2-3.1a25.678,25.678,0,0,1-2,5.9,4.923,4.923,0,0,1-1,1.5,5.119,5.119,0,0,1-2.1,1c-5,1.1-9.9-1.7-14.6-3.8a2.663,2.663,0,0,0-1.2-.3.86.86,0,0,0-.8.8,2.118,2.118,0,0,0,.3.7c1.3,2,.7,4.7-.6,6.6s-3.4,3.2-5.3,4.6A35.38,35.38,0,0,0,331.1,163.2Z"/>
          <path id="Path_291" data-name="Path 291" class="cls-3" d="M326.9,158.5a3.646,3.646,0,0,0-4.1-1.7,5.251,5.251,0,0,0-3.5,3,10.6,10.6,0,0,0-1,4.6c-.1,3,.5,6.4,3,8.1a.725.725,0,0,0,1,0c.6-.5,1.2-1,1.8-1.6"/>
          <path id="Path_292" data-name="Path 292" class="cls-3" d="M325.4,159.6a2.559,2.559,0,0,0-2.9-.1,4.206,4.206,0,0,0-1.8,2.5,11,11,0,0,0-.4,3.1,7.412,7.412,0,0,0,.1,2.1.918.918,0,0,0,.4.6"/>
          <path id="Path_293" data-name="Path 293" class="cls-3" d="M323.4,160.6a5.423,5.423,0,0,1,1.5,2.9,9.149,9.149,0,0,1,0,3.3,1.984,1.984,0,0,1-.6,1.3"/>
          <path id="Path_294" data-name="Path 294" class="cls-3" d="M323.3,164.7a3.8,3.8,0,0,0-.8,4.5"/>
        </g>
        <g id="Group_29" data-name="Group 29">
          <path id="Path_295" data-name="Path 295" class="cls-3" d="M357.7,144.8a53.458,53.458,0,0,1,.5,17.4,5.462,5.462,0,0,0-.1,1.8,9.971,9.971,0,0,1,.2,1.6,3.947,3.947,0,0,1-1.2,2.5,3.528,3.528,0,0,0-.8,1.3,1.986,1.986,0,0,0,.1,1.1,49.434,49.434,0,0,1,1.6,10.1,2.2,2.2,0,0,1-.1.8,1.275,1.275,0,0,1-.7.5,13.3,13.3,0,0,1-4.5.8,3.223,3.223,0,0,1-2.1-.6,1.434,1.434,0,0,1-.2-2"/>
          <path id="Path_296" data-name="Path 296" class="cls-3" d="M318.1,184a15.6,15.6,0,0,1,3,2.7,18.762,18.762,0,0,1,1.2,1.8,22.067,22.067,0,0,0,5.7,6.1,12.431,12.431,0,0,0,7.9,2.3,8.271,8.271,0,0,0,6.8-4.2c.5-.9.9-2,1.8-2.4a8.2,8.2,0,0,1,2.2-.2,2.477,2.477,0,0,0,1.7-3.2"/>
          <path id="Path_297" data-name="Path 297" class="cls-3" d="M342.2,186.4a20.292,20.292,0,0,0,6.5.7,1.943,1.943,0,0,0,1.3-.3c.2-.1.3-.4.5-.6.9-1.3,1.8-2.6,2.8-3.9"/>
          <path id="Path_298" data-name="Path 298" class="cls-3" d="M346.1,161c.3.1.6.1.8.2,2.1.5,4.3,3.1,6.4,3.6.8.2,2.1.4,2,.4"/>
          <path id="Path_299" data-name="Path 299" class="cls-3" d="M346.9,165c.9.3,1.9.6,2.8.9a16.9,16.9,0,0,1,3.7,1.5.215.215,0,0,1-.2.2"/>
          <path id="Path_300" data-name="Path 300" class="cls-2" d="M352.7,167.1a8.214,8.214,0,0,1-1.6,2.5c-.3.3-.7.6-1,.4a.952.952,0,0,1-.2-.7c.1-.9.2-1.9.3-2.8"/>
        </g>
        <path id="Path_301" data-name="Path 301" class="cls-3" d="M309.6,172.7a3.223,3.223,0,0,1,.6,2.1c.3,6.2.5,12.7-2.2,18.2"/>
        <path id="Path_302" data-name="Path 302" class="cls-3" d="M334.3,207.9a42.53,42.53,0,0,1,3.6,13.1c-3.9-2.5-7.8-5.1-11.8-7.6a47.536,47.536,0,0,0-8.5-4.8,26.208,26.208,0,0,0-18.7-.4c1.8-5.4,3.6-10.7,5.4-16.1,2.6.7,5.2,1.1,7.7,2.3a33.763,33.763,0,0,1,4.1,2.4C322.3,200.4,328.2,204.1,334.3,207.9Z"/>
        <path id="Path_303" data-name="Path 303" class="cls-3" d="M475.5,309.6a12.678,12.678,0,0,0,3.4-.3c3.2-1,5-4.3,6.6-7.2,10.4-19,25.5-34.3,35.5-53.4-.6-1.4-2.9-1.1-2.9-1.1s-2.6,2.2-3.3,3C504,262,489,283.8,476.9,301a6.558,6.558,0,0,1-1.8,1.9,6.348,6.348,0,0,1-3.1.5c-17.8-.5-61.4,2.8-61.4,2.8l-1,3.6s26.2,0,35.3-.1C455.1,309.7,465.3,309.7,475.5,309.6Z"/>
        <path id="Path_304" data-name="Path 304" class="cls-3" d="M301,207.5a65.98,65.98,0,0,0-9.7,17.9c-7.8,22-3.5,46.2-4.8,69.4a198.7,198.7,0,0,1-4.7,31.7c-.8,3.7-1.5,8.3,1.3,10.9,2.6,2.4,6.8,1.7,10.3.8,4.6-1.2,9.2-2.4,13.9-3.6a106.186,106.186,0,0,1,13.6-2.9,51.323,51.323,0,0,1,31.8,6.7c2.3-13.6-5.5-24.8-1.8-38.1"/>
        <path id="Path_305" data-name="Path 305" class="cls-3" d="M336.3,219.9c.2,6.3,4.8,13.2,7,19.1,2.9,7.8,5,18.8,6.3,27"/>
        <path id="Path_306" data-name="Path 306" class="cls-3" d="M331,195.6a41.385,41.385,0,0,0-.1,9.3"/>
        <path id="Path_307" data-name="Path 307" class="cls-3" d="M300.6,229.9c-.1,10.2,6.1,19.3,12.1,27.6,2.8,3.8,5.6,7.6,8.5,11.3a293.674,293.674,0,0,0,20,21.7c2.7,2.8,5.5,5.6,8.2,8.4,1.9,2,3.9,4,6.5,4.9a15.961,15.961,0,0,0,7.2.6c21-1.6,41.3-12.6,62.1-9.2,6,1,12.3,3.1,18.1,1.3,1.1-.3,2.4-.8,3.4-.2,1.8,1.2.5,4.4,2.1,5.8a9.759,9.759,0,0,0,3.8-.2c-.4-3-.7-6-1.1-8.9a5.141,5.141,0,0,0-1-3,4.79,4.79,0,0,0-3.3-1.2c-10.1-1.2-20.1-2.5-30.2-3.7-14.5-1.8-29.4-3.5-43.4.7-2.5.8-5,1.7-7.6,1.6-4.5-.1-8.4-3.3-10.9-7.1s-3.7-8.2-5.4-12.3c-5.4-13.9-15-25.8-26-36"/>
        <path id="Path_308" data-name="Path 308" class="cls-3" d="M285.6,338.5c-.7,14.2-1.4,29.5-2.1,43.7a7.067,7.067,0,0,0,.2,2.5c.9,2.4,4.1,2.8,6.7,2.7,12-.3,24.1-.7,36.1-1,10.9-.3,22-.6,32.3,2.9,6.9,2.3,13.2,6.2,20.2,8.3a38.523,38.523,0,0,0,17.2,1,4.146,4.146,0,0,1,2.7.2c1.2.7,1.3,2.3,1.2,3.7-.6,18.2-1.1,36.4-1.7,54.5-.1,4.1.1,9,3.4,11.4,2.1,1.5,4.8,1.6,7.3,1.6l24.7.6a3.574,3.574,0,0,0,2.3-.5c.8-.6.8-1.8.8-2.8,0-17.9.1-35.7.1-53.6,0-8.2,0-16.5-1.7-24.6-1.8-8-5.4-15.9-11.7-21.2-4.5-3.9-10.1-6.2-15.7-8.4-9.7-4-19.5-8-29.2-12a276.687,276.687,0,0,0-26.5-9.2"/>
        <path id="Path_309" data-name="Path 309" class="cls-3" d="M284.8,386.5a13.474,13.474,0,0,0-7.7-3.4c-4.1-.1-7.7,3-9.6,6.6-1.8,3.7-2.2,7.9-2.6,11.9q-2.55,28.05-5.1,56c-.4,4-.7,8.2.2,12.1s3.3,7.8,7.1,9.3c2.3,1,4.9,1,7.4,1,21,.5,42.1,4.2,63,2.2,2.2-.2,4.5-.6,5.9-2.3,1.6-2,1.2-4.8,1.2-7.4.1-4.1,1.8-7.9,2.7-11.9a72.228,72.228,0,0,0,1.4-10.4c1.4-18.9,2-37.8,1.7-56.7a12.2,12.2,0,0,0-.7-4.7,4.247,4.247,0,0,0-3.6-2.7"/>
        <path id="Path_310" data-name="Path 310" d="M410.2,309.7a82.527,82.527,0,0,0-29.3,1.2,66.48,66.48,0,0,0-.8,20.4,92.442,92.442,0,0,1,25.2.5q-2.25,73.8-1.1,147.5a12.711,12.711,0,0,0,1,5.8c1.6,3,5.6,4.2,9,3.6s6.4-2.6,9.3-4.5A951.083,951.083,0,0,1,419.4,342a13.281,13.281,0,0,1,1.2-5.9c2.7-4.7,9.4-4.3,14.7-3.7,20.9,2.4,41.9-.8,62.9-2.4,42.7-3.3,85.7,0,128.4,3.2a782.5,782.5,0,0,1,1.6,141.1c-.8,9.9-1.7,19.9-.1,29.7a7.841,7.841,0,0,0,1.7,4.2c1.9,2,5.1,1.7,7.8,1.2,5.4-.9,2.4-2,5.1-6.8a19.424,19.424,0,0,0,1.8-7.9c4.1-54.6-1-108.9,3.3-164.3,6.3,0,12.6-.1,18.9-.1,1.5,0,3.2-.1,4.2-1.3.8-.9.8-2.3.8-3.5v-14c-47.6-4.3-95.5-.7-143.2-.9-13.4-.1-26.9-.4-40.3-1.1a61.092,61.092,0,0,1-8.6-.8c-.3-.1-.6-.1-.9-.2"/>
        <path id="Path_311" data-name="Path 311" class="cls-3" d="M637.8,164.9a4.073,4.073,0,0,1,3.8-3.1,6.345,6.345,0,0,1,4.7,2,13.074,13.074,0,0,1,2.6,4.6c1.1,3.2,1.4,7-.6,9.6-.1.1-.2.3-.4.4a.661.661,0,0,1-.6-.1,13.444,13.444,0,0,1-2.4-1.2"/>
        <path id="Path_312" data-name="Path 312" class="cls-3" d="M639.8,165.6a2.855,2.855,0,0,1,3.1-1,4.7,4.7,0,0,1,2.7,2.1,18.256,18.256,0,0,1,1.4,3.2,5.852,5.852,0,0,1,.5,2.2.829.829,0,0,1-.3.8"/>
        <path id="Path_313" data-name="Path 313" class="cls-3" d="M642.2,166.1a6.147,6.147,0,0,0-.7,3.5,10.8,10.8,0,0,0,1,3.5,2,2,0,0,0,1,1.2"/>
        <path id="Path_314" data-name="Path 314" class="cls-3" d="M642.8,171a4.156,4.156,0,0,1,2.3,4.5"/>
        <path id="Path_315" data-name="Path 315" class="cls-3" d="M601,166.1a58.687,58.687,0,0,0,7,18.1,10.087,10.087,0,0,1,.9,1.8,12.093,12.093,0,0,0,.5,1.8,4.536,4.536,0,0,0,2.4,2.1,2.806,2.806,0,0,1,1.4,1c.2.4.1.9.3,1.2,1.9,3.3,2.4,7.2,2.8,11.1a.752.752,0,0,0,.5.7,1.486,1.486,0,0,0,.9.2,11.7,11.7,0,0,0,4.9-1.1,3.754,3.754,0,0,0,1.9-1.6,1.5,1.5,0,0,0-.7-2.1"/>
        <path id="Path_316" data-name="Path 316" class="cls-3" d="M658.8,189.5c-.8,1.3-4.9,10.1-6.6,12.7s-4.8,6.2-6.2,8.4c-1.2,1.9-2.3,4.3-8.9-1.4-.9-.7-1.8-1.7-2.9-1.6-.8,0-1.5.6-2.4.7a2.718,2.718,0,0,1-3.1-2.6"/>
        <path id="Path_317" data-name="Path 317" class="cls-3" d="M635,202.4a26.95,26.95,0,0,1-6.4,3.6,2,2,0,0,1-1.5.2,1.612,1.612,0,0,1-.7-.4c-1.5-.9-3-1.9-4.5-2.8"/>
        <path id="Path_318" data-name="Path 318" class="cls-3" d="M619.9,177.9c-.3.2-.5.4-.8.6-2,1.4-4,2.9-6,4.3a3.177,3.177,0,0,0-1.6,2c0,.2,0,.4.2.4"/>
        <path id="Path_319" data-name="Path 319" class="cls-3" d="M620.8,182.4c-.8.7-1.7,1.4-2.5,2.1a18.184,18.184,0,0,0-3.1,3.1.367.367,0,0,0,.3.1"/>
        <path id="Path_320" data-name="Path 320" class="cls-2" d="M615.7,186.9a10.148,10.148,0,0,0,2.7,1.9c.4.2,1,.3,1.2-.1a1.063,1.063,0,0,0-.1-.8c-.5-.9-1-1.9-1.5-2.8"/>
        <path id="Path_321" data-name="Path 321" class="cls-3" d="M672.6,167.9A37.475,37.475,0,0,0,680,173"/>
        <path id="Path_322" data-name="Path 322" class="cls-2" d="M599.6,180c.9,1.4,2,2.9,3.7,3.2,2.2.4,4.1-1.4,5.6-3.1,2.6-2.9,5.2-5.8,7.8-8.6,1.7-1.9,3.9-4,6.4-3.7a7.76,7.76,0,0,1,4.3,2.6A257.489,257.489,0,0,1,645.8,191c-3.3-7.6-6.5-15.2-9.8-22.7-1-2.4-2.1-5.2-1.1-7.6,1.1-2.7,4.6-3.9,7.4-3.1a11.015,11.015,0,0,1,6.4,5.6,56.831,56.831,0,0,1,3.2,8.1,56.636,56.636,0,0,0,12.7,20.3,19.984,19.984,0,0,1,.7-6.4c7.9,4.1,11.2,20.7,20,22.2,8.9,1.6,13.1,8.7,21.5,12-1.8-3.1-.7-11.1-1.6-14.7-2.3-9-14.9-26.1-21.1-30.5-11.9-8.5-13.4-36.7-26.1-43.8a56.369,56.369,0,0,0-14.4-5.2c-2.9-.7-6.7-1-8.2,1.6-6.9-2.7-15-.7-21.1,3.4a48.4,48.4,0,0,0-10.2,9.5c-2.1,2.4-4.5,4.9-5.9,7.8a34.387,34.387,0,0,0-2.7,21.2A30.13,30.13,0,0,0,599.6,180Z"/>
        <path id="Path_323" data-name="Path 323" class="cls-3" d="M651.2,203.8c.7,2.3,1.3,4.7,2,7a62.543,62.543,0,0,1,1.6,6.2c.6,3.3.7,6.7,1.5,10"/>
        <path id="Path_324" data-name="Path 324" class="cls-3" d="M611.8,231c1.2.9,3.8,1.3,5.3,1.6,2.5.5,4.9,1,7.4,1.5,1.8.4,3.9.7,5.3-.6a5.293,5.293,0,0,0,1.3-2.3c1.1-3,2-6.2,4.1-8.6,1-1.1,2.1-2.1,3-3.2a5.226,5.226,0,0,0,1.3-4.1,6.059,6.059,0,0,0-1.1-2.1,8.138,8.138,0,0,0-4-2.8c-2.7-.9-6.3-1.6-9-.6-3.6,1.3-6.2,4.5-9.6,6.2-1.7,1.3-3.4,2.7-4.2,4.6a12.475,12.475,0,0,0-.8,5.4,8.049,8.049,0,0,0,.5,3.4A59.454,59.454,0,0,1,615,237c1.2,3.5,2.2,7.1,3.1,10.7a147.9,147.9,0,0,1,3.8,22.1c.6,6.9.8,13.7.9,20.6.1,3.1.1,6.3.2,9.4.1,3.3.5,7.2,3.5,8.7a9.475,9.475,0,0,0,2.9.7c3.7.6,7.3,1.7,11,1.9s7.7-.6,10.3-3.2a18.051,18.051,0,0,0,2.9-4.3,208.444,208.444,0,0,1,22.2-32.1c6-7.2,12.6-14.1,17-22.3"/>
        <path id="Path_325" data-name="Path 325" class="cls-3" d="M667.3,238.5c-9.6,16.6-19,34-26.1,51.8"/>
        <path id="Path_326" data-name="Path 326" class="cls-3" d="M627.6,234.1a599.444,599.444,0,0,1,14.9,63.3"/>
        <path id="Path_327" data-name="Path 327" class="cls-3" d="M585.3,288c-.8-.1-1.6-.3-2.3-.4-7.1-1.1-8.9,12.4-9.5,17.6a3.042,3.042,0,0,0,.3,2.1,2.94,2.94,0,0,0,2.2.9,74.852,74.852,0,0,0,16.4-.4,4,4,0,0,0,2.9-1.2,3.594,3.594,0,0,0,.7-1.8,107.365,107.365,0,0,0,2.2-11.3c0,.4-6.1-2.9-6.6-3.2-1.2-.6-5.9-1.6-6.4-2.5-.9-1.4,1.6-7,2.1-8.6.9-3.4,1.9-6.8,2.8-10.1a4.953,4.953,0,0,1,1.6-2.8,4.441,4.441,0,0,1,3.4-.1c.2,1.7-.6,3.3-1.3,4.8a57.176,57.176,0,0,0-5,17.6"/>
        <path id="Path_328" data-name="Path 328" class="cls-3" d="M655.8,226.5c-1.6,8.3-3.2,16.5-4.5,24.8-.8,5.1-1.6,10.3-.8,15.4a.55.55,0,0,0,.3.5c.2,0,.3-.4.1-.3"/>
        <path id="Path_329" data-name="Path 329" class="cls-3" d="M589.3,289.3c5.1,1.3,10.4,1.2,15.7,1.1a8.061,8.061,0,0,0,3.8-.7,9.924,9.924,0,0,0,2.4-2.6c3.4-4.4,9.5-7.1,10.9-12.5"/>
        <path id="Path_330" data-name="Path 330" class="cls-3" d="M595.1,305.2c-.3.1.2.3.4.2a11.87,11.87,0,0,1,5.3-.9c7.5,0,15-.1,22.5-.1a1.2,1.2,0,0,1-.5.5"/>
        <path id="Path_331" data-name="Path 331" class="cls-3" d="M634.8,260.7a256.576,256.576,0,0,0,21-35.3"/>
        <path id="Path_332" data-name="Path 332" class="cls-3" d="M701,216.3c2.9,2,4.4,5.5,5,9s.2,7,.1,10.5a68.072,68.072,0,0,0,2.3,21.1c5,17,18.2,30.2,31.2,42.3s26.9,24.2,33.9,40.5c3.3,7.7,4.9,16.4,3.1,24.5-1.8,8.2-7.4,15.8-15.3,18.6-7.8,2.8-16.4.9-24.6,2.1"/>
        <path id="Path_333" data-name="Path 333" class="cls-3" d="M664.6,286.6c3.2,5,6.5,10,9.7,15,8.1,12.6,16.3,25.1,25.8,36.6"/>
        <path id="Path_334" data-name="Path 334" class="cls-3" d="M717.7,334.1a161.21,161.21,0,0,0-63.4,22.1c-5.1,3.1-10.2,6.6-13.3,11.6"/>
        <path id="Path_335" data-name="Path 335" class="cls-3" d="M737.8,384.6a359.929,359.929,0,0,0-62.4,12.8c-9.5,2.9-26.5,6.6-32.3,14.6"/>
        <path id="Path_336" data-name="Path 336" class="cls-3" d="M687.8,466.7c-1.3-16.4-.8-32.9-.2-49.3.1-2.7.2-5.3.3-8,.1-4,.3-8,.4-12,0-1.3.2-2.7,1.2-3.4a3.806,3.806,0,0,1,1.5-.5c3.4-.7,6.7-1.3,10.1-2,7.7-1.5,15.4-3.1,23.2-4,9.6-1.1,19.3-1.3,29-1.5,5.8-.1,11.6-.2,17.4.2,1.9.1,4,.4,5.1,1.9a7.3,7.3,0,0,1,1.1,3.8,521.708,521.708,0,0,1,.2,86.6"/>
        <path id="Path_337" data-name="Path 337" class="cls-3" d="M654.8,232.9a41.375,41.375,0,0,0,8-9.2c2.7-4.1,4.6-8.6,7.4-12.6s6.6-7.7,11.3-8.8"/>
        <path id="Path_338" data-name="Path 338" class="cls-3" d="M698,335.5a450.189,450.189,0,0,0,44.2-11.9c5.3-1.7,10.9-3.7,14.5-8"/>
        <g id="Group_31" data-name="Group 31">
          <path id="Path_339" data-name="Path 339" class="cls-3" d="M578.5,185.4c-9.2-1.8-6.7-18-6.7-18l-1.1.6A39,39,0,0,0,581,153.9c5.6-13.3,2.1-29.2-6.6-40.7s-21.9-18.8-35.7-23c-18.3-5.5-37.4-5.6-56.3-7.9-16.3-2-31.6.1-47.1,5.5-11.7,4.1-23.1,9.4-32.5,17.4s-16.8,18.8-18.9,31c-1.9,10.9.9,22.9,8.2,31.1,0,0,2.5,16.1-6.7,18-9.2,1.8-7.6,2.4,7,3.9,14.6,1.6,24.9-8.7,24.9-8.7a248.554,248.554,0,0,0,116.6,3.4c4.3-.9,8.6-2,12.8-3.3,1.3,1.3,11.2,10,24.7,8.6C586.1,187.7,587.7,187.2,578.5,185.4Z"/>
          <g id="Group_30" data-name="Group 30">
            <path id="Path_340" data-name="Path 340" d="M436.9,116.8c-.1-.4-.7-.4-1.1-.3-1.8.3-3.6-.3-5.4-.4a19.219,19.219,0,0,0-2.4,0l-16.3.3c0,.7-.1,2.2-.1,2.2-.1,2.3,0,4.6,0,6.8,0,3.6,0,7.2.1,10.8,0,4,.1,7.9.1,11.9,0,3.1.1,6.1.1,9.2a1.077,1.077,0,0,0,.2.8c.4.6,10.6-.1,12.4.1,1.2.1,2.5.4,3.7.6a33.05,33.05,0,0,0,8.3-.4c.2-12.7.4-25.5.6-38.2v-1.5h0a8.6,8.6,0,0,1,.1-1.6C436.9,117,436.9,116.9,436.9,116.8Z"/>
            <path id="Path_341" data-name="Path 341" d="M470.8,116.8c.1-.4.7-.4,1.1-.3,1.8.3,3.6-.3,5.4-.4a19.219,19.219,0,0,1,2.4,0l16.3.3c0,.7.1,2.2.1,2.2.1,2.3,0,4.6,0,6.8,0,3.6,0,7.2-.1,10.8,0,4-.1,7.9-.1,11.9,0,3.1-.1,6.1-.1,9.2a1.077,1.077,0,0,1-.2.8c-.4.6-10.6-.1-12.4.1-1.2.1-2.5.4-3.7.6a33.05,33.05,0,0,1-8.3-.4c-.2-12.7-.4-25.5-.6-38.2v-1.5h0a8.6,8.6,0,0,0-.1-1.6C470.8,117,470.8,116.9,470.8,116.8Z"/>
            <path id="Path_342" data-name="Path 342" d="M552.6,116.8c-.1-.4-.7-.4-1.1-.3-1.8.3-3.6-.3-5.4-.4a19.219,19.219,0,0,0-2.4,0l-16.3.3c0,.7-.1,2.2-.1,2.2-.1,2.3,0,4.6,0,6.8,0,3.6,0,7.2.1,10.8,0,4,.1,7.9.1,11.9,0,3.1.1,6.1.1,9.2a1.077,1.077,0,0,0,.2.8c.4.6,10.6-.1,12.4.1,1.2.1,2.5.4,3.7.6a33.05,33.05,0,0,0,8.3-.4c.2-12.7.4-25.5.6-38.2v-1.5h0a8.6,8.6,0,0,1,.1-1.6C552.6,117,552.6,116.9,552.6,116.8Z"/>
            <path id="Path_343" data-name="Path 343" class="cls-3" d="M450.4,139.4c0,.2,0,.4-.2.5-.1.1-.2.1-.4.1-1,.1-2.1.1-3.1.2a.6.6,0,0,0-.4.1.367.367,0,0,0-.1.3c0,.6-.1,1.2-.1,1.8,1.1,0,2.3.1,3.4.1a1.4,1.4,0,0,1,.9.3.749.749,0,0,1,.1.5c.1,1.4.1,2.8.2,4.1h2.6l-.3-5.1a14.007,14.007,0,0,0,4.1-.1,19.267,19.267,0,0,1,.1-2.4c-1.4,0-2.8-.1-4.2-.1a28.277,28.277,0,0,0,.3-4.1,15.063,15.063,0,0,0-3,.1A36.6,36.6,0,0,1,450.4,139.4Z"/>
            <path id="Path_344" data-name="Path 344" class="cls-3" d="M513.7,154.4c2.2-2.9-1.9-7.1-4.4-4C506.5,153.9,511.1,158,513.7,154.4Z"/>
          </g>
        </g>
      </g>
    </g>
    <rect id="Rectangle_21" data-name="Rectangle 21" width="472.4" height="2" transform="translate(283.6 314)"/>
  </g>
</svg>
