<svg xmlns="http://www.w3.org/2000/svg" viewBox="1763.503 1189.702 346.065 244.331">
  <defs>
    <style>
      .cls-1, .cls-2 {
        stroke: #000;
        stroke-miterlimit: 10;
      }

      .cls-2 {
        fill: none;
      }
    </style>
  </defs>
  <g id="Thinking_SVGv2" data-name="Thinking SVGv2" transform="translate(1511.004 1037.064)">
    <g id="thinking" transform="translate(252.996 153.121)">
      <path id="Path_146" data-name="Path 146" class="cls-1" d="M322.793,366.974l.134,3.076a9.08,9.08,0,0,0-1.585-3.388l-.326,1.616c-.165-3.013-2.808-5.321-5.562-6.549a4.155,4.155,0,0,0-3.263-.357,4.3,4.3,0,0,0-1.786,2.009,14.914,14.914,0,0,0-1.745,7.825,10.606,10.606,0,0,0,3.379,7.165c.938.83,2.12,1.585,2.379,2.812a3.071,3.071,0,0,1-.862,2.589,10.964,10.964,0,0,1-2.232,1.714,15.457,15.457,0,0,0-8.035,13.99,20.665,20.665,0,0,0-4.375-7.767,41.168,41.168,0,0,0-6.379-5.415l-2.286-1.7a20.692,20.692,0,0,1-4.415-3.969,7.945,7.945,0,0,1-1.594-3.933,14.585,14.585,0,0,0-1.4-4.294,3.37,3.37,0,0,0-.446,1.745,2.4,2.4,0,0,1-.487-1.478,20.5,20.5,0,0,1,1.272-10.352,9.2,9.2,0,0,0-1.844,3.219,20.86,20.86,0,0,1,1.585-7.142l-2.951,2.745a54.839,54.839,0,0,1,5.692-10.839,20.859,20.859,0,0,0-2.817,3.469,20.685,20.685,0,0,1,2.486-6.138,7.552,7.552,0,0,0-2.33,2.036,38.35,38.35,0,0,1,7.941-8.638c2.067-1.652,2.21-4.464,3.723-6.629,1.857-2.678,4.776-4.357,7.629-5.9a6.509,6.509,0,0,1,3.5-1.085,13.72,13.72,0,0,1,1.83.415,6.455,6.455,0,0,0,5.8-1.634,10.571,10.571,0,0,1-4.317,4.085,56.589,56.589,0,0,1,8.767-4.16,13.731,13.731,0,0,1-2.232,2.857,53.247,53.247,0,0,0,9.566-2.192,7.736,7.736,0,0,0-2.527,1.75,56.792,56.792,0,0,0,11.78-3.125l-3.183,2.736,7.589-2.714a10.3,10.3,0,0,0-3.665,3.357,17.151,17.151,0,0,0,6.87-1.415,13.311,13.311,0,0,0-1.165,3.2l2.232-1.728a4.969,4.969,0,0,0-.125,2.29,3.536,3.536,0,0,0,1.25-1.424,3.71,3.71,0,0,0,1.54,2.8,6.222,6.222,0,0,0,.183-2.169,17.7,17.7,0,0,0,1.241,6.781l.79-3.839a25.894,25.894,0,0,1,.254,6.567,5.149,5.149,0,0,1-.4,1.786,4.518,4.518,0,0,1-1.728,1.75c-4.549,2.906-10.419,2-15.8,1.638a2.491,2.491,0,0,0-1.245.134.866.866,0,0,0-.5,1.031,1.423,1.423,0,0,0,.531.549c1.964,1.5,2.428,4.361,1.786,6.754a21.875,21.875,0,0,1-3.522,6.473C325.636,362.555,324.32,364.264,322.793,366.974Z" transform="translate(-267.929 -248.501)"/>
      <path id="Path_147" data-name="Path 147" class="cls-2" d="M353.937,410.435a3.951,3.951,0,0,0-4.651-.232,5.8,5.8,0,0,0-2.411,4.214,11.717,11.717,0,0,0,.665,4.91c.973,3.013,2.857,6.093,5.91,6.928a.691.691,0,0,0,.942-.4,14.934,14.934,0,0,0,1.134-2.268" transform="translate(-304.948 -295.086)"/>
      <path id="Path_148" data-name="Path 148" class="cls-2" d="M355.584,415.028a2.772,2.772,0,0,0-2.933.991,4.558,4.558,0,0,0-.857,3.125,13.309,13.309,0,0,0,.723,3.21,7.275,7.275,0,0,0,.862,2,.893.893,0,0,0,.665.446" transform="translate(-307.679 -298.059)"/>
      <path id="Path_149" data-name="Path 149" class="cls-2" d="M356.82,419.1a5.669,5.669,0,0,1,2.5,2.3,10.166,10.166,0,0,1,1.187,3.219,1.955,1.955,0,0,1-.1,1.469" transform="translate(-310.473 -300.368)"/>
      <path id="Path_150" data-name="Path 150" class="cls-2" d="M359.466,428.21a4.018,4.018,0,0,0,.812,4.714" transform="translate(-311.7 -305.411)"/>
      <path id="Path_151" data-name="Path 151" class="cls-2" d="M426.7,366.82a54.216,54.216,0,0,1,4.955,17.691,7.9,7.9,0,0,0,.33,1.857,17.14,17.14,0,0,1,.665,1.634,4.272,4.272,0,0,1-.616,2.9,2.96,2.96,0,0,0-.513,1.531,2.679,2.679,0,0,0,.446,1.12,46.429,46.429,0,0,1,4.183,9.95,1.433,1.433,0,0,1,.071.83,1.415,1.415,0,0,1-.589.665,11.919,11.919,0,0,1-4.375,1.924,3.513,3.513,0,0,1-2.326-.12,1.5,1.5,0,0,1-.71-1.991" transform="translate(-349.159 -271.425)"/>
      <path id="Path_152" data-name="Path 152" class="cls-2" d="M358.33,473.795a18.751,18.751,0,0,1,3.839,2.022,22.008,22.008,0,0,1,1.732,1.5,23.511,23.511,0,0,0,7.4,4.759,13.074,13.074,0,0,0,8.673.348,9.128,9.128,0,0,0,5.95-6.067c.272-1.049.4-2.272,1.277-2.9a15.706,15.706,0,0,1,2.187-.795,2.589,2.589,0,0,0,.893-3.745" transform="translate(-311.309 -327.948)"/>
      <path id="Path_153" data-name="Path 153" class="cls-2" d="M415.11,462.793a24.514,24.514,0,0,0,6.9-.92,2.388,2.388,0,0,0,1.259-.67,2.483,2.483,0,0,0,.357-.692l1.826-4.692" transform="translate(-342.743 -320.696)"/>
      <path id="Path_154" data-name="Path 154" class="cls-2" d="M409.58,410.677h.915l6.955-.107a3.214,3.214,0,0,1,2.353.594c.116.116.2.326.071.415" transform="translate(-339.681 -295.645)"/>
      <path id="Path_155" data-name="Path 155" class="cls-2" d="M413.75,419.59l3.1.2a17.676,17.676,0,0,1,4.143.594.312.312,0,0,1-.165.272" transform="translate(-341.99 -300.639)"/>
      <path id="Path_156" data-name="Path 156" class="cls-2" d="M367.238,490.1a16.492,16.492,0,0,0-1.54,2.232c-.478.83-.893,1.7-1.286,2.567l-1.536,3.3a17.057,17.057,0,0,0-1.9,5.8" transform="translate(-312.776 -339.673)"/>
      <path id="Path_157" data-name="Path 157" class="cls-1" d="M424.754,420.826a10.611,10.611,0,0,1-.946,2.982c-.187.384-.571.817-.955.634-.254-.116-.326-.446-.366-.719l-.446-2.973" transform="translate(-346.579 -301.281)"/>
      <path id="Path_158" data-name="Path 158" class="cls-2" d="M304.348,460.72a37.821,37.821,0,0,1-2.678,8.013" transform="translate(-279.942 -323.409)"/>
      <path id="Path_159" data-name="Path 159" class="cls-2" d="M331.973,571.232q-.982-11.4-1.973-22.8a81.259,81.259,0,0,0-1.272-9.968c-.482-2.272-1.156-4.5-1.83-6.723l-4.089-13.486q-1-3.308-2-6.611c-.562-1.862-.853-2.844-2.638-3.906-1.384-.817-3.125-.893-4.491-1.719a13.274,13.274,0,0,1-2.607-2.424c-3.451-3.535-8.361-5.134-12.718-7.459-3.852-2.062-8.013-4.884-10.673-8.415-1.42-1.888-1.183-3.018-.071-4.946a31.478,31.478,0,0,0,2.888-6.428,1.571,1.571,0,0,1,.674-1.045c.616-.277,1.245.339,1.629.893a10.476,10.476,0,0,0,2.232,2.616,27.983,27.983,0,0,0,2.638,1.388,18.948,18.948,0,0,1,3.477,2.821c4.464,4.107,9.673,7.294,14.847,10.455l3.321,2.031a7.031,7.031,0,0,1,2.3,1.906,6.9,6.9,0,0,1,.893,2.879q.893,6.026,1.223,12.12l-3.308-2.857" transform="translate(-271.65 -331.445)"/>
      <path id="Path_160" data-name="Path 160" class="cls-2" d="M381.769,619.335q.188-13.535-.781-27.047c-.6-8.388-1.585-16.918-5.076-24.552a39.948,39.948,0,0,0-4.852-7.986" transform="translate(-318.356 -378.232)"/>
      <path id="Path_161" data-name="Path 161" class="cls-2" d="M268.55,501.11c-5.446,5.924-8.482,13.62-11.16,21.226-2.205,6.357-4.218,12.892-4.384,19.642-.121,5,.786,9.95,1.576,14.883q2.527,15.816,3.509,31.833" transform="translate(-252.996 -345.769)"/>
      <path id="Path_162" data-name="Path 162" class="cls-2" d="M436.565,467.9a9.429,9.429,0,0,0,.112,2.937c.857,7.25-2.558,14.32-2.986,21.606l4.951-1.071a1.031,1.031,0,0,0,.978-1.29l.232-15.785a20.993,20.993,0,0,0-.473-5.884c-.152-.554-.522-2.232-1.21-2.375C437.337,465.873,436.69,467.293,436.565,467.9Z" transform="translate(-353.028 -326.348)"/>
      <path id="Path_163" data-name="Path 163" class="cls-2" d="M413.838,524.2a8.93,8.93,0,0,0,2.388,2.335.187.187,0,0,0,.129.049c.089,0,.085-.143.076-.232a1.838,1.838,0,0,1,1.339-1.754c.741-.281,1.567-.295,2.321-.553-.272.094-2.107-1.29-2.437-1.473a14.029,14.029,0,0,0-2.777-1.339C412.918,520.652,413.043,522.861,413.838,524.2Z" transform="translate(-341.738 -356.856)"/>
      <path id="Path_164" data-name="Path 164" class="cls-2" d="M424.335,542.846l.6,5.486a9.374,9.374,0,0,0,.8,3.37,3.179,3.179,0,0,0,2.75,1.835,3.6,3.6,0,0,0,2.031-.893,7.807,7.807,0,0,0,2.759-4.41c.446-2.076.031-4.241.156-6.366a47.69,47.69,0,0,1,.929-5.357,53.025,53.025,0,0,0,.312-11.843,2.17,2.17,0,0,0-.295-1.187c-.446-.612-1.339-.585-2.1-.482a73.52,73.52,0,0,0-7.682,1.469,11.736,11.736,0,0,0-3.411,1.259,4.5,4.5,0,0,0-2.156,2.812,6.724,6.724,0,0,0,.04,2.2c.549,4.33,1.1,8.669,2.053,12.945,3.535-.643,6.089-3.951,9.584-4.763" transform="translate(-344.874 -357.855)"/>
      <path id="Path_165" data-name="Path 165" class="cls-2" d="M432.021,539.809c-1.433,0-5.116,2.12-5.062-.536C428.446,539.01,430.446,539.8,432.021,539.809Z" transform="translate(-349.302 -366.866)"/>
      <path id="Path_166" data-name="Path 166" class="cls-2" d="M429.894,548.79,425.8,550.4a11.551,11.551,0,0,0-3.951,2.2" transform="translate(-346.474 -372.164)"/>
      <path id="Path_167" data-name="Path 167" class="cls-2" d="M429.087,539.69l-6.361,1.754a13.969,13.969,0,0,0-2.5.857" transform="translate(-345.577 -367.127)"/>
      <path id="Path_168" data-name="Path 168" class="cls-2" d="M430.511,582.179a5.308,5.308,0,0,0-2.232,3.312,2.384,2.384,0,0,0,.04,1.312c.393,1.045,1.728,1.339,2.844,1.339a14.4,14.4,0,0,0,6.5-1.576,6.063,6.063,0,0,0,2.165-1.678,2.821,2.821,0,0,0,.478-2.6,1.87,1.87,0,0,0-2.205-1.174" transform="translate(-349.993 -390.027)"/>
      <path id="Path_169" data-name="Path 169" class="cls-2" d="M419.064,616a254.6,254.6,0,0,1-10.794,23.382" transform="translate(-338.956 -409.372)"/>
      <path id="Path_170" data-name="Path 170" class="cls-2" d="M445.223,610.45c-1.58,10.111-1.451,20.65-5.223,30.154" transform="translate(-356.522 -406.3)"/>
      <path id="Path_171" data-name="Path 171" class="cls-2" d="M429.051,591.741a22.477,22.477,0,0,0,.4,5.915,2.784,2.784,0,0,0,3.138,2.928,17.692,17.692,0,0,0,5-.768,2.388,2.388,0,0,0,1.152-.625,2.5,2.5,0,0,0,.446-1.08,43.566,43.566,0,0,0,1.107-9.4" transform="translate(-350.434 -394.264)"/>
      <path id="Path_172" data-name="Path 172" class="cls-2" d="M903.159,410.432a3.9,3.9,0,0,1,4.651-.214,5.8,5.8,0,0,1,2.411,4.214,11.718,11.718,0,0,1-.665,4.91c-.973,3.013-2.857,6.093-5.91,6.928a.691.691,0,0,1-.942-.4,14.944,14.944,0,0,1-1.134-2.268" transform="translate(-612.048 -295.083)"/>
      <path id="Path_173" data-name="Path 173" class="cls-2" d="M907.56,415.028a2.772,2.772,0,0,1,2.933.991,4.557,4.557,0,0,1,.857,3.125,13.313,13.313,0,0,1-.723,3.21,7.274,7.274,0,0,1-.862,1.982.892.892,0,0,1-.665.446" transform="translate(-615.364 -298.059)"/>
      <path id="Path_174" data-name="Path 174" class="cls-2" d="M906.357,419.1a5.669,5.669,0,0,0-2.5,2.3,10.167,10.167,0,0,0-1.187,3.219,1.956,1.956,0,0,0,.1,1.469" transform="translate(-612.603 -300.368)"/>
      <path id="Path_175" data-name="Path 175" class="cls-2" d="M904.838,428.21a3.911,3.911,0,0,1-.808,4.714" transform="translate(-613.41 -305.411)"/>
      <path id="Path_176" data-name="Path 176" class="cls-2" d="M829.281,366.82a54.218,54.218,0,0,0-4.955,17.691,7.906,7.906,0,0,1-.33,1.857,16.074,16.074,0,0,0-.665,1.634,4.272,4.272,0,0,0,.616,2.9,3,3,0,0,1,.513,1.531c-.031.406-.388.719-.446,1.12-.446,3.594-2.232,6.79-4.192,9.937a1.031,1.031,0,0,0-.071.83,1.415,1.415,0,0,0,.589.665,11.921,11.921,0,0,0,4.375,1.924,3.513,3.513,0,0,0,2.326-.121,1.5,1.5,0,0,0,.71-1.991" transform="translate(-566.722 -271.425)"/>
      <path id="Path_177" data-name="Path 177" class="cls-2" d="M869.34,473.795c-1.339.576-9.441,4.812-12.2,5.839s-7.142,1.955-9.441,2.794c-2,.728-4.174,1.969-5.946-6.067-.232-1.058-.4-2.272-1.277-2.9a15.686,15.686,0,0,0-2.187-.795,2.589,2.589,0,0,1-.893-3.745" transform="translate(-576.265 -327.948)"/>
      <path id="Path_178" data-name="Path 178" class="cls-2" d="M839.939,462.793a24.515,24.515,0,0,1-6.9-.92,2.388,2.388,0,0,1-1.259-.67,2.483,2.483,0,0,1-.357-.692L829.6,455.82" transform="translate(-572.205 -320.696)"/>
      <path id="Path_179" data-name="Path 179" class="cls-2" d="M845.469,410.677h-.893l-6.955-.107a3.209,3.209,0,0,0-2.353.594c-.116.116-.205.326-.071.415" transform="translate(-575.266 -295.645)"/>
      <path id="Path_180" data-name="Path 180" class="cls-2" d="M845.107,419.59l-3.125.2a17.677,17.677,0,0,0-4.143.594.3.3,0,0,0,.165.272" transform="translate(-576.767 -300.639)"/>
      <path id="Path_181" data-name="Path 181" class="cls-2" d="M892.89,488.1a27.8,27.8,0,0,1,1.54,3.125c.451.786.893,1.7,1.286,2.567l1.536,3.3a17.057,17.057,0,0,1,1.9,5.8" transform="translate(-607.243 -338.566)"/>
      <path id="Path_182" data-name="Path 182" class="cls-1" d="M839.75,420.826a10.469,10.469,0,0,0,.946,2.982c.188.384.567.817.955.634.255-.116.326-.446.366-.719l.446-2.973" transform="translate(-577.824 -301.281)"/>
      <path id="Path_183" data-name="Path 183" class="cls-2" d="M960.2,460.72a37.828,37.828,0,0,0,2.678,8.013" transform="translate(-644.505 -323.409)"/>
      <path id="Path_184" data-name="Path 184" class="cls-2" d="M873.211,571.232c.656-7.589-.92-15.178-.263-22.8a82.12,82.12,0,0,1,1.272-9.968c.482-2.272,1.156-4.5,1.83-6.723,1.366-4.5,7.638-8.99,9-13.486q1-3.308,2-6.611c.562-1.862.853-2.844,2.638-3.906,1.384-.817,3.125-.893,4.491-1.719a13.129,13.129,0,0,0,2.6-2.424c3.451-3.535,8.366-5.134,12.722-7.459,3.853-2.062,8.035-4.884,10.673-8.415,1.42-1.888,1.183-3.018.072-4.946a31.486,31.486,0,0,1-2.888-6.428,1.571,1.571,0,0,0-.674-1.045c-.616-.277-1.245.339-1.629.893a10.476,10.476,0,0,1-2.232,2.616,27.987,27.987,0,0,1-2.638,1.388,18.946,18.946,0,0,0-3.477,2.821c-4.464,4.107-9.673,7.294-14.847,10.455l-3.321,2.031a7.032,7.032,0,0,0-2.3,1.906,6.9,6.9,0,0,0-.893,2.879q-.893,6.026-1.223,12.12l3.308-2.857" transform="translate(-596.112 -331.445)"/>
      <path id="Path_185" data-name="Path 185" class="cls-2" d="M867.624,619.335c-.125-9.022-4.772-18.048-4.129-27.047.6-8.388,6.5-16.918,9.986-24.552a39.953,39.953,0,0,1,4.852-7.986" transform="translate(-590.935 -378.232)"/>
      <path id="Path_186" data-name="Path 186" class="cls-2" d="M980,501.11c5.446,5.924,8.5,13.62,11.16,21.226,2.205,6.357,1.094,12.892,1.259,19.642a81.251,81.251,0,0,1-.683,14.883c-1.683,10.544-4.2,22.065-4.848,32.725" transform="translate(-655.467 -345.769)"/>
      <path id="Path_187" data-name="Path 187" class="cls-2" d="M823.649,467.9a9.431,9.431,0,0,1-.112,2.937c-.857,7.25,2.558,14.32,2.986,21.606l-4.951-1.071a1.031,1.031,0,0,1-.978-1.29l-.232-15.785a20.993,20.993,0,0,1,.473-5.884c.152-.554.522-2.232,1.21-2.375C822.872,465.873,823.524,467.293,823.649,467.9Z" transform="translate(-567.085 -326.348)"/>
      <path id="Path_188" data-name="Path 188" class="cls-2" d="M845.6,524.2a8.929,8.929,0,0,1-2.388,2.335.187.187,0,0,1-.13.049c-.089,0-.089-.143-.076-.232a1.839,1.839,0,0,0-1.339-1.754c-.741-.281-1.567-.295-2.321-.553.272.094,2.107-1.29,2.437-1.473a14.029,14.029,0,0,1,2.777-1.339C846.524,520.652,846.4,522.861,845.6,524.2Z" transform="translate(-577.603 -356.856)"/>
      <path id="Path_189" data-name="Path 189" class="cls-2" d="M823.814,542.846l-.6,5.486a9.374,9.374,0,0,1-.8,3.37,3.179,3.179,0,0,1-2.75,1.835,3.6,3.6,0,0,1-2.031-.893,7.808,7.808,0,0,1-2.759-4.41c-.446-2.076-.031-4.241-.156-6.366a48.737,48.737,0,0,0-.928-5.357,53.021,53.021,0,0,1-.313-11.843,2.17,2.17,0,0,1,.295-1.187c.446-.612,1.339-.585,2.1-.482a73.591,73.591,0,0,1,7.683,1.469,11.74,11.74,0,0,1,3.41,1.259,4.5,4.5,0,0,1,2.156,2.812,6.722,6.722,0,0,1-.04,2.2c-.549,4.33-1.1,8.669-2.053,12.945-3.536-.643-6.089-3.951-9.589-4.763" transform="translate(-563.178 -357.855)"/>
      <path id="Path_190" data-name="Path 190" class="cls-2" d="M829.57,539.809c1.433,0,5.116,2.12,5.062-.536C833.146,539.01,831.146,539.8,829.57,539.809Z" transform="translate(-572.188 -366.866)"/>
      <path id="Path_191" data-name="Path 191" class="cls-2" d="M828,548.79l4.093,1.612a11.549,11.549,0,0,1,3.951,2.2" transform="translate(-571.319 -372.164)"/>
      <path id="Path_192" data-name="Path 192" class="cls-2" d="M827.8,539.69l6.361,1.754a13.964,13.964,0,0,1,2.5.857" transform="translate(-571.209 -367.127)"/>
      <path id="Path_193" data-name="Path 193" class="cls-2" d="M822.185,582.178a5.325,5.325,0,0,1,2.232,3.312,2.424,2.424,0,0,1-.04,1.312c-.393,1.045-1.728,1.339-2.844,1.339a14.4,14.4,0,0,1-6.5-1.576,6.022,6.022,0,0,1-2.165-1.678,2.821,2.821,0,0,1-.478-2.6,1.866,1.866,0,0,1,2.205-1.174" transform="translate(-562.603 -390.027)"/>
      <path id="Path_194" data-name="Path 194" class="cls-2" d="M835.42,616a253.443,253.443,0,0,0,10.794,23.382" transform="translate(-575.427 -409.372)"/>
      <path id="Path_195" data-name="Path 195" class="cls-2" d="M816.16,610.45c1.585,10.111,1.451,20.65,5.232,30.159" transform="translate(-564.765 -406.3)"/>
      <path id="Path_196" data-name="Path 196" class="cls-2" d="M824.826,591.741a22.474,22.474,0,0,1-.4,5.915,3.528,3.528,0,0,1-1.576,2.678,3.492,3.492,0,0,1-1.562.25,17.693,17.693,0,0,1-5-.768,2.366,2.366,0,0,1-1.152-.625,2.494,2.494,0,0,1-.446-1.08,43.554,43.554,0,0,1-1.107-9.4" transform="translate(-563.342 -394.264)"/>
      <path id="Path_197" data-name="Path 197" class="cls-1" d="M821.115,352.3c-.156,1.589-.125,3.37.96,4.54,1.438,1.545,3.915,1.259,5.986.848l10.763-2.129c2.388-.473,5.192-.835,6.955.844,1.17,1.112,1.513,2.812,1.786,4.4a244.711,244.711,0,0,1,2.268,26.007l5.468-22.731c.585-2.433,1.339-5.125,3.5-6.4,2.37-1.406,5.647-.371,7.352,1.786a10.435,10.435,0,0,1,1.692,7.866,50.785,50.785,0,0,1-2.2,7.955,52.972,52.972,0,0,0-1.839,22.525,17.9,17.9,0,0,1,4.138-4.406,83.6,83.6,0,0,0,14.155,20.74c5.8,6.25,12.651,11.687,17.11,18.967a100.06,100.06,0,0,1,1.741-9.91A78.669,78.669,0,0,1,911.895,434.8a51.123,51.123,0,0,0-3.045-26.949c-2.678-6.638-6.732-12.687-8.9-19.5-4.174-13.106-1.04-27.967-6.593-40.551a53.654,53.654,0,0,0-7.941-12.053c-1.808-2.2-4.531-4.589-7.142-3.437-3.678-5.973-10.914-9-17.918-9.374a47.874,47.874,0,0,0-13.084,1.37c-2.933.656-6.183,1.143-8.888,2.513A32.621,32.621,0,0,0,824.316,341.3,31.337,31.337,0,0,0,821.115,352.3Z" transform="translate(-567.47 -247.102)"/>
      <path id="Path_198" data-name="Path 198" class="cls-2" d="M492.722,158.183c-9.495,3.308-18.771,7.66-26.445,14.155s-13.678,15.325-15.405,25.23,1.281,20.851,8.843,27.476c5.111,4.464,11.771,6.7,18.329,8.508a201.955,201.955,0,0,0,94.779,2.772c7.714-1.634,15.414-3.754,22.32-7.589s12.946-9.548,16-16.816c4.526-10.781,1.688-23.739-5.379-33.033s-17.8-15.307-28.994-18.686c-14.878-4.5-30.44-4.571-45.742-6.459C517.792,152.09,505.32,153.795,492.722,158.183Z" transform="translate(-362.279 -153.121)"/>
      <path id="Path_199" data-name="Path 199" class="cls-2" d="M446.519,309.5a2.46,2.46,0,0,0,.942-.893,2.13,2.13,0,0,0-1.129-2.678c-1.669-.844-7.142-.8-6.9,2.147S444.854,310.509,446.519,309.5Z" transform="translate(-356.202 -237.456)"/>
      <path id="Path_200" data-name="Path 200" class="cls-2" d="M431.027,315.942c-.643,0-.96.893-.652,1.46a2.482,2.482,0,0,0,1.571,1.018,1.612,1.612,0,0,0,1.37-.04,1.18,1.18,0,0,0-.054-1.763,3.406,3.406,0,0,0-1.87-.692c-.522-.085-1.254,0-1.3.509" transform="translate(-351.035 -243.234)"/>
      <path id="Path_201" data-name="Path 201" class="cls-2" d="M420.108,322.36a.362.362,0,0,0-.4.179,2.593,2.593,0,0,0,.446,1.25.793.793,0,1,0,1.031-1.1,2.6,2.6,0,0,0-1.487-.384.21.21,0,0,0-.187.268.214.214,0,0,0,.317.1" transform="translate(-345.174 -246.781)"/>
      <path id="Path_202" data-name="Path 202" class="cls-2" d="M806.281,309.5a2.46,2.46,0,0,1-.942-.893,2.134,2.134,0,0,1,1.129-2.678c1.67-.844,7.142-.8,6.9,2.147S807.946,310.509,806.281,309.5Z" transform="translate(-558.68 -237.456)"/>
      <path id="Path_203" data-name="Path 203" class="cls-2" d="M827.5,315.942c.643,0,.955.893.652,1.46a2.481,2.481,0,0,1-1.571,1.018,1.62,1.62,0,0,1-1.375-.04,1.18,1.18,0,0,1,.058-1.763,3.379,3.379,0,0,1,1.87-.692c.518-.085,1.254,0,1.3.509" transform="translate(-569.565 -243.234)"/>
      <path id="Path_204" data-name="Path 204" class="cls-2" d="M840.3,322.36a.362.362,0,0,1,.4.179,2.644,2.644,0,0,1-.447,1.25.793.793,0,1,1-1.036-1.1,2.612,2.612,0,0,1,1.487-.384.2.2,0,1,1-.125.371" transform="translate(-577.313 -246.781)"/>
    </g>
    <g id="append" transform="translate(364.8 179.055)">
      <path id="Path_205" data-name="Path 205" class="cls-2" d="M503.475,213.245c-.045,1.857,0,3.714,0,5.567q0,4.406.049,8.816l.08,9.682.058,7.5a1.339,1.339,0,0,0,.129.67c.29.491,1.107.357,1.442-.107a2.639,2.639,0,0,0,.313-1.652l-.1-3.25a.643.643,0,0,1,.728-.844l2.808-.089a.75.75,0,0,1,.42.067c.214.129.241.446.241.683l.022,5.558a11.718,11.718,0,0,1,4.169-.312c1.009.107,2,.344,3.009.446a26.5,26.5,0,0,0,6.741-.3l.469-31.038c0-.848,0-1.683.054-2.553a.733.733,0,0,0,0-.241c-.1-.339-.58-.33-.929-.277a21.015,21.015,0,0,1-4.379-.317c-.661-.049-1.339-.04-1.982-.027l-13.258.232c-.031.54-.29,1.5.21,1.812a6.167,6.167,0,0,0,2.424.188q6.142,0,12.276-.152a40.625,40.625,0,0,1,5.616.107" transform="translate(-503.456 -211.216)"/>
      <path id="Path_206" data-name="Path 206" class="cls-2" d="M506.19,224.945a2.107,2.107,0,0,1,1.339-.089,12.849,12.849,0,0,0,2.232,0l1.362-.076a.379.379,0,0,0,.21-.054.371.371,0,0,0,.1-.29l.138-2.169a.446.446,0,0,0-.076-.353.482.482,0,0,0-.388-.08,16.839,16.839,0,0,1-2.232.054c-.54,0-1.531-.348-2.031-.152s-.446.656-.469,1.062A9.365,9.365,0,0,1,506.19,224.945Z" transform="translate(-504.969 -217.007)"/>
      <path id="Path_207" data-name="Path 207" class="cls-2" d="M520.84,224.712c.116-.21.4-.246.643-.254l3.366-.134a3.427,3.427,0,0,1,.567,0,1.37,1.37,0,0,0,.768.031,15.941,15.941,0,0,1-.2-2.955c-1.424.143-2.919,0-4.326.214C520.465,221.793,521.291,223.9,520.84,224.712Z" transform="translate(-513.08 -216.854)"/>
      <path id="Path_208" data-name="Path 208" class="cls-2" d="M535.13,225.025c1.754-.1,3.518-.121,5.276-.067l-.259-2.879c-.893-.143-1.786.161-2.71.1-.643-.049-1.6-.446-2.027.259A23.923,23.923,0,0,0,535.13,225.025Z" transform="translate(-520.991 -217.198)"/>
      <path id="Path_209" data-name="Path 209" class="cls-2" d="M506.44,234.735a.245.245,0,0,1,.116.219,2.724,2.724,0,0,1,1.12-.2l3.888-.143-.08-2.375a.732.732,0,0,0-.085-.379c-1.116.071-2.232.1-3.348.085-.594,0-1.259-.219-1.469.446A16.041,16.041,0,0,0,506.44,234.735Z" transform="translate(-505.108 -222.645)"/>
      <path id="Path_210" data-name="Path 210" class="cls-2" d="M521.3,234.83a5.2,5.2,0,0,1,1.915-.058c1.027.045,2.058-.17,3.08-.062a9.92,9.92,0,0,1-.089-2.768.237.237,0,0,0-.045-.205A.21.21,0,0,0,526,231.7c-1.585.063-3.156-.089-4.732-.076C521.641,232.45,521.319,233.932,521.3,234.83Z" transform="translate(-513.318 -222.516)"/>
      <path id="Path_211" data-name="Path 211" class="cls-2" d="M535.52,235.094a6.985,6.985,0,0,1,1.254-.156l1.089-.071a13.264,13.264,0,0,1,2.629,0,3.7,3.7,0,0,0-.062-1.308,4.1,4.1,0,0,1,.076-1.42,20.005,20.005,0,0,1-3.835.022c-.79-.076-.978-.076-1,.714A9.073,9.073,0,0,1,535.52,235.094Z" transform="translate(-521.207 -222.794)"/>
      <path id="Path_212" data-name="Path 212" class="cls-2" d="M506.46,245.739c.839-.357,1.786,0,2.705,0,.411,0,.821-.067,1.237-.089a10.747,10.747,0,0,1,1.312.04c-.339-.8.089-1.741-.129-2.58l-2.96.147c-.522.027-1.732-.326-2.053.143C506.344,243.708,506.7,245.619,506.46,245.739Z" transform="translate(-505.119 -228.873)"/>
      <path id="Path_213" data-name="Path 213" class="cls-2" d="M521.33,245.409l2.107-.085a6.277,6.277,0,0,1,1.045,0,4.109,4.109,0,0,0,.513.058c.473,0,.951-.228,1.4-.085l-.2-2.437c-1.295,0-2.589.045-3.888.067-.705,0-.844-.179-.893.6C521.41,243.7,521.357,245.409,521.33,245.409Z" transform="translate(-513.351 -228.734)"/>
      <path id="Path_214" data-name="Path 214" class="cls-2" d="M535.32,245.617a22.234,22.234,0,0,0,5.022.107V243.2s-3.571-.094-3.924-.1c-.558,0-.754-.027-.853.536C535.427,244.3,535.516,244.952,535.32,245.617Z" transform="translate(-521.096 -228.867)"/>
      <path id="Path_215" data-name="Path 215" class="cls-2" d="M506.59,256.2a2.55,2.55,0,0,1,.746-.152,2.892,2.892,0,0,1,.549.071,9.182,9.182,0,0,0,3.772-.094,1.669,1.669,0,0,1-.071-1.1,5.009,5.009,0,0,0,0-1.317.358.358,0,0,0-.062-.179c-.085-.107-.25-.089-.384-.067a14.842,14.842,0,0,1-2.986.147,4.464,4.464,0,0,0-1.062,0c-.393.1-.3.085-.366.522C506.621,254.735,506.635,255.485,506.59,256.2Z" transform="translate(-505.191 -234.543)"/>
      <path id="Path_216" data-name="Path 216" class="cls-2" d="M521.157,255.732a10.322,10.322,0,0,1,2.348-.147h1.339a3.763,3.763,0,0,1,.893.08.353.353,0,0,0,.286,0c.112-.076.08-.246.049-.379-.17-.795.237-1.629.058-2.419a8.172,8.172,0,0,1-1.478,0c-.531-.031-1.062-.045-1.6-.036a4.183,4.183,0,0,0-1.553.08C520.956,253.236,521.179,255.12,521.157,255.732Z" transform="translate(-513.24 -234.236)"/>
      <path id="Path_217" data-name="Path 217" class="cls-2" d="M535.741,255.933c.446.125.857-.121,1.29-.205s.893,0,1.308-.063c.335-.045.705-.165.987,0,.094.058.165.143.254.2a1.063,1.063,0,0,0,.924-.062,7.142,7.142,0,0,1-.089-2.553q-1.473.161-2.96.174c-.487,0-1.375-.366-1.634.085A7.91,7.91,0,0,0,535.741,255.933Z" transform="translate(-521.298 -234.486)"/>
      <path id="Path_218" data-name="Path 218" class="cls-2" d="M506.86,266.046a8.7,8.7,0,0,1,2.656.027,14.381,14.381,0,0,1,2.1,0c0-.826,0-1.647-.036-2.469-1.272-.246-2.58.179-3.861.1-.531-.036-.75-.085-.839.482C506.847,264.376,507.03,266,506.86,266.046Z" transform="translate(-505.34 -240.175)"/>
      <path id="Path_219" data-name="Path 219" class="cls-2" d="M521.1,266.175a5.954,5.954,0,0,0,1.594.067,3.816,3.816,0,0,1,.679-.031,5.3,5.3,0,0,1,.643.134,20.9,20.9,0,0,0,2.482.071,14.524,14.524,0,0,1-.076-2.821c-.4.143-.844-.049-1.268-.045a4.071,4.071,0,0,0-.656.089c-.893.143-2.1-.241-2.946.04-.406.134-.3.446-.335.937C521.2,264.751,521.074,266.175,521.1,266.175Z" transform="translate(-513.22 -240.188)"/>
      <path id="Path_220" data-name="Path 220" class="cls-2" d="M536.21,265.933a1.843,1.843,0,0,1,1.143-.237,16.513,16.513,0,0,1,1.754.147,10.35,10.35,0,0,0,1.179.129.258.258,0,0,0,.183-.049.254.254,0,0,0,.058-.179l.129-2.585c-.478,0-.942-.143-1.415-.179-.616-.049-2.277-.165-2.723.348-.245.281-.156.759-.165,1.089C536.348,264.656,536.4,265.794,536.21,265.933Z" transform="translate(-521.589 -239.848)"/>
      <path id="Path_221" data-name="Path 221" class="cls-2" d="M609.129,214.979a16.517,16.517,0,0,1,3.08-.063c-.165,0-.246-.205-.3-.366l-.446-1.237a8.673,8.673,0,0,0-2.062.134C609.026,213.734,609.155,214.564,609.129,214.979Z" transform="translate(-561.956 -212.37)"/>
      <path id="Path_222" data-name="Path 222" class="cls-2" d="M618.925,215.52c-.036-.049-.067-.107-.107-.156-.2-.286-.536-.446-.741-.732a2.344,2.344,0,0,1-.2-.379l-.33-.768a4.231,4.231,0,0,1,.714-.022l.844.022a.536.536,0,0,1,.25.054c.143.094.143.3.125.473a13.708,13.708,0,0,0-.04,1.482c0,.183.1.4-.094.406S619,215.623,618.925,215.52Z" transform="translate(-566.619 -212.456)"/>
      <path id="Path_223" data-name="Path 223" class="cls-2" d="M623.544,214.965a.58.58,0,0,0,0,.152c.054.17.277.21.446.241a1.946,1.946,0,0,1,1.527,2.036,1.437,1.437,0,0,1,1-.21c.384,0,.768.036,1.147.071s.741.08,1.112.112a25.3,25.3,0,0,0,2.79.045l.067-2.643a.263.263,0,0,0-.049-.192.246.246,0,0,0-.179-.036c-1.379.027-2.589-.853-3.879-1.339a3.163,3.163,0,0,0-.54-.17,4.76,4.76,0,0,0-.5-.058l-1.5-.112c-.446-.031-1.156-.219-1.254.353A17.472,17.472,0,0,0,623.544,214.965Z" transform="translate(-569.934 -212.098)"/>
      <path id="Path_224" data-name="Path 224" class="cls-2" d="M639.4,214.039a4.11,4.11,0,0,0,.446.1,3.6,3.6,0,0,0,1.112-.094l3.875-.732a.407.407,0,0,0,.3-.156.277.277,0,0,0-.143-.353.781.781,0,0,0-.42-.049l-2.022.116-1.451.08c-1.022.063-2.045.121-3.071.1-.2,0-1.21-.152-1.263,0-.112.335.763.478.915.518Z" transform="translate(-577.247 -212.064)"/>
      <path id="Path_225" data-name="Path 225" class="cls-2" d="M648.69,215.32a23.123,23.123,0,0,0,.094,3.147c0,.134,0,.3-.107.362a.313.313,0,0,1-.17.031c-1.009,0-2.018.027-3.022.089a8.806,8.806,0,0,1-1.138.022,4,4,0,0,1-.513-.054.255.255,0,0,1-.2-.089.228.228,0,0,1-.027-.121,9.328,9.328,0,0,1,.067-1.58c.036-.272.031-.62.277-.795a3.977,3.977,0,0,1,1.379-.326l1.589-.326A17.749,17.749,0,0,0,648.69,215.32Z" transform="translate(-581.04 -213.488)"/>
      <path id="Path_226" data-name="Path 226" class="cls-2" d="M643.7,227.513a.553.553,0,0,1-.08.424.37.37,0,0,1,.277-.08l4.018-.134a2.143,2.143,0,0,1,.969.112,1.539,1.539,0,0,0-.04-.683,4.407,4.407,0,0,1-.045-1.259,15.816,15.816,0,0,1-3.571.058c-.335,0-1.1-.192-1.37.089S643.678,227.152,643.7,227.513Z" transform="translate(-581.051 -219.338)"/>
      <path id="Path_227" data-name="Path 227" class="cls-2" d="M621.623,223.81a1.572,1.572,0,0,0,.741-.232.844.844,0,0,0-.625-1.522.8.8,0,0,0-.571.687C621.123,223.011,621.226,223.81,621.623,223.81Z" transform="translate(-568.616 -217.21)"/>
      <path id="Path_228" data-name="Path 228" class="cls-2" d="M623.982,229.325a.08.08,0,0,0,.058,0l.893-.036c.045-.446-.2-.821-.661-.705-.138.031-.223.04-.3.174A.707.707,0,0,0,623.982,229.325Z" transform="translate(-570.144 -220.819)"/>
      <path id="Path_229" data-name="Path 229" class="cls-2" d="M627.993,227.718a4.83,4.83,0,0,1,1.339-.067c1.594.071,3.192.1,4.785.089-.045-.67-.071-1.339-.076-2.009L632,225.678c-.362,0-.719-.022-1.08,0a17.808,17.808,0,0,1-2.437.1c-.138,0-.344-.107-.446,0s0,.5,0,.621Z" transform="translate(-572.397 -219.217)"/>
      <path id="Path_230" data-name="Path 230" class="cls-2" d="M608.869,220.049a33.474,33.474,0,0,1-.3,4.067c.1.156.33.138.513.121.482-.054.973-.031,1.46-.049a11.244,11.244,0,0,1,3.669,0,27.953,27.953,0,0,1-1.6-3.339,2.339,2.339,0,0,1-.219-.862c0-.161,0-.357-.107-.446a.447.447,0,0,0-.29-.045l-1.339.1a2.062,2.062,0,0,1-.991-.085c-.21-.089-.446-.246-.656-.071S608.878,219.826,608.869,220.049Z" transform="translate(-561.647 -215.727)"/>
      <path id="Path_231" data-name="Path 231" class="cls-2" d="M608.91,234.451q2.705-.094,5.419,0a.669.669,0,0,0,.446-.089,12.228,12.228,0,0,1,0-2.321c-1.183.165-2.375.219-3.571.268a3.342,3.342,0,0,1-1.013-.062c-.339-.094-1.183-.446-1.272.156a7.3,7.3,0,0,0,.089.973A6.15,6.15,0,0,1,608.91,234.451Z" transform="translate(-561.835 -222.744)"/>
      <path id="Path_232" data-name="Path 232" class="cls-2" d="M609,241.858c.192-.036.384-.058.576-.076.487-.045.978-.045,1.464-.049H614.9v-2.21a.325.325,0,0,0-.058-.237.3.3,0,0,0-.179-.071,6.526,6.526,0,0,0-.835.027,6.242,6.242,0,0,1-.893-.107,10.905,10.905,0,0,0-1.87-.022l-1.219.063c-.353,0-.656-.08-.679.308s.031.8,0,1.2A4.966,4.966,0,0,1,609,241.858Z" transform="translate(-561.885 -226.644)"/>
      <path id="Path_233" data-name="Path 233" class="cls-2" d="M609.149,248.571q2.794-.071,5.584,0a11.52,11.52,0,0,0,.054-2.232l-1.531.08a8.511,8.511,0,0,1-.955,0c-.379,0-.759-.089-1.138-.089a4.99,4.99,0,0,0-.576.04c-.371.031-1.294-.067-1.415.339a3.721,3.721,0,0,0,0,.835Z" transform="translate(-561.967 -230.655)"/>
      <path id="Path_234" data-name="Path 234" class="cls-2" d="M609.106,253.09l-.062,1.647a.366.366,0,0,0,.076.29.384.384,0,0,0,.3.04,20.11,20.11,0,0,1,5.254-.143.272.272,0,0,0,.179,0c.08-.054.085-.17.08-.263l-.1-1.786a11.325,11.325,0,0,1-3.294-.027c-.527-.027-1.053,0-1.58,0C609.709,252.853,609.12,252.728,609.106,253.09Z" transform="translate(-561.907 -234.254)"/>
      <path id="Path_235" data-name="Path 235" class="cls-2" d="M609.27,261.261a1.664,1.664,0,0,0,.893.223,24.233,24.233,0,0,0,4.826-.179,7.173,7.173,0,0,1-.049-2.027l-3.067-.022h-1.62c-.214,0-.6-.08-.777.089s-.112.576-.125.795Z" transform="translate(-562.035 -237.801)"/>
      <path id="Path_236" data-name="Path 236" class="cls-2" d="M609.318,268.107a12.6,12.6,0,0,0,1.629-.161c1.388-.152,2.794.071,4.183-.058a16.2,16.2,0,0,1-.147-2.178,9.678,9.678,0,0,1-3.21.143c-.54-.036-1.085-.08-1.629-.085a3.392,3.392,0,0,0-.737,0c-.1.027-.067-.054-.134.04s0,.362,0,.446C609.286,266.406,609.3,268.107,609.318,268.107Z" transform="translate(-562.02 -241.384)"/>
      <path id="Path_237" data-name="Path 237" class="cls-2" d="M623.946,234.032a1.461,1.461,0,0,1-.116.518l1.13-.1a3.6,3.6,0,0,1,.491,0,1.871,1.871,0,0,0,.522,0,.094.094,0,0,0,.058-.031.088.088,0,0,0,0-.058,3.339,3.339,0,0,0-.4-.87c-.152-.308-.219-.652-.353-.969-.022-.062-.062-.129-.125-.143a.268.268,0,0,0-.13.036c-.321.134-.893-.2-1.045.188a2.491,2.491,0,0,0,0,.705A6.545,6.545,0,0,1,623.946,234.032Z" transform="translate(-570.095 -222.933)"/>
      <path id="Path_238" data-name="Path 238" class="cls-2" d="M623.971,241.68a.174.174,0,0,0,.04.116.161.161,0,0,0,.1.022l2.339.027a2.936,2.936,0,0,0,.687-.045l-.928-2.232a.152.152,0,0,0-.049-.076.183.183,0,0,0-.1-.031c-.638-.067-1.29.04-1.919-.031a7.2,7.2,0,0,0-.174,2.25Z" transform="translate(-570.161 -226.835)"/>
      <path id="Path_239" data-name="Path 239" class="cls-2" d="M624,247.749c0,.147,0,.326.112.4a.393.393,0,0,0,.214.04,13.911,13.911,0,0,1,3.531.143,4.314,4.314,0,0,0-.205-.853,9.381,9.381,0,0,0-.5-1.1.629.629,0,0,0-.112-.156.447.447,0,0,0-.219-.076,6.356,6.356,0,0,0-1.009-.036h-.893c-.134,0-.567-.071-.67,0C623.947,246.289,624,247.441,624,247.749Z" transform="translate(-570.186 -230.516)"/>
      <path id="Path_240" data-name="Path 240" class="cls-2" d="M624.07,255.012l3.87-.174a1.4,1.4,0,0,1,.638.076c-.12-.643-.272-1.281-.446-1.911-.8,0-1.607,0-2.411-.045-.415-.022-1.165-.143-1.446.272C624.141,253.432,624.155,255.008,624.07,255.012Z" transform="translate(-570.228 -234.307)"/>
      <path id="Path_241" data-name="Path 241" class="cls-2" d="M624.06,261.261a4.747,4.747,0,0,0,1.812.031c.263,0,.527.031.786.031a6.564,6.564,0,0,1,2.027,0c.089.031.214.054.25-.031a.163.163,0,0,0,0-.08l-.089-1.736a.224.224,0,0,0-.049-.161.259.259,0,0,0-.21,0,12.772,12.772,0,0,1-3.4-.058c-.38-.027-.951-.174-1.062.295A11.525,11.525,0,0,0,624.06,261.261Z" transform="translate(-570.218 -237.788)"/>
      <path id="Path_242" data-name="Path 242" class="cls-2" d="M624.42,267.655a.763.763,0,0,0,.446.08c1.04-.04,2.071-.183,3.125-.138a5.951,5.951,0,0,0,1.339,0V265.7l-3.522-.045c-.339,0-1.161-.134-1.286.228a3.762,3.762,0,0,0-.022.87Q624.456,267.2,624.42,267.655Z" transform="translate(-570.422 -241.343)"/>
      <path id="Path_243" data-name="Path 243" class="cls-2" d="M624.23,274.722a.83.83,0,0,0,.616.036,8.11,8.11,0,0,1,1.576.058,25.433,25.433,0,0,1,3.08-.08l-.174-2.036a10.945,10.945,0,0,1-1.433.04l-2.317-.031h-.79c-.263,0-.446-.022-.446.321C624.292,273.6,624.261,274.173,624.23,274.722Z" transform="translate(-570.317 -245.254)"/>
      <path id="Path_244" data-name="Path 244" class="cls-2" d="M609.19,274.913l1.129-.036h.607q1.991-.054,3.977,0a20.374,20.374,0,0,0,.036-2.152,15.665,15.665,0,0,0-2.745.04,5.61,5.61,0,0,1-1.522.04c-.379-.067-1.2-.446-1.375.071A6.088,6.088,0,0,0,609.19,274.913Z" transform="translate(-561.968 -245.204)"/>
      <path id="Path_245" data-name="Path 245" class="cls-2" d="M609.184,281.678a28.6,28.6,0,0,1,5.209,0,.446.446,0,0,0,.295-.045.42.42,0,0,0,.107-.366l-.058-1.647a19.734,19.734,0,0,0-2.518,0,17.854,17.854,0,0,0-2.589.112C609.023,279.857,609.179,281.2,609.184,281.678Z" transform="translate(-561.975 -249.063)"/>
      <path id="Path_246" data-name="Path 246" class="cls-2" d="M609.29,288.5l3.2-.205c.3,0,.612-.036.893-.031.518,0,1.031.089,1.545.076l-.04-1.83a15.121,15.121,0,0,0-3.036-.022c-.513.031-1.027.058-1.54.054-.312,0-.772-.129-.893.246a3.816,3.816,0,0,0-.04.817A5.454,5.454,0,0,1,609.29,288.5Z" transform="translate(-562.046 -252.845)"/>
      <path id="Path_247" data-name="Path 247" class="cls-2" d="M624.39,281.62c.1-.179.344-.205.549-.214l2.728-.1a14.23,14.23,0,0,1,1.9,0l-.031-1.821a.3.3,0,0,0-.031-.165c-.058-.1-.2-.107-.321-.1-1.263.063-2.527.107-3.79.152-.388,0-.893-.08-.937.4a6.969,6.969,0,0,0,0,.915C624.444,280.906,624.506,281.446,624.39,281.62Z" transform="translate(-570.405 -248.862)"/>
      <path id="Path_248" data-name="Path 248" class="cls-2" d="M624.576,288.4a1.026,1.026,0,0,1,.71-.179h4.12c.107,0,.241,0,.286-.12a.348.348,0,0,0,0-.1l.04-1.553c-1.08-.04-2.165-.027-3.245,0-.446,0-1.451-.129-1.817.205-.179.165-.121.446-.121.687S624.678,288.306,624.576,288.4Z" transform="translate(-570.488 -252.851)"/>
      <path id="Path_249" data-name="Path 249" class="cls-2" d="M638.394,288.094a4.071,4.071,0,0,1,.612-.071,1.338,1.338,0,0,1,.259.085,1.679,1.679,0,0,0,.616.036c.027,0,.054,0,.067-.027a.054.054,0,0,0,0-.045,12.5,12.5,0,0,1,0-1.585.214.214,0,0,0-.036-.147.152.152,0,0,0-.1-.04,1.673,1.673,0,0,0-.594-.049,3.348,3.348,0,0,0-.366.085c-.446.125-.446.12-.446.625C638.4,287.054,638.381,288.094,638.394,288.094Z" transform="translate(-578.155 -252.751)"/>
      <path id="Path_250" data-name="Path 250" class="cls-2" d="M643.812,288.174a2.424,2.424,0,0,0,.536-.076,3.844,3.844,0,0,1,.786.031c1.156.085,2.335-.339,3.46-.058a.236.236,0,0,0,.219,0,.245.245,0,0,0,.031-.237,4.174,4.174,0,0,1-.027-1.728c-1.268.045-2.531,0-3.8-.045-.388,0-.973-.17-1.134.3A5.917,5.917,0,0,0,643.812,288.174Z" transform="translate(-581.136 -252.635)"/>
      <path id="Path_251" data-name="Path 251" class="cls-2" d="M643.86,281.134c0,.063,0,.134.049.17a.183.183,0,0,0,.129,0,24.5,24.5,0,0,1,4.718-.054,11.8,11.8,0,0,1-.045-2.21l-1.585.12a15.7,15.7,0,0,1-2.71.08c-.446-.04-.446,0-.473.473S643.887,280.665,643.86,281.134Z" transform="translate(-581.184 -248.764)"/>
      <path id="Path_252" data-name="Path 252" class="cls-2" d="M637.89,281.362a4.53,4.53,0,0,1,.6-.022,5.376,5.376,0,0,0,1.036.063s.04,0,.054-.022a.19.19,0,0,0,.022-.089,15.64,15.64,0,0,1-.022-1.942.241.241,0,0,0-.054-.2.254.254,0,0,0-.129-.036,6.021,6.021,0,0,0-.942.031c-.308.031-.4,0-.446.313C637.975,279.617,637.939,281.358,637.89,281.362Z" transform="translate(-577.879 -248.8)"/>
      <path id="Path_253" data-name="Path 253" class="cls-2" d="M637.64,274.661l.1-.067a14.092,14.092,0,0,1,1.893,0c.031,0,.063,0,.076-.027a.084.084,0,0,0,0-.036,8.038,8.038,0,0,1-.125-1.728c0-.067,0-.152-.045-.187-.192-.116-.817.036-1.045.067a1.125,1.125,0,0,0-.638.219.719.719,0,0,0-.161.634C637.72,273.75,637.872,274.491,637.64,274.661Z" transform="translate(-577.74 -245.184)"/>
      <path id="Path_254" data-name="Path 254" class="cls-2" d="M644.16,274.818c1.531-.241,3.125.054,4.642-.125a.129.129,0,0,0,.1-.045.146.146,0,0,0,0-.089l-.116-1.839q-1.736.036-3.469,0a5.133,5.133,0,0,0-.866-.036c-.308.049-.21.2-.205.513A6.277,6.277,0,0,1,644.16,274.818Z" transform="translate(-581.35 -245.242)"/>
      <path id="Path_255" data-name="Path 255" class="cls-2" d="M637.36,267.816a1.338,1.338,0,0,1,.371-.089,2.086,2.086,0,0,1,.286,0,5.146,5.146,0,0,0,.643,0h.665a8.152,8.152,0,0,1,.089-1.786.166.166,0,0,0-.027-.152.2.2,0,0,0-.054-.027,2.5,2.5,0,0,0-1.076-.076c-.5.071-.75-.058-.817.518C637.427,266.365,637.409,267.8,637.36,267.816Z" transform="translate(-577.585 -241.356)"/>
      <path id="Path_256" data-name="Path 256" class="cls-2" d="M644.16,267.563l4.665.036a11.978,11.978,0,0,0,0-1.96.156.156,0,0,0-.031-.094.152.152,0,0,0-.107-.04,21.866,21.866,0,0,0-2.419-.049H645.5c-.406,0-1.165-.147-1.263.371C644.187,266.018,644.2,267.563,644.16,267.563Z" transform="translate(-581.35 -241.233)"/>
      <path id="Path_257" data-name="Path 257" class="cls-2" d="M644.173,261.338a25.449,25.449,0,0,1,4.205-.058,2.379,2.379,0,0,0,.5,0l.049-1.986h-3.571c-.393,0-1.067-.174-1.152.321A13.03,13.03,0,0,0,644.173,261.338Z" transform="translate(-581.35 -237.815)"/>
      <path id="Path_258" data-name="Path 258" class="cls-2" d="M637.065,260.331l.076.987a5.694,5.694,0,0,1,1.906,0l.036-2.013a1.37,1.37,0,0,0-.5-.054c-.335,0-1.08-.134-1.37.045S637.047,260.054,637.065,260.331Z" transform="translate(-577.398 -237.781)"/>
      <path id="Path_259" data-name="Path 259" class="cls-2" d="M636.2,254.917c.317-.161.7,0,1.058,0a2,2,0,0,1,.795-.031.143.143,0,0,0,.112,0c.036,0,.04-.062.045-.1.04-.571.067-1.143.076-1.714a9.186,9.186,0,0,0-1.759-.08,2.285,2.285,0,0,0-.652-.031c-.312.067-.29.138-.183.406A11.074,11.074,0,0,1,636.2,254.917Z" transform="translate(-576.622 -234.318)"/>
      <path id="Path_260" data-name="Path 260" class="cls-2" d="M644.054,255c1.607.183,3.236-.129,4.848,0a12.44,12.44,0,0,1-.071-1.955l-3.754.049h-.714c-.339,0-.353,0-.344.335C644.009,253.955,644.04,254.477,644.054,255Z" transform="translate(-581.27 -234.37)"/>
      <path id="Path_261" data-name="Path 261" class="cls-2" d="M644.2,248.161a5.156,5.156,0,0,1,1.786-.112l2.9.156-.062-2.053a.178.178,0,0,0-.022-.1.183.183,0,0,0-.134-.054,31.194,31.194,0,0,0-3.54-.121c-.513,0-.933-.1-.955.5A16.832,16.832,0,0,0,644.2,248.161Z" transform="translate(-581.352 -230.402)"/>
      <path id="Path_262" data-name="Path 262" class="cls-2" d="M634.378,248.287a9.01,9.01,0,0,1,2.522-.036.21.21,0,0,0,.174-.027.237.237,0,0,0,.049-.161l.058-1.946c0-.107-3.161-.062-3.442-.107a5.194,5.194,0,0,0,.3,1.1Z" transform="translate(-575.581 -230.478)"/>
      <path id="Path_263" data-name="Path 263" class="cls-2" d="M632.927,241.535a.206.206,0,0,0,.071.08.21.21,0,0,0,.147,0,7.255,7.255,0,0,1,2.652.1c.12.022.272.04.33-.067a.331.331,0,0,0,0-.116l.1-1.884a16.985,16.985,0,0,0-2.187-.054c-.192,0-.379-.04-.571-.045s-1.388,0-1.451.3c-.036.174.308.643.393.8Q632.664,241.089,632.927,241.535Z" transform="translate(-574.626 -226.901)"/>
      <path id="Path_264" data-name="Path 264" class="cls-2" d="M643.861,241.5c1.54-.027,3.085,0,4.625.1a.179.179,0,0,0,.228-.214v-1.656a.2.2,0,0,0,0-.1c-.031-.058-.1-.067-.17-.071l-1-.089c-.473-.04-.946-.08-1.42-.1h-1.187c-.25,0-.781-.045-.978.129A6.639,6.639,0,0,0,643.861,241.5Z" transform="translate(-581.167 -226.801)"/>
      <path id="Path_265" data-name="Path 265" class="cls-2" d="M643.87,234.239a35.868,35.868,0,0,1,4.433.1.335.335,0,0,0,.263-.071.326.326,0,0,0,.058-.205l.085-1.652a11.99,11.99,0,0,0-3.071-.045,4.359,4.359,0,0,1-.933.04c-.214-.022-.446-.125-.634.054s-.13.527-.143.741C643.928,233.547,643.883,233.89,643.87,234.239Z" transform="translate(-581.189 -222.881)"/>
      <path id="Path_266" data-name="Path 266" class="cls-2" d="M630.745,234.4l4.352.138c.031-.741.054-1.482.054-2.232l-1.339.107a15.02,15.02,0,0,1-1.951.067c-.348,0-1.611-.3-1.786.1-.089.21.152.625.223.812C630.437,233.734,630.585,234.064,630.745,234.4Z" transform="translate(-573.542 -222.894)"/>
      <path id="Path_267" data-name="Path 267" class="cls-2" d="M716.187,219.056a41.843,41.843,0,0,1-.089,5.071c-.406,7.339-.37,14.7-.339,22.043a73.357,73.357,0,0,1,10.2.4,10.176,10.176,0,0,1,.223-2.326.893.893,0,0,1,.353-.647.924.924,0,0,1,.486-.076c2.464.076,4.933.558,7.37.192a22.594,22.594,0,0,1-.214,2.58,5,5,0,0,1,2.107,0c-.446-4.821.245-9.669.228-14.512,0-4.093-.54-8.187-.362-12.276a47.391,47.391,0,0,0,.2-7.589l-19.467-.228c-.7,0-.777.179-.866.768a13.654,13.654,0,0,0-.232,2.178C715.807,216.127,716.084,217.587,716.187,219.056Z" transform="translate(-620.977 -211.479)"/>
      <path id="Path_268" data-name="Path 268" class="cls-2" d="M718.293,221.168a.3.3,0,0,0-.344.071.766.766,0,0,0-.17.339,1.434,1.434,0,0,0,0,.8.777.777,0,0,0,.549.545.893.893,0,0,0,.79-.339,1.059,1.059,0,0,0,.25-.487.821.821,0,0,0-1.424-.692" transform="translate(-622.074 -216.702)"/>
      <path id="Path_269" data-name="Path 269" class="cls-2" d="M741.09,220.07a1.107,1.107,0,0,1,1.089-.156.341.341,0,0,1,.085.036.214.214,0,0,1,.045.174l-.045,1.143a1.339,1.339,0,0,1,.924-.1,5.352,5.352,0,0,1-.071-1.339,1.656,1.656,0,0,0,.759.17,32.055,32.055,0,0,1-.277-4.576c-.951-.152-1.915-.205-2.062.893-.08.607-.085,1.232-.156,1.844C741.336,218.552,741.362,219.785,741.09,220.07Z" transform="translate(-635.011 -213.498)"/>
      <path id="Path_270" data-name="Path 270" class="cls-2" d="M751.831,219.515a.469.469,0,0,0,.245.232,2.277,2.277,0,0,0,.857.277,1.094,1.094,0,0,0,.839-.268,1.639,1.639,0,0,0,.375-1.018,1.416,1.416,0,0,0-1.683-1.674C751.452,217.31,751.4,218.8,751.831,219.515Z" transform="translate(-640.815 -214.429)"/>
      <path id="Path_271" data-name="Path 271" class="cls-2" d="M744.53,219.364a1.536,1.536,0,0,1,.411.228,1.12,1.12,0,0,1,.259.768,29.81,29.81,0,0,1,0,4.236.655.655,0,0,1-.058.277c-.116.219-.411.25-.661.25h-2.5a.924.924,0,0,0-.732.214c-.045,1.576-.085,3.571-.125,5.134a8.164,8.164,0,0,0-2.545.2,5.208,5.208,0,0,1,.1,1.018,13.9,13.9,0,0,0,3.308-.071l.125-5.223a.371.371,0,0,1,.5-.446,10.984,10.984,0,0,0,3.834-.317q-.085-3.125,0-6.25a3.151,3.151,0,0,0,1.5-3.732c-.482-1.339-2.794-1.6-3.834-.692A2.646,2.646,0,0,0,744.53,219.364Z" transform="translate(-633.621 -212.992)"/>
      <path id="Path_272" data-name="Path 272" class="cls-2" d="M725.112,223.7a1.968,1.968,0,0,0-.2,1.174,1.058,1.058,0,0,0,.085.335.991.991,0,0,0,.54.424,2,2,0,0,0,.893.183,1.178,1.178,0,0,0,.826-.388,1.865,1.865,0,0,0,.3-1.2,1.29,1.29,0,0,0-.134-.71A1.444,1.444,0,0,0,725.112,223.7Z" transform="translate(-626.046 -217.752)"/>
      <path id="Path_273" data-name="Path 273" class="cls-2" d="M723.216,223.205a2.437,2.437,0,0,1,2.513-1.919,1.942,1.942,0,0,1,1.549.942,2.063,2.063,0,0,1,.228.893,3.027,3.027,0,0,1-1.665,2.772,31,31,0,0,0-.071,4.223l4.576.254-.04.737a8.181,8.181,0,0,0-2.62-.031,11.034,11.034,0,0,1-2.678-.17l.067-4.4c0-.812-.8-.781-1.277-1.339A2.411,2.411,0,0,1,723.216,223.205Z" transform="translate(-625.1 -216.789)"/>
      <path id="Path_274" data-name="Path 274" class="cls-2" d="M720.2,244.191c0-.045-.076-.04-.116,0a1.049,1.049,0,0,0-.679,1.062.893.893,0,0,0,.946.781.977.977,0,0,0,.4-.134,1.031,1.031,0,0,0,.348-.317.866.866,0,0,0-1.281-1.138" transform="translate(-623.005 -229.453)"/>
      <path id="Path_275" data-name="Path 275" class="cls-2" d="M718.333,242.3a2.272,2.272,0,0,0-1.12,2.558,1.651,1.651,0,0,0,.446.768,2.3,2.3,0,0,0,1.821.375,2.616,2.616,0,0,0,1.071-.3,1.067,1.067,0,0,0,.558-.893.588.588,0,0,1,.049-.3.326.326,0,0,1,.25-.08l5.526-.165-.04-.924-2.75.112a8.953,8.953,0,0,1-2.727.107c-.513-.192-.553-.893-1.009-1.178A2.232,2.232,0,0,0,718.333,242.3Z" transform="translate(-621.753 -228.304)"/>
      <path id="Path_276" data-name="Path 276" class="cls-2" d="M723.648,254.514a19.036,19.036,0,0,0-3.183.241.4.4,0,0,0-.295.129.446.446,0,0,0-.062.219q-.255,2.857-.277,5.741a.893.893,0,0,0-.933.205,2.167,2.167,0,0,0-.513.862,3.837,3.837,0,0,0-.295,1.312,2.393,2.393,0,1,0,2.754-2.357c-.076-1.415-.107-2.839-.089-4.259a.893.893,0,0,1,.277-.777.865.865,0,0,1,.446-.1l3.009-.121c.219-1.906.344-3.826.384-5.745.509-.04,1.036-.045,1.536-.129,0-.375-.049-.812-.049-.812s-2.045-.205-2.192.5C724.085,249.836,723.755,254.514,723.648,254.514Z" transform="translate(-622.278 -232.077)"/>
      <path id="Path_277" data-name="Path 277" class="cls-2" d="M721.185,280.111a1.085,1.085,0,0,0,.42.259.8.8,0,0,0,.728-.219,1.429,1.429,0,0,0,.366-.687c.187-.728-.411-1.585-1.219-1.241a1.116,1.116,0,0,0-.295,1.888Z" transform="translate(-623.77 -248.268)"/>
      <path id="Path_278" data-name="Path 278" class="cls-2" d="M731.32,275.073c0-.031,0-.071.027-.089s.058,0,.085,0l.362.1.058-1.446.446.045a.178.178,0,0,1,.116.045.156.156,0,0,1,.036.134,3.975,3.975,0,0,0,0,1.379.509.509,0,0,1,.652.054l.045,3.285a.242.242,0,0,1,0,.085c-.036.08-.138.089-.223.089-.38,0-1.237-.21-1.487.112C731.338,277.608,731.351,276.332,731.32,275.073Z" transform="translate(-629.602 -245.774)"/>
      <path id="Path_279" data-name="Path 279" class="cls-2" d="M747.5,274.743a.951.951,0,0,0,1.12.281,1.174,1.174,0,0,0,.665-.982c.049-.67-.513-1.656-1.277-1.263A1.531,1.531,0,0,0,747.5,274.743Z" transform="translate(-638.469 -245.248)"/>
      <path id="Path_280" data-name="Path 280" class="cls-2" d="M738.78,253.181q2.344-.045,4.678.04a1.031,1.031,0,0,1,.348.054c.295.121.411.446.563.741a2.232,2.232,0,0,0,4.232-.812,3.124,3.124,0,0,0-.3-1.58,1.692,1.692,0,0,0-1.161-1.062,2.95,2.95,0,0,0-2.183,0,1.843,1.843,0,0,0-1.107,1.786l-2.991.156c-.5.027-1,.031-1.5.08S738.807,252.623,738.78,253.181Z" transform="translate(-633.732 -232.881)"/>
      <path id="Path_281" data-name="Path 281" class="cls-2" d="M753.555,255.373a.9.9,0,0,0,.156.138.687.687,0,0,0,.321.094,1.205,1.205,0,0,0,.8-.263,1.072,1.072,0,0,0,.353-.5C755.854,252.8,751.926,253.627,753.555,255.373Z" transform="translate(-641.69 -234.703)"/>
      <path id="Path_282" data-name="Path 282" class="cls-2" d="M743.068,259.476l.205,4.018a2.17,2.17,0,0,0-1.594,1.071,3.085,3.085,0,0,0-.366,1.919,1.669,1.669,0,0,0,.612,1.237,2.067,2.067,0,0,0,1.442.156,3.1,3.1,0,0,0,2.268-.987,1.922,1.922,0,0,0,.286-.683A2.522,2.522,0,0,0,744,263.315l-.357-4.687c0,.076-2.879-.268-3.125-.281-.951-.058-1.594-.045-1.509,1.022C740.341,259.454,741.712,259.342,743.068,259.476Z" transform="translate(-633.855 -237.298)"/>
      <path id="Path_283" data-name="Path 283" class="cls-2" d="M756.6,277.279c-.027,0,0-.045,0-.036s.022.04.022.067v.991a6.152,6.152,0,0,1,1.071-.045V277.02a2.571,2.571,0,0,1-.924,0h-.094c-.022,0,0,.08.027.067" transform="translate(-643.588 -247.645)"/>
      <path id="Path_284" data-name="Path 284" class="cls-2" d="M741.081,283.949c0-.165,0-.366.129-.446s.446.085.638.04a.943.943,0,0,1,.214-.054.25.25,0,0,1,.21.241,1.154,1.154,0,0,1-.054.348c-.25,1.2.371,2.129-1.339,2A10.914,10.914,0,0,0,741.081,283.949Z" transform="translate(-634.894 -251.222)"/>
      <path id="Path_285" data-name="Path 285" class="cls-2" d="M746.812,286a1.17,1.17,0,0,1,.946-.058c0-.446.272-2.893-.621-2.549-.375.138-.339.643-.339.955C746.794,284.563,746.964,285.916,746.812,286Z" transform="translate(-638.17 -251.153)"/>
      <path id="Path_286" data-name="Path 286" class="cls-2" d="M752.14,286a6.509,6.509,0,0,1,1.062-.036l-.031-2.178a2.679,2.679,0,0,0-.745-.08c-.214.1-.2.192-.268.4A7.879,7.879,0,0,0,752.14,286Z" transform="translate(-641.097 -251.347)"/>
      <path id="Path_287" data-name="Path 287" class="cls-2" d="M570.034,250.079a.527.527,0,0,1-.152.411.536.536,0,0,1-.29.08l-2.5.161a.35.35,0,0,0-.411.4l-.067,1.5,2.763.107a.8.8,0,0,1,.719.281.767.767,0,0,1,.08.375l.17,3.37h2.138q-.085-2.071-.228-4.138a12.553,12.553,0,0,0,3.348-.062l.049-1.991-3.411-.08a20.975,20.975,0,0,0,.228-3.348c0-.2-2.437.067-2.437.067S570.078,249.405,570.034,250.079Z" transform="translate(-538.418 -231.061)"/>
      <path id="Path_288" data-name="Path 288" class="cls-2" d="M684.259,276c1.786-2.393-1.513-5.736-3.571-3.219C678.4,275.569,682.116,278.895,684.259,276Z" transform="translate(-601.173 -244.802)"/>
    </g>
  </g>
</svg>
