<svg xmlns="http://www.w3.org/2000/svg" viewBox="0 0 35.6 56.2">
  <defs>
    <style>
      .cls-1 {
        fill: #fe224a;
        fill-rule: evenodd;
      }
    </style>
  </defs>
  <path id="Path_19093" data-name="Path 19093" class="cls-1" d="M35.6,56.1l-.3-11.6h-.1l-.1-1.4h-.3v-.4h-.3v-.5h-.3v-.4h-.3v-.4h-.3v-.5h-.3v-.4H33l-.1-.5h-.3v-.4h-.3v-.4H32v-.5h-.3v-.4h-.3v-.5l-.3.1v-.5h-.3l-.1-.4h-.3v-.5h-.3v-.4h-.3v-.5l-.3.1v-.5h-.3v-.4h-.3v-.5h-.3l-.1-.4h-.3v-.5l-.3.1V33h-.3v-.4h-.3v-.5H27v-.4h-.3v-.4h-.3l-.1-.5H26v-.4h-.3v-.5h-.3v-.4h-.3v-.4h-.3v-.5h-.3v-.4h-.3l-.1-.5h-.3v-.4h-.3v-.4h-.3v-.5h-.3V26h-.3v-.2h0v-.4h.3V25h.3v-.5h.3v-.4h.4v-.4l.3-.1v-.4h.3v-.4h.3v-.5h.3v-.4h.3v-.4h.4l-.1-.5h.4v-.4h.3v-.5h.3v-.4H27v-.4h.3v-.5h.4l-.1-.4H28V18l.3-.1v-.4h.3v-.4h.3v-.5h.3v-.4h.4l-.1-.4.4-.1v-.4h.3v-.4h.3v-.5h.3V14h.3v-.4h.3v-.5h.4v-.4h.3v-.5h.3v-.4h.3v-.4H33v-.5h.4L33.1,0,28.2.1V.5h-.3V1h-.3v.4h-.3v.5h-.4l.1.4h-.4v.4l-.3.1v.4H26v.4h-.3v.5h-.3v.4H25l.1.4-.4.1v.4h-.3v.4h-.3v.5h-.3v.4h-.3v.4l-.3.1v.4h-.4l.1.4h-.4v.5h-.3v.4h-.3v.4l-.3.1v.4h-.3v.4h-.4l.1.5h-.4v.4h-.3v.5H20V12h-.3v.4h-.3v.5h-.3v.4h-.4l.1.5h-.4v.4h-.3v.4h-.3v.5h-.3v.4h-.3V16h-.3v.4h-.4l.1.5h-.3v-.1H16l-.1-.5-.3.1v-.5h-.3v-.4H15V15h-.3v-.4h-.3v-.4H14v-.5h-.3v-.4h-.3v-.4h-.3v-.5h-.3V12h-.3l-.1-.4h-.3v-.5h-.3v-.4h-.3v-.4h-.3l-.1-.5-.3.1V9.4h-.3V9h-.3V8.6H9.9l-.1-.5H9.5V7.7H9.2V7.3H8.9V6.9H8.6l-.1-.5H8.2V6H7.9V5.6H7.6V5.1l-.4.1V4.7H6.9V4.3H6.5V3.9H6.2V3.5H5.9l-.1-.4H5.5V2.7H5.2V2.3H5l-.1-.5H4.7V1.4L0,1.5.3,12H.4l.1.6H.6l.1.6H.9v.5h.3l.1.4h.3v.5l.3-.1V15h.3v.4h.4v.5h.3v.4h.3v.5h.3v.4h.4v.4h.3v.5h.3v.4h.3V19h.3v.4h.4v.5l.3-.1v.5h.3v.4h.3v.5h.3v.4H7l.1.5h.3v.4h.3V23l.3-.1v.5h.3v.4h.3v.5h.3l.1.4h.3v.5h.3v.4h.3v.1h0v.4H9.6v.4H9.2l.1.5H8.9v.4H8.6v.4H8.3v.5H8v.4H7.6v.5H7.3v.4H7v.5H6.7v.5H6.5v.5H6.2v.4l-.2.1V32H5.7v.5H5.4V33H5.2v.5H4.9v.4l-.2.1v.4H4.4v.5H4.1v.5H3.8v.5H3.6v.4l-.3.1v.4H3v.5H2.7l.1.5H2.5v.5H2.2v.4l-.3.1.1.4H1.7v.5H1.4l.3,10.2,4.5-.1v-.5h.3v-.4h.3l-.1-.5H7V48h.3v-.5h.3v-.4h.3v-.5h.3v-.4h.3l-.1-.5h.3v-.4H9v-.5h.3v-.4h.3v-.5h.3v-.4l.3-.1-.1-.4h.3v-.5h.3v-.4l.2-.1v-.4h.3v-.5h.3v-.4l.2-.1v-.4H12v-.5h.3v-.4h.4l-.1-.4H13v-.4l.3-.1V38h.4l-.1-.4H14v-.4h.3v-.5h.3v-.4h.3v-.4h.4v-.5h.3V35h.3v-.4h.3v.3h.3v.4h.3v.5h.3v.4h.3v.5h.3l.1.4h.3v.5h.3V38h.3v.4H19v.5h.3v.4h.3v.5h.3v.4h.3l.1.5h.3v.4h.3v.4h.3V42h.1l.2,8.1h.6v.3h.5v.2h.5v.3l.4-.1v.4h.4v.4h.4v.5l.3-.1.1.5.4-.1v.4h.4v.3h.4v.4h.5v.3h.4v.3h.4v.4h.5v.3h.4v.3h.4l.1.4.4-.1v.4h.4v.4l1.1-.1v.1Z"/>
</svg>
