<svg xmlns="http://www.w3.org/2000/svg" viewBox="0 0 46.3 54">
  <defs>
    <style>
      .cls-1 {
        fill: #fe224a;
        fill-rule: evenodd;
      }
    </style>
  </defs>
  <path id="Path_19086" data-name="Path 19086" class="cls-1" d="M45.5,34.4h.2l-.3-10.8h-.1v-.5h-.1v-.5h-.1v-.5H45v-.5h-.1v-.5h-.1v-.5h-.1v-.5h-.1v-.5h-.1v-.5h-.1v-.5h-.1v-.5h-.1v-.5h-.1v-.5H44v-.5h-.1v-.5h-.1v-.5h-.1v-.5h-.1v-.5h-.1v-.5h-.1v-.5h-.1v-.5h-.1v-.5H43v-.4h-.4v-.4h-.4v-.4h-.4V11h-.4v-.4H41v-.4h-.4V9.8h-.4V9.4h-.4V9h-.4V8.6H39V8.2h-.4V7.8h-.4V7.4h-.4V7h-.4V6.6H37V6.2h-.4V5.8h-.4V5.4h-.4V5h-.4V4.6H35V4.2h-.4V3.8h-.4V3.4h-.4V3.1h-.4V2.9h-.5V2.8h-.5V2.7h-.5V2.6h-.5V2.5h-.5V2.4h-.5V2.3h-.5V2.2h-.5V2.1h-.5V2h-.5V1.9h-.5V1.8h-.5V1.7h-.5V1.6h-.5V1.5h-.5V1.4h-.5V1.3h-.5V1.2h-.5V1.1h-.5L22,1h-.5V.9H21V.8h-.5V.7H20V.6H9L7.5,0h0L2.6.1,2.9,10h0v.5H2.8V11H2.7v.5H2.6V12H2.5v.5H2.4V13H2.3v.5H2.2V14H2.1v.5H2V15H1.9v.5H1.8V16H1.7v.5H1.6V17H1.5v.5H1.4V18H1.3v.5H1.2V19H1.1v.5H1V20H.9v.5H.8V21H.7l.2,8.2H-.4v.3H-.6l.3,10.6h.1v.5h.1v.5H0l.1,5.7H.3L1,48h.3v.5h.3V49h.3v.5h.3V50h.3v.5h.3V51h.3v.5h.2v.1h0V52h.1v.1h.1v.5h.3v.3h.3v.5h.2v.4h.3V54h4l4.7-.1v-.1h.5v-.1h.5v-.1h.5v-.1h.5v-.1h.5v-.1h.5v-.1h.5v-.1h.5V53h.5v-.1h.5v-.1h.5v-.1h.5v-.1h.5v-.1h.5v-.1h.5v-.1h.5v-.1h.5v-.1h.5V52h.5v-.1h.5v-.1h.5v-.1h.5v-.1h.5v-.1h.5v-.1h.5v-.1h.5v-.1h.5v-.1h.5V51h.5v-.1h.5v-.1h.5v-.1h.5v-.1h.5v-.1h.5v-.1h.5v-.1h.5v-.1h.5V50h.5v-.3h.4v-.3h.4v-.3h.4v-.3h.4v-.3h.4v-.3h.4v-.3h.4v-.3h.4v-.3h.4V47h.4v-.3h.4v-.3h.4v-.3h.4v-.3h.4v-.3h.4v-.3h.4v-.3h.4v-.3h.4v-.4h.3v-.5H40v-.5h.2v-.5h.2v-.5h.2v-.5h.2v-.5H41v-.5h.2v-.5h.2v-.5h.2v-.5h.2v-.5H42v-.5h.2v-.5h.2v-.5h.2v-.5h.2v-.5H43v-.5h.2ZM25.4,39.7h-.5v.1h-.5v.1h-.5V40h-.5v.1h-.5v.1h-.5v.1h-.5v.1h-.5v.1h-.5v.1h-.5v.1h-.5v.1L19,41v.1h-.5v.1H18v.1h-.5v.1H17v.1h-.5v.1H16v.1h-.5v.1H15v.1h-.5V42H14v.1h-.5v.1H13v.1h-.5v.1H12v.1h-.5v.1H11v.1L10,43v.1H8.7v-.2H8.5v-.4H8.2V42H8V40.8H8v-.5H7.9v-.5H7.8v-.5H7.7v-.5H7.6v-.5H7.5v-.5H7.4v-.5H7.3v-.5H7.2v-.5H7.1v-.5H7v-.5H6.9v-.5H6.8v-.5H6.7v-.5H6.6v-.5H6.5v-.5H6.4v-.5H6.3v-.5H6.2v-.5h0v-.5h0v-.5h0v-.5h0v-.5h0v-.1h.1v-.5h.1v-.5h.1v-.5h.1v-.5h.1v-.5h.1v-.5h.1v-.5H7v-.5h.1v-.5h.1v-.5h.1v-.5h.1v-.5h.1v-.5h.1v-.5h.1v-.5h.1v-.5h.1v-.5H8v-.5h.1v-.5h.1v-.5h.1L8,17h.1v-.5h.1V16h.1v-.5h.1V15h.1v-.5h.1V14h.1v-.5h.1V13h.1v-.5H9V12h.1v-.1h6.5V12h.5v.1h.5v.1h.5v.1h.5v.1h.5v.1h.5v.1h.5v.1h.5v.1h.5v.1h.5V13h.5v.1h.5v.1h.5v.1h.5v.1h.5v.1h.5v.1h.5v.1h.5v.1h.5v.1h.5V14h.5v.1h.5v.1H27v.2h.4v.3h.4v.4h.4v.4h.4v.4H29v.4h.4v.4h.4v.4h.4v.4h.4v.4H31v.4h.4v.4h.4v.4h.4v.4h.4v.4H33v.4h.4v.4h.4v.4h.4v.4h.4v.4H35v.4h.4v.4h.4v.4h.4v.4h.2v.4h.1v.5h.1v.5h.1v.5h.1v.5h.1v.5H37v.5h.1v.5h.1v.5h.1v.4h-.1v.5H37v.5h-.2v.5h-.2v.5h-.2v.5h-.2v.5H36v.5h-.2v.5h-.2v.5h-.2v.5h-.2v.4h-.3V34h-.4v.3h-.4v.3h-.4v.3h-.4v.3h-.4v.3h-.4v.3h-.4v.3h-.4v.3h-.4v.3h-.4V37h-.4v.3h-.4v.3h-.4v.3h-.4v.3h-.4v.3h-.4v.3h-.4v.3h-.4v.2h-.5v.1h-.5v.1h-.5v.1h-.5v.1h-.5v.1h-.5Z" transform="translate(0.6)"/>
</svg>
