<svg xmlns="http://www.w3.org/2000/svg" viewBox="0 0 34.3 47.9">
  <defs>
    <style>
      .cls-1 {
        fill: #fe224a;
        fill-rule: evenodd;
      }
    </style>
  </defs>
  <path id="Path_19077" data-name="Path 19077" class="cls-1" d="M34,33.9h.3l-.2-10.1-4.6.1.1.3h-.4v.4h-.4v.3h-.5v.3l-.4.1v.3h-.4v.3h-.4v.3h-.5v.4h-.4v.3h-.4v.3h-.5v.3h-.4v.4h-.4v.3H24v.3h-.4v.3l-.4.1v.3h-.5v.3h-.4v.3h-.4v.4h-.5l.1.3H21v.3h-.4v.3h-.4v.4h-.5v.3h-.4v.3h-.4v.3h-.5v.4H18v.3h-.4v.3h-.2v-.6h.1l-.1-.5h.1v-.6h.1l-.1-.5h.1v-.5h.1v-.6h0v-.5h.1V29h0v-.5h.1V28h0v-.6H18v-.5h0v-.6h.1v-.5h0v-.5h.1v-.6h.1l-.1-.5h.1v-.6h.1v-.5h0v-.5h.1V22h0v-.5h.1v-.6h0v-.5h.1v-.6h.1v-.5h0v-.6h.1v-.5H19V17.1h.1v-.5h.1V16h0v-.5h.1v-.6h.1v-.5h.1l-.1-.6h.1v-.5h.1v-.6h0v-.5h.1v-.6h.1v-.5h0v-.6h.1V10H20L19.7,0,15.2.1l.1.5h-.1v.6h-.1v.5H15l.1.5H15v.6h-.1v.5h-.1v.5h0v.5h-.1v.6h-.1v.5h-.1v.5h-.1v.5h0V7h-.1v.5h-.1V8h-.1l.1.6h-.1v.5H14v.5h-.1v.5h-.1v.5l-.1.1.1.5h-.1v.5h-.1v.6h0v.5h-.1v.5h0v.6h-.1v.5h0v.5h-.1v.6h-.1l.1.5h-.1v.6h-.1v.5h0v.5H13v.6h0v.5h-.1v.5h0v.6h-.1v.5h-.1l.1.6h-.1v.5h-.1l.1.5h-.1v.6h-.1V23h0v.6h0v.5h-.1v.5h0v.6h0v.5l-.1.1.1.5h-.1v.6h0v.5h0V28h0v.6h0v.5h0v.3h-.1v-.5l-.4.1v-.5h-.3v-.4h-.3l-.1-.4h-.3v-.4h-.3v-.5l-.4.1v-.5H9.8V26H9.5v-.4H9.1v-.4H8.8v-.4H8.5v-.5H8.1v-.4H7.8v-.4H7.5v-.4H7.1v-.5l-.3.1v-.5H6.5v-.4H6.1v-.4H5.8V21H5.5l-.1-.5-.3.1v-.5H4.8v-.4H4.5l-.1-.4L0,19.4l.2,10H.6v.4H.9v.4h.3v.5h.4v.4h.3v.4h.3V32h.3l.1.4h.3v.4h.3v.5h.3v.4h.4v.4h.3v.5h.3v.5l.3-.1v.5h.3l.1.4h.3v.4h.3v.5h.3l.1.4h.3v.4h.3v.5h.3l.1.4h.3v.4h.3v.5l.3-.1.1.5h.3v.4h.3v.4h.4v.5h.3v.4h.3v.4h.4v.4h.3v.5h.3v.4h.3l.1,4.7,4.5-.1v-.2h.5v-.2h.5v-.3h.4v-.3h.5v-.3l.4-.1v-.3h.5l-.1-.3h.5v-.3h.4v-.3h.5v-.3h.4v-.3h.5v-.3h.4V44h.4v-.3l.5-.1v-.3h.4V43h.5v-.3h.4v-.3h.4v-.3l.5-.1v-.3h.4v-.3H25v-.3h.5l-.1-.4h.5v-.3h.4v-.3h.5l-.1-.3h.5v-.4h.4v-.3H28v-.3h.5v-.3h.4v-.4h.4v-.3h.5v-.3h.4v-.3h.4v-.4h.5v-.3h.4v-.3h.4v-.3h.5v-.4h.4v-.3h.4v-.4h.4v-.4H34Z"/>
</svg>
