<svg xmlns="http://www.w3.org/2000/svg" viewBox="0 0 120.1 58.5">
  <defs>
    <style>
      .cls-1 {
        fill: #fe224a;
        fill-rule: evenodd;
      }
    </style>
  </defs>
  <path id="Path_19069" data-name="Path 19069" class="cls-1" d="M119.6,41.2h.5l-.3-10-4.4.1v.2h-.5v.3h-.5V32h-.5v.2h-.5v.3h-.5v.2h-.4V33H112v.2h-.5v.2H111v.3h-.5v.2H110v.2h-.5v.3H109v.2h-.5v.2h-.4V35h-.5v.3h-.5v.2h-.5v.2h-.5V36h-.5v.2h-.5v.2h-.5v.2h-.5v.3h-.5v.2h-.5l.1.2h-.5v.4h-.5v.4l-.4.1v.3h-.4v.4H101v.4h-.4v.4h-.3v.4h-.4v.4h-.4v.4h-.4l.1.4h-.4v.4h-.4V42l-.4.1v.3h-.3v.4h-.4v.4h-.4v.4h-.4V44h-.3v.4h-.4v.4h-.4v.4h-.1l-.1-5h-.1v-.6l-.1.1v-.6h-.2v-.6h-.1V38h-.1v-.6h-.1v-.5h0v-.6h-.1v-.5h-.1v-.5h0l-.1-.6h0v-.5h-.1v-.5H94v-.6h0v-.5h-.1v-.5h-.1v-.6h0V31h-.1v-.5h-.1v-.6h0v-.5h-.1v-.6h-.1v-.5h0l-.1-.5h0v-.6h-.1v-.5h0l-.1-.5h0v-.6H93v-.5h-.1v-.5h0V24h-.1v-.5h-.1V23h0v-.6h-.1v-.5h-.1v-.5h0l-.1-.6h0v-.5h-.1v-.5l-.1-.6h0v-.5h-.1v-.6H92v-.5h0v-.5h-.1v-.6h-.1V16h0v-.5h-.1v-.6h-.1v-.5h0l-.1-.5h0v-.6h-.1v-.5h0l-.1-.5h-.1v-.6h-.3v-.5h-.3v-.4h-.3v-.5H90V9.9h-.3V9.4h-.2l-.1-.5h-.2V8.5h-.3V8h-.3V7.6h-.3V7.1H88V6.6h-.3V6.2h-.4V5.8l-.6.1V5.6h-.5V5.4h-.4l-.1-.3h-.4V4.9h-.5V4.7h-.5V4.4l-.5.1V4.2h-.5V4h-.5V3.8h-.5V3.5h-.5V3.3h-.5V3.2h-.6V3.1h-.5V3H79.1V2.9H78V2.8h-.5V2.7H76.4V2.6H75.3V2.5h-.5V2.4l-.5.1V2.4h-.6V2.3H72.6V2.2h-.5V2.1l-.5.1V2.1H71V2H70V1.9h-.6V1.8l-.5.1V1.8h-.6V1.7h-1V1.6h-.6V1.5l-.5.1V1.5h-.6V1.4h-1V1.3H64V1.2l-.5.1V1.2H63V1.1H61.9V1h-.6V.9l-.5.1V.9h-.5V.8H59.2V.7h-.5V.6l-.6.1V.6h-.5V.5H56.5V.4H56V.3l-.6.1V.3h-.5V.2H53.8V.1h-.5V0l-.6.1V0L48,.1V.2h-.6V.3l-.5.1V.5h-.5V.6h-.6V.7h-.5V.8h-.5V.9h-.6V1h-.5v.2h-.5v.1h-.5v.1h-.6v.1h-.5v.1h-.5v.1h-.6v.1l-.5.1V2h-.5v.1H39v.1h-.6v.1h-.5v.1h-.5v.1l-.6.1v.1h-.5v.1h-.5v.1h-.5V3h-.6v.1h-.5v.1l-.5.1v.1h-.6v.1h-.5v.1h-.5v.1h-.5v.1H31v.1h-.5v.2H30v.1h-.6v.1h-.5v.1h-.5v.1h-.5v.1h-.6v.1l-.5.1v.1h-.5V5h-.6v.1h-.5v.1h-.5v.1h-.5v.1l-.6.1v.1h-.5v.1h-.5v.1H22v.1h-.5V6H21v.1l-.5.1v.1h-.6v.2h-.5v.3h-.5v.3h-.5v.2l-.4.1v.2h-.5v.3H17v.3h-.4v.2l-.5.1v.2h-.5V9h-.4v.3h-.5v.2l-.5.1v.2h-.4v.3h-.5v.3h-.5v.2l-.4.1v.2h-.5v.3h-.5v.3H11v.2l-.5.1V12H10v.3H9.6v.3H9.1v.2H8.6v.3H8.2v.3H7.7v.3H7.2v.6H6.8v.4H6.5l.1.5H6.3v.5H6v.4H5.7v.5H5.4v.5H5.1v.4H4.8V18H4.6v.4l-.3.1v.4H4v.5H3.7v.4H3.4v.5H3.1v.5H2.8l.1.4H2.6v.5H2.3v.5H2v.4H1.7v.5H1.4v.4l-.3.1V24H.9v.5H.6v.4H.3v.5H0L.3,35.6l4.5-.1v-.4l.3-.1v-.4h.3v-.5h.3v-.4H6l-.1-.5h.3v-.4h.3v-.5h.3v-.4h.3v-.5h.3V31h.3v-.5H8V30h.3v-.4h.2v-.5h.3v-.4h.3v-.5h.3v-.4h.3v-.5H10v-.4h.3v-.5h.3V26l.3-.1-.1-.4h.3V25h.3v-.4h.3v-.5h.4v-.4h.5v-.2l.5-.1v-.2h.4v-.3H14v-.2h.5v-.3H15v-.3h.4v-.2h.5v-.3h.5v-.3h.4v-.2l.5-.1v-.2h.5v-.3h.4v-.3h.5V20l.5-.1v-.2h.4v-.3h.5v-.3h.5v-.2H21v-.3h.5v-.3H22V18h.4v-.2h.5v-.3h.5v-.3h.4v-.3h.6l-.1-.2h.6v-.1h.5v-.1l.5-.1v-.1h.6v-.1H27v-.1h.5V16h.6v-.1h.5v-.1h.5v-.1l.5-.1v-.1h.6v-.1h.5v-.1h.5v-.1h.6v-.1h.5V15h.5v-.1l.5-.1v-.1h.6v-.1h.5v-.1h.5v-.1h.6v-.1H36v-.1h.5v-.1l.6-.1-.1-.1h.6v-.1h.5v-.1h.5v-.1h.6v-.1h.5v-.1h.5v-.2h.6v-.1h.5V13h.5v-.1h.5v-.1h.6v-.1h.5v-.1l.5-.1v-.1h.6v-.1H45v-.1h.5v-.1H46V12h.6v-.1h.5v-.1l.5-.1v-.1h.6v-.1h.5v-.1h.5v-.1h.5v-.1h.6v-.1h.5V11h.7v.1L52,11v.1h.6v.1h1v.1h.6v.1h1.1v.1h.5v.1l.5-.1v.1h.6v.1h1v.1h.6v.1l.5-.1v.1h.6V12h1v.1h.6v.1h1v.1h.6v.1l.5-.1v.1h.6v.1h1v.1h.6v.1l.5-.1v.1h.5v.1h1.1v.1h.6V13l.5-.1V13h.5v.1h1.1v.1h1.1v.1h.5v.1H73v.1h1.1v.1h.5v.1l.6-.1v.1h.5v.1h1.1v.1h.5V14h.5v.3h.5v.2h.5v.2h.5V15l.5-.1v.3h.5v.2h.5v.2h.5v.3h.5v.2h.4l.1.2h.5v.3h.5v.3h.2v.5h.3v.4h.3v.5h.3v.5h.3v.4h.2l.1.5h.2v.5h.3v.4h.3v.5h.3v.4h.3V22h.3v.5h.1V23h.1v.6H87v.5h0l.1.6h0v.5h.1v.5h0l.1.6h0v.5h.1v.5h0l.1.6h0v.5h.1V29h0l.1.5h0V30h.1v.6h.1v.5h0v.6H88v.5h.1v.5h0v.6h.1v.5h.1v.5h0v.6h.1v.5h.1V36h0v.5h.1V37h.1v.6h0v.5h.1v.6h.1v.5h0v.5H89v.6h.1v.5h0v.6h.1v.5h.1v.5h0l.1.6h0v.5h.1V44h0l.1.5h-.1v-.3H89V44h-.5v-.2H88v-.2h-.4l-.1-.3h-.4v-.2h-.5v-.2h-.5v-.3l-.5.1v-.3h-.5v-.2h-.5V42h-.5v-.2h-.5v-.3h-.5v-.2h-.5v-.2h-.5v-.2h-.5v-.3l-.4.1-.1-.3h-.4v-.2h-.5V40h-.5v-.3l-.5.1v-.3h-.5v-.2h-.5v-.2h-.5v-.2h-.5v-.3h-.5v-.2h-.5v-.2h-.5V38h-.5v-.3l-.5.1v-.3h-.5v-.2h-.4l-.1-.2h-.4v-.2h-.5v-.3h-.5v-.2h-.5v-.2h-.5V36h-.5v-.3l-.5.1v-.3h-.5v-.2l-4.6.1.3,10.3H66v.2h.5v.2h.4l.1.2h.4v.3h.5v.2h.5V47h.5v.3l.5-.1v.3h.5v.2h.5v.2h.5v.3h.5v.2h.5v.2h.4l.1.3.4-.1v.3h.5v.2h.5v.2h.5v.3h.5V50h.5v.2h.5v.3l.5-.1v.3h.5v.2h.5v.2h.4l.1.3h.4v.2h.5v.2h.5V52h.5v.3h.5v.2h.5v.2h.5V53h.5v.2h.5v.2h.4v.3h.5v.2h.5v.3h.5v.2h.5v.2h.5v.3h.5v.2h.5v.2h.5v.2H87l.1.3h.4V56H88v.2h.5v.2H89v.3h.5v.2H90v.2h.5v.2H91v.3h.5v.2H92V58h.5v.2h.2v.3l4.7-.1V58h.4v-.4h.3v-.4h.4v-.4h.4v-.4h.4l-.1-.4h.4v-.4h.4v-.4h.4v-.4h.3v-.4h.4V54h.4v-.4h.4l-.1-.4h.4v-.4h.4v-.4h.4v-.3l.3-.1v-.3l.4-.1v-.3h.4v-.4h.3v-.4h.4v-.4h.4v-.4h.4l-.1-.4h.4v-.4h.4v-.4h.4V48h.4v-.3l.5-.1v-.2h.4v-.2h.5V47l.5-.1v-.2h.5v-.2h.5v-.2l.5-.1V46h.5v-.2h.5v-.3h.5l-.1-.2h.5v-.2h.5v-.3h.5v-.2h.5v-.2h.5v-.3h.5v-.2h.5v-.2h.4v-.3h.5v-.3h.5v-.3h.5l-.1-.2.5-.1v-.2h.5V42h.5v-.3h.4v-.2l.5-.1Z"/>
</svg>
