<svg xmlns="http://www.w3.org/2000/svg" xmlns:xlink="http://www.w3.org/1999/xlink" xml:space="preserve" version="1.0" style="shape-rendering:geometricPrecision;text-rendering:geometricPrecision;image-rendering:optimizeQuality;" viewBox="0 0 100 125" x="0px" y="0px" fill-rule="evenodd" clip-rule="evenodd"><defs><style type="text/css">
   
    .fil0 {fill:black}
   
  </style></defs><g><path class="fil0" d="M83 15c0,-5 -4,-10 -10,-10 -5,0 -10,5 -10,10 0,6 5,10 10,10 6,0 10,-4 10,-10zm-68 11l3 -1 12 21 9 0c-1,0 -1,0 -1,-1 0,-2 2,-4 4,-4l14 0 6 -7c2,-2 4,-5 8,-5 0,0 1,0 1,0l0 0 4 0c5,0 9,4 9,8l0 24c0,1 0,2 0,2 -2,3 -4,4 -7,4l9 0 3 -32 6 0 -4 37 0 1 0 22 -6 0 0 -22 -19 0 0 22 -6 0 0 -22 0 -3 -4 0 0 25 -8 0 0 -19 -12 17 0 0c-1,1 -2,2 -4,2 -2,0 -5,-3 -5,-5 0,-1 1,-2 1,-3l0 0 17 -24 0 0c1,-1 2,-1 3,-1l0 -3 -35 0c0,41 0,34 0,36l-8 0c0,-15 0,-29 0,-43l8 0 35 0 8 0 0 7 8 -2c0,0 3,-1 3,-3l0 -12 -6 7 -19 0c0,0 0,0 0,0l-14 0 -13 -23z"/></g><text x="0" y="115" fill="#000000" font-size="5px" font-weight="bold" font-family="'Helvetica Neue', Helvetica, Arial-Unicode, Arial, Sans-serif">Created by Hadi Davodpour</text><text x="0" y="120" fill="#000000" font-size="5px" font-weight="bold" font-family="'Helvetica Neue', Helvetica, Arial-Unicode, Arial, Sans-serif">from the Noun Project</text></svg>